<svg width="18" height="11" viewBox="0 0 18 11" fill="none" xmlns="http://www.w3.org/2000/svg">
<path d="M9.70236 10.2877L17.7124 2.27749C17.8979 2.09223 18 1.84491 18 1.58121C18 1.3175 17.8979 1.07019 17.7124 0.88492L17.1227 0.295022C16.7384 -0.0888285 16.1138 -0.0888285 15.7301 0.295022L9.00373 7.02141L2.26988 0.287558C2.08447 0.102291 1.8373 -7.06494e-07 1.57374 -7.18015e-07C1.30989 -7.29548e-07 1.06272 0.102291 0.877163 0.287558L0.287558 0.877455C0.102144 1.06287 -5.72636e-08 1.31004 -6.87905e-08 1.57374C-8.03174e-08 1.83745 0.102144 2.08476 0.287558 2.27003L8.30496 10.2877C8.49095 10.4734 8.73929 10.5754 9.00329 10.5748C9.26831 10.5754 9.51651 10.4734 9.70236 10.2877Z" fill="#333333"/>
</svg>
