<svg width="96" height="96" viewBox="0 0 96 96" fill="none" xmlns="http://www.w3.org/2000/svg">
<path d="M5.0897 16.9666C5.0897 16.9666 3.39307 16.9666 3.39307 18.6632V72.9555C3.39307 73.8977 4.14756 74.6558 5.0897 74.6522H37.3257V79.742C37.3257 86.3509 32.0548 91.6184 25.4459 91.6184H22.0526C20.9213 91.6184 20.356 92.4667 20.356 93.315C20.356 94.1634 20.921 95.0117 22.0526 95.0117H72.9516C74.0829 95.0117 74.6483 94.1634 74.6483 93.315C74.6483 92.4667 74.0833 91.6184 72.9516 91.6184H69.5584C62.9495 91.6184 57.6757 86.3542 57.6785 79.7453L57.6856 74.6522H89.9216C90.8638 74.6556 91.6218 73.8977 91.6183 72.9555V28.843C91.6183 27.906 90.8587 27.1463 89.9216 27.1463C88.9846 27.1463 88.225 27.906 88.225 28.843V61.0791H79.7416C78.6099 61.0791 78.0449 61.9272 78.0449 62.7758C78.0449 63.6243 78.6102 64.4722 79.7416 64.4722H88.2247V71.2589H6.78633V64.4722H52.5954C52.5954 64.4722 54.2921 64.4724 54.2921 62.7758C54.2921 61.0791 52.5954 61.0791 52.5954 61.0791H6.78633V20.3599H40.719C41.656 20.3599 42.4156 19.6003 42.4156 18.6632C42.4156 17.7263 41.656 16.9666 40.719 16.9666H5.0897ZM40.719 74.6522H54.2921V79.742C54.2921 84.9739 56.9414 89.3161 59.9486 91.6151H35.0692C37.9742 89.3943 40.729 84.9739 40.729 79.742L40.719 74.6522Z" fill="#666666"/>
<path d="M72.9549 61.0792C73.1777 61.0792 73.3983 61.1231 73.6042 61.2084C73.81 61.2936 73.9971 61.4185 74.1546 61.5761C74.3122 61.7336 74.4372 61.9207 74.5224 62.1266C74.6077 62.3324 74.6516 62.5531 74.6516 62.7759C74.6516 62.9987 74.6077 63.2193 74.5224 63.4252C74.4372 63.631 74.3122 63.8179 74.1547 63.9755C73.9971 64.133 73.8101 64.2581 73.6042 64.3434C73.3984 64.4286 73.1777 64.4725 72.9549 64.4725C72.7321 64.4725 72.5115 64.4287 72.3056 64.3434C72.0998 64.2581 71.9128 64.133 71.7552 63.9755C71.5977 63.8179 71.4727 63.6308 71.3874 63.425C71.3022 63.2191 71.2583 62.9987 71.2583 62.7759C71.2583 62.3259 71.4371 61.8943 71.7552 61.5761C72.0734 61.2579 72.5049 61.0792 72.9549 61.0792Z" fill="#666666"/>
<path d="M66.1688 61.0792C66.3916 61.0792 66.6122 61.1231 66.8181 61.2084C67.0239 61.2936 67.2109 61.4185 67.3685 61.5761C67.5261 61.7336 67.651 61.9207 67.7363 62.1266C67.8216 62.3324 67.8655 62.5531 67.8655 62.7759C67.8655 62.9987 67.8216 63.2193 67.7363 63.4252C67.6511 63.631 67.5261 63.8179 67.3685 63.9755C67.211 64.133 67.0239 64.2581 66.8181 64.3434C66.6122 64.4286 66.3916 64.4725 66.1688 64.4725C65.946 64.4725 65.7253 64.4287 65.5195 64.3434C65.3137 64.2581 65.1266 64.133 64.9691 63.9755C64.8115 63.8179 64.6866 63.6308 64.6013 63.425C64.516 63.2191 64.4722 62.9987 64.4722 62.7759C64.4722 62.3259 64.6509 61.8943 64.9691 61.5761C65.2873 61.2579 65.7188 61.0792 66.1688 61.0792Z" fill="#666666"/>
<path d="M59.3822 61.0792C59.605 61.0792 59.8256 61.1231 60.0314 61.2084C60.2373 61.2936 60.4243 61.4185 60.5819 61.5761C60.7394 61.7336 60.8644 61.9207 60.9497 62.1266C61.0349 62.3324 61.0788 62.5531 61.0788 62.7759C61.0788 62.9987 61.035 63.2193 60.9497 63.4252C60.8644 63.631 60.7395 63.8179 60.5819 63.9755C60.4244 64.133 60.2373 64.2581 60.0315 64.3434C59.8256 64.4286 59.605 64.4725 59.3822 64.4725C59.1594 64.4725 58.9387 64.4287 58.7329 64.3434C58.527 64.2581 58.34 64.133 58.1825 63.9755C58.0249 63.8179 57.8999 63.6308 57.8147 63.425C57.7294 63.2191 57.6855 62.9987 57.6855 62.7759C57.6856 62.3259 57.8643 61.8943 58.1825 61.5761C58.5007 61.2579 58.9322 61.0792 59.3822 61.0792Z" fill="#666666"/>
<path d="M76.3483 0.000391386C73.5574 0.000455511 71.2584 2.29921 71.2584 5.09017C71.2584 6.22396 71.6514 7.26536 72.289 8.11559L64.008 20.529C63.6109 20.4283 63.2018 20.3595 62.7753 20.3595C61.9945 20.3595 61.2624 20.5566 60.5982 20.8765L53.7751 14.0535C54.0955 13.3893 54.2921 12.657 54.2921 11.8762C54.2921 9.08519 51.9932 6.78638 49.2022 6.78644C46.4112 6.78644 44.1123 9.08526 44.1123 11.8762C44.1123 14.6671 46.4112 16.9661 49.2022 16.9662C49.9813 16.9662 50.7129 16.7718 51.3759 16.4525L58.1989 23.2755C57.88 23.9387 57.6854 24.6701 57.6854 25.4493C57.6854 28.2403 59.9843 30.5393 62.7753 30.5393C65.5662 30.5393 67.8652 28.2403 67.8652 25.4493C67.8652 24.3154 67.4722 23.2741 66.8346 22.4239L75.1123 10.0074C75.5107 10.1093 75.9203 10.1798 76.3483 10.1798C77.1274 10.1798 77.859 9.9856 78.5221 9.66626L85.3451 16.4924C85.027 17.1549 84.8315 17.8849 84.8315 18.6631C84.8315 21.454 87.1304 23.7528 89.9214 23.7528C92.7124 23.7528 95.0113 21.454 95.0113 18.6631C95.0113 15.872 92.7124 13.5731 89.9214 13.5731C89.1406 13.5731 88.4085 13.7699 87.7443 14.0899L80.9247 7.26374C81.2436 6.60056 81.4382 5.86896 81.4382 5.08978C81.4382 2.29882 79.1393 0 76.3483 0L76.3483 0.000391386ZM76.3483 3.39351C77.3054 3.39351 78.045 4.13305 78.045 5.09017C78.045 6.0473 77.3054 6.78683 76.3483 6.78683C75.3913 6.78683 74.6517 6.0473 74.6517 5.09017C74.6517 4.13305 75.3913 3.39351 76.3483 3.39351ZM49.2022 10.1802C50.1593 10.1802 50.8988 10.9196 50.8988 11.8768C50.8988 12.8339 50.1593 13.5733 49.2022 13.5733C48.2451 13.5733 47.5056 12.8339 47.5056 11.8768C47.5056 10.9197 48.2451 10.1802 49.2022 10.1802ZM89.9214 16.9666C90.8785 16.9666 91.6247 17.7028 91.6247 18.6599C91.6247 19.617 90.8785 20.36 89.9214 20.3599C88.9643 20.36 88.2248 19.6204 88.2248 18.6632C88.2248 17.7062 88.9643 16.9666 89.9214 16.9666ZM62.7753 23.7532C63.7325 23.7532 64.4719 24.4928 64.4719 25.4499C64.4719 26.407 63.7323 27.1464 62.7753 27.1464C61.8182 27.1464 61.0786 26.407 61.0786 25.4499C61.0786 24.4928 61.8182 23.7532 62.7753 23.7532Z" fill="#8BD40A"/>
<path d="M47.5057 33.9333C45.8091 33.9333 45.8091 35.63 45.8091 35.63C45.8091 35.63 45.8091 36.3406 46.3099 36.8341L49.0475 39.5652C48.3232 41.5141 44.2485 44.4677 41.488 46.29C37.3465 48.982 33.1719 51.0743 33.1719 51.0743C32.2358 51.5353 32.2358 52.5964 32.2358 52.5964C32.2358 52.5964 32.2358 54.2928 33.9325 54.2928C41.693 54.2928 46.9764 53.4367 50.8312 52.0762C53.9794 50.9651 55.9589 49.6389 57.6318 48.1561L59.8738 50.398C60.3682 50.8994 61.0786 50.8995 61.0786 50.8995C61.0786 50.8995 62.7752 50.8995 62.7752 49.2029V35.6298C62.7788 34.6876 62.0208 33.9295 61.0786 33.9331L47.5057 33.9333ZM59.3821 37.3266L59.3855 45.1127C58.3859 44.1131 57.6855 44.1131 57.6855 44.1131C57.6855 44.1131 56.9789 44.1132 56.48 44.6121C54.8833 46.2088 53.0477 47.6859 49.6918 48.8704C46.9552 49.8363 42.5965 50.5895 41.0269 50.5895C43.9887 48.7588 47.1273 46.6745 49.4163 44.5244C51.635 42.4166 52.5974 40.72 52.5974 39.0262C52.5974 39.0262 52.5954 38.1619 51.5953 37.3227C54.1906 37.3238 56.7866 37.3253 59.3821 37.3266Z" fill="#8BD40A"/>
<path d="M25.4495 30.5398C20.7845 30.5398 16.9664 34.3579 16.9663 39.0229C16.9663 43.688 20.7844 47.5061 25.4495 47.5062C30.1145 47.5061 33.9326 43.688 33.9326 39.0229C33.9326 34.3579 30.1145 30.5398 25.4495 30.5398ZM25.4495 33.9331C28.2807 33.9331 30.5394 36.1917 30.5394 39.0229C30.5394 41.8541 28.2807 44.1129 25.4495 44.1129C22.6183 44.1129 20.3596 41.8541 20.3596 39.0229C20.3596 36.1917 22.6183 33.9331 25.4495 33.9331Z" fill="#666666"/>
<path d="M5.08984 86.5288C5.08984 88.2254 6.78645 88.2254 6.78645 88.2254H23.7528C24.8841 88.2254 25.4494 87.3772 25.4494 86.5288C25.4494 85.6801 24.8839 84.8321 23.7528 84.8321H6.78645C6.78645 84.8321 5.08984 84.8321 5.08984 86.5288Z" fill="#666666"/>
<path d="M13.5732 93.3151C13.5732 93.5379 13.6171 93.7585 13.7024 93.9644C13.7876 94.1702 13.9126 94.3573 14.0702 94.5149C14.2277 94.6724 14.4148 94.7973 14.6206 94.8826C14.8265 94.9678 15.0471 95.0117 15.2699 95.0117C15.4927 95.0117 15.7133 94.9678 15.9192 94.8826C16.125 94.7973 16.3121 94.6724 16.4696 94.5149C16.6272 94.3573 16.7521 94.1702 16.8374 93.9644C16.9227 93.7585 16.9665 93.5379 16.9665 93.3151C16.9665 92.8651 16.7878 92.4336 16.4696 92.1155C16.1514 91.7973 15.7199 91.6184 15.2699 91.6184C15.0471 91.6184 14.8265 91.6623 14.6206 91.7476C14.4148 91.8328 14.2277 91.9579 14.0702 92.1155C13.9126 92.273 13.7877 92.4599 13.7024 92.6658C13.6171 92.8716 13.5732 93.0923 13.5732 93.3151Z" fill="#666666"/>
<path d="M10.1798 93.3153C10.1798 95.0119 8.48312 95.0117 8.48312 95.0117H1.69661C0.565259 95.0117 0 94.1638 0 93.3153C0 92.4667 0.564939 91.6184 1.69661 91.6184H8.48312C8.48312 91.6184 10.1798 91.6186 10.1798 93.3153Z" fill="#666666"/>
<path d="M81.4382 93.3151C81.4382 93.5379 81.3943 93.7585 81.3091 93.9644C81.2238 94.1702 81.0988 94.3573 80.9413 94.5149C80.7837 94.6724 80.5967 94.7973 80.3908 94.8826C80.185 94.9678 79.9643 95.0117 79.7415 95.0117C79.5187 95.0117 79.2981 94.9678 79.0923 94.8826C78.8864 94.7973 78.6994 94.6724 78.5418 94.5149C78.3843 94.3573 78.2593 94.1702 78.1741 93.9644C78.0888 93.7585 78.0449 93.5379 78.0449 93.3151C78.0449 92.8651 78.2237 92.4336 78.5419 92.1155C78.86 91.7973 79.2916 91.6184 79.7415 91.6184C79.9643 91.6184 80.185 91.6623 80.3908 91.7476C80.5967 91.8328 80.7837 91.9579 80.9413 92.1155C81.0988 92.273 81.2238 92.4599 81.3091 92.6658C81.3943 92.8716 81.4382 93.0923 81.4382 93.3151Z" fill="#666666"/>
<path d="M84.8315 93.3153C84.8315 95.0119 86.5282 95.0117 86.5282 95.0117H93.3147C94.4461 95.0117 95.0113 94.1638 95.0113 93.3153C95.0113 92.4667 94.4464 91.6184 93.3147 91.6184H86.5282C86.5282 91.6184 84.8315 91.6186 84.8315 93.3153Z" fill="#666666"/>
<path d="M69.562 86.5288C69.562 88.2254 71.2586 88.2254 71.2586 88.2254H88.2249C89.3563 88.2254 89.9216 87.3772 89.9216 86.5288C89.9216 85.6801 89.356 84.8321 88.2249 84.8321H71.2586C71.2586 84.8321 69.562 84.8321 69.562 86.5288Z" fill="#666666"/>
<path d="M11.8763 23.7533C12.0991 23.7533 12.3197 23.7972 12.5256 23.8825C12.7314 23.9677 12.9185 24.0926 13.076 24.2502C13.2336 24.4077 13.3585 24.5948 13.4438 24.8006C13.5291 25.0065 13.573 25.2271 13.573 25.45C13.573 25.6728 13.5291 25.8934 13.4438 26.0993C13.3586 26.3051 13.2336 26.492 13.076 26.6496C12.9185 26.8071 12.7314 26.9322 12.5256 27.0175C12.3197 27.1027 12.0991 27.1466 11.8763 27.1466C11.6535 27.1466 11.4329 27.1027 11.227 27.0175C11.0212 26.9322 10.8341 26.8071 10.6766 26.6496C10.5191 26.492 10.3941 26.3051 10.3088 26.0993C10.2236 25.8934 10.1797 25.6728 10.1797 25.45C10.1797 25 10.3584 24.5683 10.6766 24.2502C10.9948 23.932 11.4263 23.7533 11.8763 23.7533Z" fill="#666666"/>
<path d="M11.8764 30.5398C12.0992 30.5398 12.3198 30.5837 12.5256 30.669C12.7315 30.7542 12.9185 30.8793 13.0761 31.0369C13.2336 31.1944 13.3586 31.3813 13.4439 31.5871C13.5291 31.793 13.573 32.0136 13.573 32.2365C13.573 32.4593 13.5292 32.6799 13.4439 32.8858C13.3586 33.0916 13.2337 33.2787 13.0761 33.4362C12.9186 33.5938 12.7315 33.7187 12.5257 33.804C12.3198 33.8892 12.0992 33.9331 11.8764 33.9331C11.6536 33.9331 11.4329 33.8892 11.2271 33.804C11.0212 33.7187 10.8342 33.5938 10.6766 33.4362C10.5191 33.2787 10.3941 33.0916 10.3088 32.8858C10.2236 32.6799 10.1797 32.4593 10.1797 32.2365C10.1797 32.0136 10.2236 31.793 10.3088 31.5871C10.3941 31.3813 10.5191 31.1944 10.6766 31.0369C10.8342 30.8793 11.0212 30.7542 11.2271 30.669C11.4329 30.5837 11.6536 30.5398 11.8764 30.5398Z" fill="#666666"/>
<path d="M18.6629 23.7533C18.8857 23.7533 19.1064 23.7972 19.3122 23.8825C19.5181 23.9677 19.7051 24.0926 19.8626 24.2502C20.0202 24.4077 20.1452 24.5948 20.2304 24.8006C20.3157 25.0065 20.3596 25.2271 20.3596 25.45C20.3596 25.6728 20.3157 25.8934 20.2305 26.0993C20.1452 26.3051 20.0202 26.492 19.8627 26.6496C19.7051 26.8071 19.5181 26.9322 19.3122 27.0175C19.1064 27.1027 18.8857 27.1466 18.6629 27.1466C18.4401 27.1466 18.2195 27.1027 18.0136 27.0175C17.8078 26.9322 17.6208 26.8071 17.4632 26.6496C17.3057 26.492 17.1807 26.3051 17.0954 26.0993C17.0102 25.8934 16.9663 25.6728 16.9663 25.45C16.9663 25 17.1451 24.5683 17.4632 24.2502C17.7814 23.932 18.213 23.7533 18.6629 23.7533Z" fill="#666666"/>
<path d="M81.4384 28.8432C81.2156 28.8432 80.9949 28.8869 80.7891 28.9722C80.5832 29.0574 80.3962 29.1825 80.2387 29.3401C80.0811 29.4976 79.9561 29.6845 79.8709 29.8904C79.7856 30.0962 79.7417 30.3169 79.7417 30.5397C79.7417 30.7625 79.7856 30.9831 79.8708 31.189C79.9561 31.3948 80.0811 31.5819 80.2386 31.7395C80.3962 31.897 80.5832 32.0219 80.7891 32.1072C80.9949 32.1924 81.2156 32.2363 81.4384 32.2363C81.6612 32.2363 81.8818 32.1924 82.0877 32.1072C82.2935 32.0219 82.4805 31.897 82.6381 31.7395C82.7956 31.5819 82.9206 31.3948 83.0059 31.189C83.0911 30.9831 83.135 30.7625 83.135 30.5397C83.135 30.0897 82.9562 29.6582 82.6381 29.3401C82.3199 29.0219 81.8883 28.8432 81.4384 28.8432Z" fill="#666666"/>
<path d="M81.4383 55.9894C79.7417 55.9894 79.7417 54.2928 79.7417 54.2928V37.3264C79.7417 36.195 80.5898 35.6297 81.4383 35.6297C82.2869 35.6297 83.135 36.1946 83.135 37.3264V54.2928C83.135 54.2928 83.135 55.9894 81.4383 55.9894Z" fill="#666666"/>
<path d="M72.955 42.4163C72.7322 42.4163 72.5115 42.3724 72.3057 42.2871C72.0999 42.2019 71.9128 42.0768 71.7553 41.9192C71.5977 41.7617 71.4727 41.5748 71.3875 41.3689C71.3022 41.1631 71.2583 40.9424 71.2583 40.7196C71.2583 40.4968 71.3022 40.2762 71.3874 40.0703C71.4727 39.8644 71.5977 39.6774 71.7552 39.5198C71.9128 39.3623 72.0998 39.2374 72.3057 39.1521C72.5115 39.0668 72.7322 39.0229 72.955 39.0229C73.1778 39.023 73.3984 39.0668 73.6043 39.1521C73.8101 39.2374 73.9971 39.3623 74.1547 39.5198C74.3122 39.6774 74.4372 39.8645 74.5225 40.0703C74.6077 40.2761 74.6516 40.4968 74.6516 40.7196C74.6516 41.1696 74.4728 41.601 74.1547 41.9192C73.8365 42.2374 73.4049 42.4163 72.955 42.4163Z" fill="#666666"/>
<path d="M72.9549 45.8095C71.2583 45.8095 71.2583 47.5062 71.2583 47.5062V54.2928C71.2583 55.4242 72.1064 55.9895 72.9549 55.9895C73.8035 55.9895 74.6516 55.4239 74.6516 54.2928V47.5062C74.6516 47.5062 74.6516 45.8095 72.9549 45.8095Z" fill="#666666"/>
<path d="M30.5396 5.09014C30.5395 5.31295 30.5834 5.5336 30.6687 5.73945C30.7539 5.9453 30.8789 6.13238 31.0365 6.28993C31.194 6.44749 31.381 6.57237 31.5869 6.65764C31.7927 6.74291 32.0134 6.7868 32.2362 6.7868C32.459 6.7868 32.6796 6.74291 32.8854 6.65764C33.0913 6.57237 33.2783 6.44749 33.4359 6.28993C33.5934 6.13238 33.7184 5.9453 33.8036 5.73945C33.8889 5.5336 33.9328 5.31295 33.9328 5.09014C33.9328 4.64017 33.754 4.20872 33.4358 3.89054C33.1177 3.57237 32.6861 3.39368 32.2362 3.39368C31.7862 3.39368 31.3547 3.57237 31.0365 3.89054C30.7183 4.20872 30.5396 4.64017 30.5396 5.09014Z" fill="#666666"/>
<path d="M27.1462 5.09034C27.1462 6.78695 25.4496 6.7868 25.4496 6.7868H8.48323C7.35188 6.7868 6.78662 5.93883 6.78662 5.09034C6.78662 4.24177 7.35156 3.39368 8.48323 3.39368H25.4496C25.4496 3.39368 27.1462 3.39366 27.1462 5.09034Z" fill="#666666"/>
<path d="M10.1799 11.8769C10.1799 12.0997 10.136 12.3202 10.0508 12.526C9.96551 12.7319 9.84054 12.9189 9.683 13.0765C9.52545 13.234 9.33842 13.3591 9.13257 13.4444C8.92673 13.5297 8.7061 13.5736 8.4833 13.5736C8.26048 13.5736 8.03985 13.5297 7.834 13.4444C7.62815 13.3591 7.44111 13.234 7.28355 13.0765C7.126 12.9189 7.00103 12.7321 6.91576 12.5262C6.8305 12.3204 6.78662 12.0997 6.78662 11.8769C6.78662 11.6541 6.83051 11.4334 6.91578 11.2276C7.00105 11.0217 7.12602 10.8346 7.28358 10.6771C7.44113 10.5196 7.62817 10.3947 7.83401 10.3094C8.03986 10.2241 8.26049 10.1802 8.4833 10.1802C8.93326 10.1802 9.3648 10.3589 9.68298 10.6771C10.0012 10.9953 10.1799 11.4269 10.1799 11.8769Z" fill="#666666"/>
<path d="M13.5732 11.8769C13.5732 13.5735 15.2699 13.5736 15.2699 13.5736H22.0564C23.1878 13.5736 23.7531 12.7254 23.7531 11.8769C23.7531 11.0283 23.1875 10.1802 22.0564 10.1802H15.2699C15.2699 10.1802 13.5732 10.1802 13.5732 11.8769Z" fill="#666666"/>
</svg>
