<svg width="96" height="100" viewBox="0 0 96 100" fill="none" xmlns="http://www.w3.org/2000/svg">
<path d="M19.6973 50.6436H17.3531C16.5437 50.6436 15.8881 51.2994 15.8881 52.1086C15.8881 52.9178 16.5439 53.5736 17.3531 53.5736H19.6973C20.5066 53.5736 21.1623 52.918 21.1623 52.1086C21.1623 51.2992 20.5064 50.6436 19.6973 50.6436Z" fill="#8BD40A"/>
<path d="M13.7588 79.7365C13.2473 79.1859 12.7451 78.6141 12.2664 78.0375C11.7494 77.4149 10.8256 77.3295 10.2031 77.8463C9.58047 78.3631 9.49493 79.2867 10.0119 79.9096C10.5252 80.5277 11.0635 81.1406 11.6113 81.7307C11.9002 82.0416 12.2922 82.1986 12.6854 82.1986C13.042 82.1986 13.4 82.0691 13.682 81.8072C14.2748 81.2566 14.3092 80.3297 13.7588 79.7365Z" fill="#8BD40A"/>
<path d="M3.0416 55.3569C2.9873 54.6697 2.9498 53.9723 2.93047 53.2908C3.01699 52.4965 2.45 51.7772 1.6543 51.6783C0.852148 51.5799 0.119726 52.1488 0.0201171 52.9522C0.00683588 53.0598 0 53.1692 0 53.2779C0 53.3051 0.00039054 53.333 0.00117179 53.3516C0.0218749 54.0949 0.0623047 54.8473 0.120703 55.5881C0.181445 56.3555 0.823047 56.9375 1.57969 56.9375C1.61816 56.9373 1.65723 56.936 1.69668 56.9328C2.50332 56.869 3.10547 56.1635 3.0416 55.3569Z" fill="#8BD40A"/>
<path d="M20.5988 85.6366C19.9793 85.2122 19.3637 84.7643 18.7684 84.3059C18.127 83.812 17.207 83.9315 16.7135 84.5723C16.2197 85.2135 16.3391 86.1332 16.9799 86.6272C17.6184 87.1188 18.2781 87.5989 18.9424 88.0536C19.1955 88.2272 19.4836 88.3102 19.7691 88.3102C20.2361 88.3102 20.6951 88.0874 20.9789 87.6729C21.4365 87.0057 21.2662 86.094 20.5988 85.6366Z" fill="#8BD40A"/>
<path d="M29.0738 50.6436H26.7297C25.9203 50.6436 25.2646 51.2994 25.2646 52.1086C25.2646 52.9178 25.9205 53.5736 26.7297 53.5736H29.0738C29.8832 53.5736 30.5389 52.918 30.5389 52.1086C30.5389 51.2992 29.883 50.6436 29.0738 50.6436Z" fill="#8BD40A"/>
<path d="M4.7498 64.2209C4.52695 63.5068 4.3209 62.7746 4.13691 62.0441C3.93945 61.2594 3.14355 60.7842 2.35859 60.9811C1.57383 61.1787 1.09805 61.9748 1.29551 62.7594C1.49258 63.5424 1.71387 64.3275 1.95293 65.0936C2.14863 65.7207 2.72715 66.1227 3.35098 66.1227C3.49551 66.1227 3.64258 66.1012 3.78769 66.0557C4.56035 65.8147 4.99121 64.9932 4.7498 64.2209Z" fill="#8BD40A"/>
<path d="M8.38476 72.4807C8.0082 71.8328 7.64492 71.1657 7.30488 70.4971C6.93827 69.776 6.05663 69.4883 5.33476 69.8555C4.61367 70.2221 4.32636 71.1043 4.69335 71.8256C5.05781 72.5426 5.44746 73.2582 5.85136 73.9532C6.12324 74.4211 6.61445 74.6823 7.11933 74.6823C7.36913 74.6823 7.62245 74.6184 7.85429 74.4836C8.5539 74.0772 8.7914 73.1803 8.38476 72.4807Z" fill="#8BD40A"/>
<path d="M10.3207 50.6436H7.97656C7.16718 50.6436 6.51152 51.2994 6.51152 52.1086C6.51152 52.9178 7.16738 53.5736 7.97656 53.5736H10.3207C11.1301 53.5736 11.7857 52.918 11.7857 52.1086C11.7857 51.2992 11.1301 50.6436 10.3207 50.6436Z" fill="#8BD40A"/>
<path d="M43.5293 79.9453C42.7199 79.9453 42.0643 80.6012 42.0643 81.4104V83.7545C42.0643 84.5639 42.7201 85.2196 43.5293 85.2196C44.3385 85.2196 44.9943 84.5637 44.9943 83.7545V81.4104C44.9943 80.601 44.3385 79.9453 43.5293 79.9453Z" fill="#8BD40A"/>
<path d="M43.5293 89.3217C42.7199 89.3217 42.0642 89.9773 42.0642 90.7867V92.985C41.9844 93.7828 42.5615 94.4979 43.3603 94.5865C43.4152 94.5926 43.4699 94.5957 43.524 94.5957C44.2607 94.5957 44.8951 94.0416 44.9781 93.2922C44.9889 93.1955 44.9943 93.0969 44.9943 92.9992V90.7867C44.9943 89.9775 44.3385 89.3217 43.5293 89.3217Z" fill="#8BD40A"/>
<path d="M43.5293 70.5688C42.7199 70.5688 42.0643 71.2244 42.0643 72.0338V74.378C42.0643 75.1873 42.7201 75.843 43.5293 75.843C44.3385 75.843 44.9943 75.1871 44.9943 74.378V72.0338C44.9943 71.2244 44.3385 70.5688 43.5293 70.5688Z" fill="#8BD40A"/>
<path d="M43.5293 51.8156C42.7199 51.8156 42.0643 52.4713 42.0643 53.2807V55.6248C42.0643 56.4342 42.7201 57.0899 43.5293 57.0899C44.3385 57.0899 44.9943 56.434 44.9943 55.6248V53.2807C44.9943 52.4715 44.3385 51.8156 43.5293 51.8156Z" fill="#8BD40A"/>
<path d="M28.5725 89.8817C27.873 89.6045 27.173 89.3039 26.4914 88.9885C25.7576 88.6494 24.8867 88.9684 24.5463 89.7028C24.2066 90.4371 24.5262 91.3078 25.2605 91.6479C25.9918 91.986 26.7426 92.3086 27.4928 92.6059C27.6699 92.676 27.8525 92.7092 28.0322 92.7092C28.615 92.7092 29.1668 92.3586 29.3947 91.7836C29.6928 91.0315 29.3246 90.1797 28.5725 89.8817Z" fill="#8BD40A"/>
<path d="M43.5293 61.1922C42.7199 61.1922 42.0643 61.8481 42.0643 62.6573V65.0014C42.0643 65.8108 42.7201 66.4665 43.5293 66.4665C44.3385 66.4665 44.9943 65.8106 44.9943 65.0014V62.6573C44.9943 61.8481 44.3385 61.1922 43.5293 61.1922Z" fill="#8BD40A"/>
<path d="M37.2865 92.2475C36.5441 92.133 35.7961 91.9961 35.0621 91.8405C34.2725 91.6733 33.493 92.1781 33.325 92.9697C33.1572 93.7613 33.6627 94.5389 34.4543 94.7069C35.2412 94.8736 36.0437 95.0205 36.8396 95.1432C36.9154 95.1549 36.9904 95.1606 37.0648 95.1606C37.7754 95.1606 38.3992 94.6428 38.5107 93.9188C38.6346 93.1192 38.0863 92.3707 37.2865 92.2475Z" fill="#8BD40A"/>
<path d="M38.4502 50.6436H36.1061C35.2967 50.6436 34.641 51.2994 34.641 52.1086C34.641 52.9178 35.2969 53.5736 36.1061 53.5736H38.4502C39.2596 53.5736 39.9152 52.918 39.9152 52.1086C39.9152 51.2992 39.2596 50.6436 38.4502 50.6436Z" fill="#8BD40A"/>
<path d="M29.8471 70.4731C27.7275 70.4731 26.0033 72.1971 26.0033 74.3166C26.0033 76.4361 27.7275 78.1604 29.8471 78.1604C31.9666 78.1604 33.6908 76.4361 33.6908 74.3166C33.6908 72.1971 31.9666 70.4731 29.8471 70.4731ZM29.8471 75.2303C29.3434 75.2303 28.9334 74.8205 28.9334 74.3166C28.9334 73.8131 29.3432 73.4031 29.8471 73.4031C30.351 73.4031 30.7607 73.8129 30.7607 74.3166C30.7607 74.8203 30.351 75.2303 29.8471 75.2303Z" fill="#8BD40A"/>
<path d="M20.1855 60.8116C18.066 60.8116 16.3418 62.5356 16.3418 64.6551C16.3418 66.7747 18.066 68.4989 20.1855 68.4989C22.3051 68.4989 24.0291 66.7747 24.0291 64.6551C24.0291 62.5356 22.3051 60.8116 20.1855 60.8116ZM20.1855 65.5688C19.6818 65.5688 19.2719 65.159 19.2719 64.6551C19.2719 64.1516 19.6816 63.7417 20.1855 63.7417C20.6891 63.7417 21.099 64.1514 21.099 64.6551C21.099 65.1588 20.6893 65.5688 20.1855 65.5688Z" fill="#8BD40A"/>
<path d="M30.9199 63.6227C30.3498 63.0485 29.4223 63.0455 28.848 63.6157L19.1195 73.2772C18.5457 73.8473 18.5424 74.7748 19.1125 75.3491C19.3988 75.6375 19.7756 75.7817 20.152 75.7817C20.5252 75.7817 20.8986 75.6399 21.1844 75.3561L30.9129 65.6946C31.4869 65.1242 31.4902 64.1969 30.9199 63.6227Z" fill="#8BD40A"/>
<path d="M78.9581 9.32382C71.1444 3.17694 61.3911 -0.137122 51.4772 0.00428433C40.1915 0.160534 29.5485 4.61522 21.5091 12.5473C13.4776 20.4719 8.88039 31.0383 8.56359 42.3C8.54328 43.0174 8.80773 43.6959 9.30851 44.2109C9.81027 44.7269 10.4823 45.0111 11.2017 45.0111H35.2913C36.1007 45.0111 36.7564 44.3553 36.7564 43.5461C36.7564 42.7369 36.1007 42.081 35.2913 42.081H11.5025C11.8704 31.6908 16.148 21.9541 23.5673 14.6334C31.0657 7.23495 40.9921 3.07987 51.5179 2.93417C60.7544 2.80858 69.8581 5.89315 77.1466 11.6267C77.7823 12.1269 78.7036 12.0168 79.2038 11.381C79.7044 10.7451 79.5942 9.82382 78.9581 9.32382Z" fill="#666666"/>
<path d="M95.6322 42.8363C95.4616 32.1344 91.3431 21.8959 84.0353 14.0066C83.4859 13.4131 82.5585 13.3775 81.9648 13.9275C81.3712 14.4771 81.3357 15.4043 81.8857 15.998C88.7019 23.3564 92.5433 32.9045 92.7023 42.883C92.8704 53.4473 89.0113 63.4953 81.8292 71.2113L53.1283 42.5098C52.8534 42.2351 52.4808 42.0808 52.0921 42.0808H41.9679C41.1585 42.0808 40.5029 42.7367 40.5029 43.5459C40.5029 44.3551 41.1587 45.0109 41.9679 45.0109H51.4855L79.9702 73.4961C80.4628 73.9885 81.1417 74.2693 81.8382 74.2693C81.8505 74.2693 81.8628 74.2691 81.8749 74.2689C82.5929 74.2588 83.2593 73.9662 83.7517 73.4449C91.5951 65.141 95.8142 54.2705 95.6322 42.8363Z" fill="#666666"/>
<path d="M82.0429 84.349L70.8935 73.1998C70.3212 72.6279 69.3937 72.6279 68.8214 73.1998C68.2493 73.7721 68.2493 74.6996 68.8214 75.2719L79.7573 86.2078C72.5995 92.8688 63.3177 96.7131 53.5571 97.06V60.0074L64.1005 70.5512C64.6728 71.1229 65.6003 71.1233 66.1726 70.5512C66.7446 69.9789 66.7446 69.0514 66.1726 68.4791L55.129 57.4356C54.372 56.6787 53.2444 56.4547 52.255 56.8641C51.2659 57.2738 50.6273 58.2301 50.6273 59.3006V97.3617C50.6273 98.0811 50.9112 98.7531 51.4273 99.2547C51.9234 99.7371 52.5716 100 53.2597 100C53.2849 100 53.3103 100 53.3357 99.9992C64.0304 99.6994 74.2081 95.4836 81.9939 88.1285C82.514 87.6371 82.8062 86.9717 82.8165 86.2545C82.8261 85.5449 82.544 84.8506 82.0429 84.349Z" fill="#666666"/>
<path d="M44.1286 26.7354H29.603C28.7937 26.7354 28.138 27.3912 28.138 28.2004C28.138 29.0096 28.7937 29.6654 29.603 29.6654H44.1286C44.938 29.6654 45.5937 29.0096 45.5937 28.2004C45.5937 27.3912 44.938 26.7354 44.1286 26.7354Z" fill="#666666"/>
<path d="M46.4689 31.1611H29.603C28.7937 31.1611 28.138 31.817 28.138 32.6262C28.138 33.4354 28.7937 34.0912 29.603 34.0912H46.4689C47.2782 34.0912 47.9339 33.4354 47.9339 32.6262C47.9339 31.817 47.2782 31.1611 46.4689 31.1611Z" fill="#666666"/>
<path d="M29.5935 19.0883C28.7841 19.0883 28.1284 19.7441 28.1284 20.5533C28.1284 21.3627 28.7843 22.0184 29.5935 22.0184H29.6126C30.422 22.0184 31.0681 21.3625 31.0681 20.5533C31.0681 19.7441 30.4028 19.0883 29.5935 19.0883Z" fill="#666666"/>
<path d="M33.4306 19.0883C32.6212 19.0883 31.9655 19.7441 31.9655 20.5533C31.9655 21.3627 32.6214 22.0184 33.4306 22.0184H33.4497C34.2591 22.0184 34.9052 21.3625 34.9052 20.5533C34.9052 19.7441 34.24 19.0883 33.4306 19.0883Z" fill="#666666"/>
</svg>
