<svg width="112" height="110" viewBox="0 0 112 110" fill="none" xmlns="http://www.w3.org/2000/svg">
<path d="M106.139 37.0195L76.8671 54.4676C74.706 55.7557 73.8405 58.4059 74.7121 60.6812C73.407 61.2287 71.9464 61.2544 70.6084 60.7374L66.8217 59.2497C65.311 58.6559 63.6802 58.5526 62.1062 58.9512L56.3044 60.4195C56.0795 60.4763 55.859 60.5429 55.6434 60.6184C52.0989 58.5948 49.9874 57.9899 46.2471 59.4362L42.8891 60.7343C41.3022 61.3477 39.5526 61.2021 38.0854 60.3331L36.9637 59.6719C37.2856 57.665 36.3847 55.5688 34.5376 54.4678L5.26583 37.0195C2.94483 35.6365 0 37.3058 0 40.0111V72.6866C0 74.943 1.20391 77.0621 3.14196 78.2173L15.9226 85.8356C18.3 87.2524 21.356 86.5178 22.8358 84.2074L23.3822 84.5299L21.725 86.8383C19.874 89.416 20.4626 93.0004 23.0408 94.8516C24.3152 95.7666 25.8683 96.1116 27.3901 95.8414C27.6232 97.3813 28.4526 98.7368 29.7187 99.6459C30.9897 100.558 32.5526 100.902 34.0703 100.632C34.2937 102.111 35.089 103.501 36.3967 104.44C38.1587 105.705 40.3435 105.808 42.1171 105.007C42.5072 106.089 43.2133 107.027 44.1672 107.712C46.6455 109.491 50.0821 109.011 51.9825 106.656L56.2753 109.199C57.1915 109.742 58.1985 110 59.1931 110C61.1569 110 63.0727 108.994 64.1441 107.185C64.5965 106.422 64.8513 105.595 64.9235 104.765L65.0906 104.864C66.4107 105.646 67.9565 105.867 69.4421 105.486C70.9285 105.106 72.1777 104.17 72.9594 102.85C73.4429 102.034 73.7119 101.132 73.7571 100.211C74.7136 100.478 75.728 100.491 76.7161 100.238C78.2024 99.8576 79.4516 98.9211 80.2334 97.6015C80.6884 96.8338 80.9536 95.9898 81.0206 95.1253C83.6254 96.2278 86.7166 95.2602 88.1969 92.7619C89.4967 90.5677 89.1636 87.8512 87.5615 86.0336L89.2439 85.0508C90.839 86.6612 93.4066 87.0724 95.4824 85.8354L98.5721 83.9935C99.3465 83.532 99.6 82.5303 99.1385 81.7563C98.6768 80.9817 97.6743 80.7286 96.9012 81.1899L93.8115 83.0318C93.083 83.4663 92.1961 83.3338 91.6245 82.811C91.6139 82.7191 77.8961 59.7943 77.8961 59.7943C77.3793 58.922 77.6674 57.7902 78.5382 57.271L107.81 39.8229C107.959 39.735 108.141 39.8398 108.141 40.0109V72.6864C108.141 73.7989 107.547 74.844 106.592 75.4134L103.507 77.2525C102.732 77.714 102.479 78.7157 102.94 79.4897C103.401 80.2641 104.404 80.5167 105.177 80.0561L108.263 78.217C110.201 77.0619 111.405 74.9428 111.405 72.6864V40.0111C111.405 37.3095 108.463 35.6341 106.139 37.0195ZM62.9067 62.1151C63.8151 61.8854 64.7562 61.945 65.6283 62.2875L69.4232 63.7784C71.6883 64.6542 74.1621 64.558 76.3201 63.5386L87.4473 82.3207L85.6441 83.3743C85.3165 83.5684 85.0023 83.7834 84.7033 84.0179L60.9055 69.925C60.401 69.6263 59.775 69.6213 59.266 69.9115C58.7566 70.2018 58.4422 70.7429 58.4422 71.3293V71.6572C58.4422 72.818 57.9901 73.9095 57.1689 74.73C56.3484 75.5501 55.2578 76.0014 54.0983 76.0014C53.9099 75.9944 53.7439 75.8432 53.7437 75.6467V67.9017C53.7437 66.2143 54.6882 64.7081 56.1336 63.9538C56.2054 63.9248 56.2755 63.8906 56.343 63.8515C56.5849 63.7409 56.8397 63.6509 57.1049 63.5836L62.9067 62.1151ZM18.9926 83.235C18.5145 83.356 18.0175 83.2849 17.5937 83.0318L4.81303 75.4136C3.85739 74.844 3.26381 73.7991 3.26381 72.6866V40.0111C3.26381 39.9763 3.26381 39.8838 3.37456 39.8209C3.4159 39.7974 3.45311 39.7892 3.48488 39.7892C3.53797 39.7892 3.57605 39.8118 3.59476 39.8229L32.8668 57.271C33.7376 57.7902 34.0259 58.922 33.5089 59.7946L20.1238 82.3882C19.8725 82.8125 19.4706 83.1134 18.9926 83.235ZM26.7911 92.6326C26.1379 92.7401 25.4821 92.5863 24.944 92.2003C24.4063 91.8143 24.051 91.242 23.9438 90.5888C23.8365 89.9354 23.9899 89.2796 24.3761 88.742L26.7043 85.4988C26.7611 85.4196 26.822 85.345 26.886 85.2747C26.9343 85.2314 26.9802 85.1846 27.0237 85.135C27.8695 84.3428 29.187 84.2303 30.1631 84.9309C31.2732 85.7279 31.528 87.2796 30.731 88.3897C30.7297 88.3914 30.7283 88.3934 30.727 88.3951L28.4026 91.6328C28.0168 92.1703 27.4443 92.5254 26.7911 92.6326ZM31.622 96.9944C31.0843 96.6084 30.729 96.0361 30.6217 95.3829C30.5145 94.7295 30.6679 94.0737 31.0541 93.5361L33.3823 90.2929C33.3823 90.2929 33.3823 90.2927 33.3825 90.2927L35.9517 86.7138C36.3377 86.176 36.91 85.8208 37.5634 85.7134C37.6994 85.6909 37.8352 85.6801 37.9703 85.6801C38.4845 85.6801 38.9845 85.84 39.4105 86.1459C40.5206 86.9427 40.7754 88.4943 39.9784 89.6047L35.0805 96.4269C34.2835 97.5368 32.7319 97.7908 31.622 96.9944ZM40.1468 102.221C39.4939 102.328 38.8378 102.174 38.2999 101.788C37.1898 100.992 36.935 99.4401 37.732 98.3299C37.7334 98.328 37.7347 98.3262 37.736 98.3243L42.6299 91.5075C43.4267 90.3971 44.9784 90.143 46.0887 90.9396C46.6264 91.3256 46.9817 91.8978 47.089 92.5513C47.1962 93.2045 47.0426 93.8605 46.6566 94.3981L41.7587 101.22C41.3725 101.758 40.8 102.114 40.1468 102.221ZM46.0704 105.06C45.5328 104.674 45.1775 104.102 45.0702 103.449C44.9629 102.795 45.1163 102.14 45.5025 101.602C45.5043 101.6 45.5058 101.597 45.5073 101.595L47.1329 99.3308C47.9306 98.2229 49.4805 97.969 50.5897 98.7653C51.6999 99.5624 51.9547 101.114 51.1576 102.224L50.2263 103.521C50.2166 103.534 50.207 103.548 50.1976 103.561L49.529 104.493C48.7324 105.603 47.181 105.858 46.0704 105.06ZM85.3889 91.0984C84.692 92.2745 83.1673 92.6646 81.9922 91.9677L78.2194 89.7329C78.2177 89.732 78.2161 89.7309 78.2144 89.73L66.53 82.8077C65.7543 82.3484 64.7534 82.6045 64.2943 83.3797C63.8349 84.1552 64.0908 85.1563 64.8663 85.6154L76.5559 92.5408C76.5559 92.5408 76.556 92.5408 76.5562 92.541L76.5577 92.5419C77.7327 93.2393 78.1219 94.7624 77.4256 95.938C77.088 96.5079 76.5488 96.9121 75.9071 97.0762C75.2654 97.2403 74.5981 97.1452 74.0282 96.8073L70.9531 94.9856C70.9505 94.9841 70.9483 94.9826 70.9457 94.9811C70.9442 94.9802 70.9424 94.9791 70.9409 94.9782L62.3329 89.8786C61.5572 89.4191 60.5565 89.6754 60.0972 90.4507C59.6379 91.2262 59.8938 92.2273 60.6692 92.6864L69.2774 97.7862C69.2792 97.7873 69.2809 97.7884 69.2824 97.7892C69.8521 98.1267 70.2566 98.6659 70.4206 99.3076C70.5849 99.9492 70.4892 100.617 70.1517 101.186C69.8142 101.756 69.275 102.161 68.6332 102.325C67.9917 102.489 67.3242 102.393 66.7545 102.056L62.1393 99.3217C62.1362 99.32 62.1334 99.318 62.1306 99.3163L58.7553 97.3169C57.9803 96.858 56.9792 97.1136 56.5196 97.8893C56.0605 98.6646 56.3164 99.6657 57.0921 100.125L60.4671 102.124L60.4717 102.127C61.6447 102.825 62.0329 104.347 61.337 105.522C60.6396 106.698 59.1157 107.088 57.9398 106.391L53.9001 103.998C55.6362 101.436 55.0233 97.9298 52.494 96.1138C51.721 95.559 50.8556 95.2243 49.9731 95.0973C50.3634 94.1323 50.4831 93.0761 50.3101 92.0227C50.0616 90.5092 49.2385 89.183 47.9926 88.2885C46.6851 87.3501 45.1133 87.0411 43.6411 87.302C43.4176 85.8237 42.6223 84.4331 41.3146 83.4944C40.0685 82.5999 38.5493 82.2444 37.0353 82.4926C35.7711 82.7002 34.638 83.3086 33.7776 84.2294C33.3768 83.4796 32.803 82.8079 32.0672 82.2794C30.1169 80.8794 27.5786 80.8803 25.6599 82.0842L24.5027 81.4012L35.6058 62.6598L36.4257 63.143C37.8045 63.9601 39.3426 64.3746 40.8923 64.3746C41.9613 64.3746 43.0357 64.1772 44.0669 63.7786L47.4247 62.4805C49.4319 61.705 50.5099 61.6682 52.5365 62.6541C51.2481 64.0443 50.4805 65.8992 50.4805 67.9017V75.6467C50.4805 77.6404 52.1013 79.2636 54.0938 79.2652H54.0988C56.1299 79.2652 58.0397 78.4744 59.4766 77.0386C60.3487 76.1672 60.9832 75.1212 61.3477 73.9797L84.0777 87.4401C84.1528 87.4847 84.2303 87.5224 84.3095 87.5537C84.3747 87.6077 84.4448 87.6573 84.5201 87.7019C85.6955 88.3986 86.0856 89.9224 85.3889 91.0984Z" fill="#666666"/>
<path d="M36.9956 42.5216H74.4087C77.7961 42.5216 80.5518 39.7658 80.5518 36.3784V14.1188C80.5518 10.7314 77.7961 7.97567 74.4087 7.97567H65.4023V5.38986C65.4023 2.41805 62.9849 0 60.0133 0H51.3906C48.4192 0 46.0016 2.41783 46.0016 5.38986V7.97567H36.9952C33.6078 7.97567 30.8521 10.7314 30.8521 14.1188V26.3809C30.8521 27.2824 31.5827 28.0129 32.484 28.0129C33.3852 28.0129 34.1159 27.2824 34.1159 26.3809V23.348C35.8526 24.9066 38.1469 25.8559 40.6585 25.8559H41.9357V27.651C41.9357 28.5525 42.6664 29.2829 43.5676 29.2829C44.4689 29.2829 45.1995 28.5525 45.1995 27.651V25.8559H66.2039V27.651C66.2039 28.5525 66.9343 29.2829 67.8358 29.2829C68.7373 29.2829 69.4677 28.5525 69.4677 27.651V25.8559H70.7447C73.2566 25.8559 75.5508 24.9066 77.2876 23.348V36.3782C77.2876 37.966 75.9958 39.2575 74.4083 39.2575H36.9956C35.4079 39.2575 34.1163 37.9657 34.1163 36.3782V34.01C34.1163 33.1085 33.3856 32.3781 32.4844 32.3781C31.5831 32.3781 30.8525 33.1085 30.8525 34.01V36.3782C30.8525 39.7658 33.6082 42.5216 36.9956 42.5216ZM49.2658 5.38986C49.2658 4.2175 50.2191 3.26381 51.391 3.26381H60.0138C61.1857 3.26381 62.1389 4.2175 62.1389 5.38986V7.97567H49.266V5.38986H49.2658ZM70.7454 22.5921H69.4684V20.797C69.4684 19.8955 68.7379 19.1651 67.8365 19.1651C66.935 19.1651 66.2046 19.8955 66.2046 20.797V22.5921H45.2002V20.797C45.2002 19.8955 44.4695 19.1651 43.5683 19.1651C42.667 19.1651 41.9364 19.8955 41.9364 20.797V22.5921H40.6591C37.0515 22.5921 34.1165 19.6571 34.1165 16.0495V14.1188C34.1165 12.5311 35.4081 11.2395 36.9958 11.2395H74.4089C75.9966 11.2395 77.2882 12.5313 77.2882 14.1188V16.0495C77.2882 19.6571 74.3532 22.5921 70.7454 22.5921Z" fill="#8BD40A"/>
</svg>
