<svg width="1291" height="522" viewBox="0 0 1291 522" fill="none" xmlns="http://www.w3.org/2000/svg">
<path fill-rule="evenodd" clip-rule="evenodd" d="M489.72 284.61L359.813 521.245H823.122C816.364 503.216 801.346 481.43 791.584 463.401L692.464 285.361C683.453 290.62 669.186 306.396 659.425 304.893C652.666 304.142 633.143 287.615 627.136 283.108C618.125 286.864 602.356 304.142 593.345 304.893C584.334 305.644 564.811 287.615 558.052 283.108C549.792 287.615 533.273 304.142 524.262 304.893C514.5 305.644 498.731 288.366 489.72 284.61Z" fill="white" fill-opacity="0.1"/>
<path fill-rule="evenodd" clip-rule="evenodd" d="M158.571 72.0169C50.4406 96.056 51.1915 244.798 153.315 271.842C178.845 278.603 239.669 275.598 269.705 275.598C368.073 275.598 364.319 179.441 313.257 152.398C296.737 144.134 283.221 147.139 274.21 132.866C265.199 117.841 260.694 108.075 249.43 97.5584C228.405 78.7779 196.867 63.0022 158.571 72.0169Z" fill="white" fill-opacity="0.1"/>
<path fill-rule="evenodd" clip-rule="evenodd" d="M822.371 303.391L882.443 413.07C892.956 431.099 902.718 449.128 912.479 467.158C920.739 482.933 933.505 507.724 943.266 521.246H1102.46C1106.96 498.709 1084.44 438.611 1075.43 420.582C1068.67 406.309 1058.91 391.284 1050.65 380.016C1040.13 365.743 1031.87 358.231 1019.86 345.46C1001.84 326.679 964.292 306.396 936.508 298.133C890.703 285.362 864.422 292.874 822.371 303.391Z" fill="white" fill-opacity="0.1"/>
<path fill-rule="evenodd" clip-rule="evenodd" d="M505.489 270.34C510.745 274.096 517.503 278.603 522.76 283.11C546.038 274.847 548.29 241.042 591.843 283.11C601.605 279.354 616.623 262.076 626.384 261.325C635.395 260.574 654.168 278.603 660.926 283.861C669.186 280.857 671.439 275.598 679.699 271.842C677.446 262.076 663.93 241.042 658.673 231.276C643.655 204.232 606.11 133.617 593.345 113.334C583.583 126.856 541.532 207.237 528.016 229.774C522.009 238.788 507.741 262.076 505.489 270.34Z" fill="white" fill-opacity="0.1"/>
<path fill-rule="evenodd" clip-rule="evenodd" d="M43.6825 354.476C2.38268 365.744 -9.6318 407.062 7.63901 437.862C27.1625 473.169 65.4587 467.911 112.015 467.911C161.575 467.159 163.076 410.818 130.787 398.047C118.022 392.788 116.52 396.545 109.762 385.276C96.2458 361.988 73.7187 346.213 43.6825 354.476Z" fill="white" fill-opacity="0.1"/>
<path fill-rule="evenodd" clip-rule="evenodd" d="M426.644 1.40182C365.07 14.1726 365.821 97.5581 422.139 113.334C435.655 117.09 470.948 115.587 487.467 115.587C509.995 115.587 523.511 108.826 530.269 92.2996C537.778 71.2654 525.764 52.4849 512.247 46.4751C502.486 41.9678 496.478 44.2214 490.471 34.4556C476.955 13.4214 459.684 -5.35917 426.644 1.40182Z" fill="white" fill-opacity="0.1"/>
<path fill-rule="evenodd" clip-rule="evenodd" d="M335.784 361.987L268.954 479.929C262.196 492.7 251.683 508.475 247.178 521.246H327.524L411.626 367.246C407.871 362.738 407.12 363.49 403.366 360.485C392.853 364.241 380.088 380.017 371.077 381.519C359.062 383.021 344.044 367.246 335.784 361.987Z" fill="white" fill-opacity="0.1"/>
<path fill-rule="evenodd" clip-rule="evenodd" d="M348.55 347.714C352.304 352.221 360.564 358.231 365.82 361.987C374.08 358.982 385.344 347.714 392.853 343.207C405.618 335.694 414.629 348.465 423.64 352.972L446.918 313.158C455.178 299.636 461.936 286.114 469.445 272.592C475.453 261.323 474.702 262.826 468.694 251.558C458.182 234.28 444.666 205.733 434.904 191.46L348.55 347.714Z" fill="white" fill-opacity="0.1"/>
<path fill-rule="evenodd" clip-rule="evenodd" d="M778.818 378.517C781.071 387.531 793.085 406.312 797.591 415.327L836.638 485.941C842.645 496.458 850.154 512.234 856.912 522H907.974C907.974 515.239 822.371 364.995 820.118 361.99C814.862 364.244 805.851 371.756 801.345 375.512C792.335 383.024 791.584 383.024 778.818 378.517Z" fill="white" fill-opacity="0.1"/>
<path fill-rule="evenodd" clip-rule="evenodd" d="M1236.87 150.894C1231.61 152.396 1077.68 304.143 1076.18 311.655C1072.42 325.177 1083.69 335.694 1096.45 331.938C1106.21 328.933 1218.85 213.245 1236.12 195.967C1241.38 190.709 1254.89 178.689 1257.14 171.177C1260.9 158.406 1248.88 146.387 1236.87 150.894Z" fill="white" fill-opacity="0.1"/>
<path fill-rule="evenodd" clip-rule="evenodd" d="M753.288 343.209C772.812 345.463 770.559 351.473 784.075 358.234C787.83 353.726 787.83 351.473 792.335 346.965C795.339 343.961 799.844 341.707 803.599 338.702L724.753 195.219C719.497 200.477 708.234 223.014 702.977 231.277C695.468 244.799 696.219 241.043 711.988 268.838L753.288 343.209Z" fill="white" fill-opacity="0.1"/>
<path fill-rule="evenodd" clip-rule="evenodd" d="M849.403 26.1937C831.382 29.9499 835.887 48.7304 835.887 67.5109V174.936C835.887 191.462 835.136 213.999 856.912 207.989C872.681 204.233 868.176 181.697 868.176 165.921V58.4963C868.927 42.7206 868.927 21.6864 849.403 26.1937Z" fill="white" fill-opacity="0.1"/>
<path fill-rule="evenodd" clip-rule="evenodd" d="M1010.85 120.847C1001.09 124.603 997.332 139.628 992.826 150.896L962.039 218.506C956.783 232.779 965.043 248.555 982.314 242.545C992.075 238.789 1008.6 194.467 1016.1 178.691C1021.36 168.174 1027.37 155.403 1031.12 144.886C1037.88 129.111 1025.87 114.838 1010.85 120.847Z" fill="white" fill-opacity="0.1"/>
<path fill-rule="evenodd" clip-rule="evenodd" d="M1266.16 410.82C1241.38 418.332 1216.6 425.093 1191.82 432.605C1180.55 436.361 1164.78 437.864 1162.53 450.634C1159.53 464.908 1171.54 472.42 1185.81 468.664C1210.59 461.903 1234.62 453.639 1258.65 446.127C1270.66 442.371 1286.43 440.117 1290.18 429.6C1294.69 413.073 1279.67 407.064 1266.16 410.82Z" fill="white" fill-opacity="0.1"/>
</svg>
