<svg width="20" height="16" viewBox="0 0 20 16" fill="none" xmlns="http://www.w3.org/2000/svg">
<path d="M10 6.87L19.46 1.32C19.1877 0.917056 18.8214 0.586363 18.3929 0.356411C17.9644 0.126459 17.4863 0.00414254 17 2.86356e-07H3C2.51118 -0.000213269 2.02971 0.119024 1.59748 0.347337C1.16526 0.575649 0.795369 0.906122 0.52 1.31L10 6.87Z" fill="#60C3D4"/>
<path d="M11 8.59C10.6962 8.76625 10.3513 8.85938 10 8.86C9.64965 8.86242 9.3048 8.77276 9 8.6L0 3.33V13C0 13.7956 0.316071 14.5587 0.87868 15.1213C1.44129 15.6839 2.20435 16 3 16H17C17.7956 16 18.5587 15.6839 19.1213 15.1213C19.6839 14.5587 20 13.7956 20 13V3.33L11 8.59Z" fill="#60C3D4"/>
</svg>
