<svg width="20" height="20" viewBox="0 0 20 20" fill="none" xmlns="http://www.w3.org/2000/svg">
<path d="M19.0907 0H0.90908C0.407025 0 0 0.407025 0 0.90908V19.0909C0 19.593 0.407025 20 0.90908 20H11.212C11.714 20 12.1211 19.593 12.1211 19.0909C12.1211 18.5889 11.714 18.1818 11.212 18.1818H1.81816V10.3031H6.06053V13.6362C6.06053 14.1383 6.46756 14.5453 6.96961 14.5453C7.47167 14.5453 7.87869 14.1383 7.87869 13.6362V5.15145C7.87869 4.6494 7.47167 4.24237 6.96961 4.24237C6.46756 4.24237 6.06053 4.6494 6.06053 5.15145V8.48499H1.81816V1.81816H10.909V6.3638C10.909 6.86586 11.316 7.27288 11.818 7.27288H16.0604C16.5625 7.27288 16.9695 6.86586 16.9695 6.3638C16.9695 5.86175 16.5625 5.45472 16.0604 5.45472H12.7271V1.81816H18.1816V12.7274H11.818C11.316 12.7274 10.909 13.1344 10.909 13.6364C10.909 14.1385 11.316 14.5455 11.818 14.5455H18.1816V18.1818H16.6665C16.1644 18.1818 15.7574 18.5889 15.7574 19.0909C15.7574 19.593 16.1644 20 16.6665 20H19.0907C19.5927 20 19.9998 19.593 19.9998 19.0909V0.90908C19.9998 0.407025 19.5927 0 19.0907 0Z" fill="#666666"/>
</svg>
