<svg width="21" height="26" viewBox="0 0 21 26" fill="none" xmlns="http://www.w3.org/2000/svg">
<path d="M17.3591 2.70583C16.3386 1.77588 15.1427 1.05902 13.8415 0.597275C12.5404 0.135532 11.1601 -0.0618022 9.78173 0.0168416C8.40331 0.0954853 7.05447 0.448524 5.81428 1.05526C4.57408 1.662 3.4675 2.51022 2.5594 3.5502C1.6513 4.59018 0.959962 5.80099 0.525914 7.11165C0.0918655 8.4223 -0.0761565 9.80642 0.0316988 11.1829C0.139554 12.5593 0.521116 13.9003 1.15401 15.1274C1.78691 16.3544 2.65841 17.4428 3.71742 18.3286C6.13852 20.3415 8.16143 22.7898 9.68164 25.5471C9.75596 25.6844 9.86608 25.799 10.0003 25.8787C10.1346 25.9585 10.2879 26.0004 10.444 26C10.6 25.9999 10.7531 25.9576 10.887 25.8776C11.021 25.7975 11.1307 25.6827 11.2047 25.5453L11.2756 25.4122C12.8067 22.6883 14.8254 20.2691 17.2311 18.275C18.346 17.3116 19.2425 16.1215 19.861 14.7841C20.4795 13.4467 20.8057 11.9928 20.8178 10.5194C20.8299 9.04595 20.5277 7.58689 19.9312 6.23952C19.3348 4.89215 18.4579 3.68747 17.3591 2.70583ZM10.444 14.7631C9.58923 14.7631 8.75363 14.5096 8.0429 14.0347C7.33217 13.5598 6.77822 12.8848 6.4511 12.0951C6.12399 11.3054 6.0384 10.4364 6.20516 9.598C6.37193 8.75963 6.78355 7.98954 7.38798 7.38512C7.9924 6.78069 8.76249 6.36907 9.60086 6.20231C10.4392 6.03554 11.3082 6.12113 12.0979 6.44825C12.8877 6.77536 13.5627 7.32931 14.0375 8.04004C14.5124 8.75077 14.7659 9.58637 14.7659 10.4412C14.7645 11.587 14.3088 12.6855 13.4985 13.4957C12.6883 14.3059 11.5898 14.7617 10.444 14.7631Z" fill="#8BD40A"/>
</svg>
