<svg width="367" height="398" viewBox="0 0 367 398" fill="none" xmlns="http://www.w3.org/2000/svg">
<rect x="9.84668" y="256.7" width="72" height="46" fill="#8BD40A"/>
<rect x="9.84668" y="256.7" width="72" height="46" fill="url(#paint0_linear_88_673)"/>
<rect x="103.847" y="198.7" width="71" height="104" fill="#8BD40A"/>
<rect x="103.847" y="198.7" width="71" height="104" fill="url(#paint1_linear_88_673)"/>
<rect x="197.847" y="232.7" width="71" height="70" fill="#8BD40A"/>
<rect x="197.847" y="232.7" width="71" height="70" fill="url(#paint2_linear_88_673)"/>
<path d="M26.1201 331.809H25.0186C25.0498 330.674 25.4274 329.741 26.1514 329.012C26.8805 328.283 27.779 327.918 28.8467 327.918C29.904 327.918 30.7581 328.26 31.4092 328.942C32.0654 329.624 32.3936 330.429 32.3936 331.356C32.3936 332.007 32.2373 332.619 31.9248 333.192C31.6123 333.76 31.0055 334.53 30.1045 335.504L27.2451 338.59H32.5498V339.7H24.7451L29.1357 334.958C30.0264 334.004 30.6045 333.299 30.8701 332.84C31.141 332.377 31.2764 331.89 31.2764 331.379C31.2764 330.734 31.0342 330.179 30.5498 329.715C30.0706 329.247 29.4821 329.012 28.7842 329.012C28.0498 329.012 27.4378 329.257 26.9482 329.747C26.4639 330.236 26.1878 330.924 26.1201 331.809ZM33.6514 333.958C33.6514 332.442 33.8128 331.27 34.1357 330.442C34.4639 329.614 34.9248 328.986 35.5186 328.559C36.1123 328.132 36.7764 327.918 37.5107 327.918C38.2555 327.918 38.93 328.135 39.5342 328.567C40.1383 328.994 40.6149 329.637 40.9639 330.497C41.318 331.356 41.4951 332.51 41.4951 333.958C41.4951 335.4 41.3206 336.549 40.9717 337.403C40.6279 338.257 40.1514 338.903 39.542 339.34C38.9326 339.773 38.2555 339.989 37.5107 339.989C36.7764 339.989 36.1149 339.778 35.5264 339.356C34.9378 338.934 34.4769 338.306 34.1436 337.473C33.8154 336.635 33.6514 335.463 33.6514 333.958ZM34.7373 333.981C34.7373 335.278 34.8519 336.26 35.0811 336.926C35.3154 337.588 35.6592 338.09 36.1123 338.434C36.5654 338.778 37.0446 338.95 37.5498 338.95C38.0602 338.95 38.5368 338.783 38.9795 338.45C39.4222 338.111 39.7581 337.606 39.9873 336.934C40.2738 336.116 40.417 335.132 40.417 333.981C40.417 332.825 40.2894 331.879 40.0342 331.145C39.779 330.405 39.4248 329.866 38.9717 329.528C38.5238 329.184 38.0498 329.012 37.5498 329.012C37.0394 329.012 36.5602 329.184 36.1123 329.528C35.6644 329.866 35.3232 330.369 35.0889 331.036C34.8545 331.697 34.7373 332.679 34.7373 333.981ZM44.9795 328.208H47.2373V339.7H46.0967V329.333H44.292L44.9795 328.208ZM57.042 333.395C57.818 333.78 58.3727 334.221 58.7061 334.715C59.0446 335.21 59.2139 335.773 59.2139 336.403C59.2139 337.288 58.9248 338.069 58.3467 338.747C57.6383 339.575 56.6253 339.989 55.3076 339.989C54.0368 339.989 53.0732 339.627 52.417 338.903C51.7607 338.174 51.4326 337.372 51.4326 336.497C51.4326 335.856 51.6045 335.28 51.9482 334.77C52.292 334.254 52.8649 333.796 53.667 333.395C53.1045 333.103 52.6826 332.741 52.4014 332.309C52.1201 331.877 51.9795 331.413 51.9795 330.918C51.9795 330.418 52.1279 329.931 52.4248 329.458C52.7269 328.978 53.141 328.603 53.667 328.333C54.1982 328.056 54.7712 327.918 55.3857 327.918C55.9847 327.918 56.5394 328.056 57.0498 328.333C57.5602 328.609 57.9587 328.984 58.2451 329.458C58.5368 329.931 58.6826 330.429 58.6826 330.95C58.6826 331.471 58.5446 331.934 58.2686 332.34C57.9977 332.747 57.5889 333.098 57.042 333.395ZM55.3311 329.036C54.7008 329.036 54.1774 329.223 53.7607 329.598C53.3493 329.968 53.1436 330.411 53.1436 330.926C53.1436 331.437 53.3649 331.9 53.8076 332.317C54.2555 332.728 54.7764 332.934 55.3701 332.934C55.7503 332.934 56.1097 332.84 56.4482 332.653C56.7868 332.465 57.0498 332.21 57.2373 331.887C57.43 331.559 57.5264 331.231 57.5264 330.903C57.5264 330.439 57.3389 330.012 56.9639 329.622C56.5889 329.231 56.0446 329.036 55.3311 329.036ZM55.3857 333.973C54.5941 333.973 53.93 334.231 53.3936 334.747C52.8571 335.257 52.5889 335.853 52.5889 336.536C52.5889 336.958 52.7035 337.356 52.9326 337.731C53.1618 338.106 53.4821 338.395 53.8936 338.598C54.305 338.801 54.7816 338.903 55.3232 338.903C56.1618 338.903 56.8285 338.655 57.3232 338.161C57.818 337.666 58.0654 337.088 58.0654 336.426C58.0654 335.786 57.8024 335.218 57.2764 334.723C56.7555 334.223 56.1253 333.973 55.3857 333.973ZM66.5107 332.161V339.7H65.4248V331.2H69.7217V332.161H66.5107ZM72.4092 337.981C72.6748 337.981 72.9014 338.075 73.0889 338.262C73.2764 338.45 73.3701 338.679 73.3701 338.95C73.3701 339.215 73.2764 339.444 73.0889 339.637C72.9014 339.825 72.6748 339.918 72.4092 339.918C72.1436 339.918 71.917 339.825 71.7295 339.637C71.542 339.444 71.4482 339.215 71.4482 338.95C71.4482 338.679 71.542 338.45 71.7295 338.262C71.917 338.075 72.1436 337.981 72.4092 337.981Z" fill="#333333"/>
<path d="M121.12 331.809H120.019C120.05 330.674 120.427 329.741 121.151 329.012C121.881 328.283 122.779 327.918 123.847 327.918C124.904 327.918 125.758 328.26 126.409 328.942C127.065 329.624 127.394 330.429 127.394 331.356C127.394 332.007 127.237 332.619 126.925 333.192C126.612 333.76 126.006 334.53 125.104 335.504L122.245 338.59H127.55V339.7H119.745L124.136 334.958C125.026 334.004 125.604 333.299 125.87 332.84C126.141 332.377 126.276 331.89 126.276 331.379C126.276 330.734 126.034 330.179 125.55 329.715C125.071 329.247 124.482 329.012 123.784 329.012C123.05 329.012 122.438 329.257 121.948 329.747C121.464 330.236 121.188 330.924 121.12 331.809ZM128.651 333.958C128.651 332.442 128.813 331.27 129.136 330.442C129.464 329.614 129.925 328.986 130.519 328.559C131.112 328.132 131.776 327.918 132.511 327.918C133.256 327.918 133.93 328.135 134.534 328.567C135.138 328.994 135.615 329.637 135.964 330.497C136.318 331.356 136.495 332.51 136.495 333.958C136.495 335.4 136.321 336.549 135.972 337.403C135.628 338.257 135.151 338.903 134.542 339.34C133.933 339.773 133.256 339.989 132.511 339.989C131.776 339.989 131.115 339.778 130.526 339.356C129.938 338.934 129.477 338.306 129.144 337.473C128.815 336.635 128.651 335.463 128.651 333.958ZM129.737 333.981C129.737 335.278 129.852 336.26 130.081 336.926C130.315 337.588 130.659 338.09 131.112 338.434C131.565 338.778 132.045 338.95 132.55 338.95C133.06 338.95 133.537 338.783 133.979 338.45C134.422 338.111 134.758 337.606 134.987 336.934C135.274 336.116 135.417 335.132 135.417 333.981C135.417 332.825 135.289 331.879 135.034 331.145C134.779 330.405 134.425 329.866 133.972 329.528C133.524 329.184 133.05 329.012 132.55 329.012C132.039 329.012 131.56 329.184 131.112 329.528C130.664 329.866 130.323 330.369 130.089 331.036C129.854 331.697 129.737 332.679 129.737 333.981ZM139.979 328.208H142.237V339.7H141.097V329.333H139.292L139.979 328.208ZM148.964 339.989L148.019 339.379L151.12 334.676C150.703 334.812 150.313 334.879 149.948 334.879C149.037 334.879 148.263 334.551 147.628 333.895C146.993 333.234 146.675 332.421 146.675 331.458C146.675 330.796 146.828 330.2 147.136 329.668C147.443 329.137 147.878 328.713 148.44 328.395C149.008 328.077 149.615 327.918 150.261 327.918C150.896 327.918 151.482 328.072 152.019 328.379C152.56 328.687 152.985 329.116 153.292 329.668C153.599 330.221 153.753 330.809 153.753 331.434C153.753 331.908 153.657 332.405 153.464 332.926C153.276 333.442 152.938 334.064 152.448 334.793L148.964 339.989ZM150.214 333.872C150.886 333.872 151.456 333.637 151.925 333.168C152.399 332.694 152.636 332.124 152.636 331.458C152.636 330.791 152.399 330.223 151.925 329.754C151.456 329.28 150.886 329.043 150.214 329.043C149.547 329.043 148.977 329.28 148.503 329.754C148.034 330.223 147.8 330.791 147.8 331.458C147.8 332.124 148.034 332.694 148.503 333.168C148.977 333.637 149.547 333.872 150.214 333.872ZM161.511 332.161V339.7H160.425V331.2H164.722V332.161H161.511ZM167.409 337.981C167.675 337.981 167.901 338.075 168.089 338.262C168.276 338.45 168.37 338.679 168.37 338.95C168.37 339.215 168.276 339.444 168.089 339.637C167.901 339.825 167.675 339.918 167.409 339.918C167.144 339.918 166.917 339.825 166.729 339.637C166.542 339.444 166.448 339.215 166.448 338.95C166.448 338.679 166.542 338.45 166.729 338.262C166.917 338.075 167.144 337.981 167.409 337.981Z" fill="#333333"/>
<path d="M9.36914 365.391H10.2578L10.0596 367.421L11.7412 366.218L12.1924 366.984L10.2988 367.838L12.1924 368.679L11.7412 369.452L10.0596 368.262L10.2578 370.292H9.36914L9.58105 368.262L7.89941 369.452L7.44824 368.679L9.36914 367.838L7.44824 366.984L7.89941 366.218L9.58105 367.421L9.36914 365.391ZM24.8594 365.234V366.15C24.4036 366.227 23.6221 366.282 22.5146 366.314C21.7126 366.341 21.0928 366.396 20.6553 366.478C20.2223 366.556 19.8441 366.708 19.5205 366.936C19.1969 367.159 18.9235 367.501 18.7002 367.961C18.4814 368.417 18.3447 368.928 18.29 369.493L18.1943 370.539C18.4541 369.686 18.8802 369.062 19.4727 368.666C20.0697 368.269 20.7305 368.071 21.4551 368.071C22.5579 368.071 23.4785 368.458 24.2168 369.233C24.9596 370.008 25.3311 370.931 25.3311 372.001C25.3311 373.063 24.9619 373.977 24.2236 374.743C23.4854 375.508 22.5625 375.891 21.4551 375.891C20.3203 375.891 19.3587 375.467 18.5703 374.62C17.7819 373.772 17.3877 372.437 17.3877 370.614C17.3877 369.342 17.5312 368.381 17.8184 367.729C18.11 367.073 18.4427 366.601 18.8164 366.314C19.1901 366.027 19.6732 365.801 20.2656 365.637C20.8581 365.473 21.9678 365.371 23.5947 365.33C24.096 365.316 24.5176 365.284 24.8594 365.234ZM24.3604 372.022C24.3604 371.197 24.0732 370.488 23.499 369.896C22.9248 369.304 22.2435 369.007 21.4551 369.007C20.6712 369.007 19.9922 369.304 19.418 369.896C18.8438 370.488 18.5566 371.197 18.5566 372.022C18.5566 372.842 18.8324 373.542 19.3838 374.121C19.9398 374.695 20.6302 374.982 21.4551 374.982C22.2845 374.982 22.9749 374.695 23.5264 374.121C24.0824 373.542 24.3604 372.842 24.3604 372.022ZM30.6289 368.071C31.7728 368.071 32.7207 368.486 33.4727 369.315C34.1562 370.071 34.498 370.967 34.498 372.001C34.498 373.041 34.1357 373.95 33.4111 374.729C32.6911 375.504 31.7637 375.891 30.6289 375.891C29.4896 375.891 28.5576 375.504 27.833 374.729C27.113 373.95 26.7529 373.041 26.7529 372.001C26.7529 370.972 27.0947 370.078 27.7783 369.322C28.5303 368.488 29.4805 368.071 30.6289 368.071ZM30.6289 369.007C29.8359 369.007 29.1546 369.301 28.585 369.889C28.0153 370.477 27.7305 371.188 27.7305 372.022C27.7305 372.56 27.8604 373.061 28.1201 373.526C28.3799 373.991 28.7308 374.351 29.1729 374.606C29.6149 374.857 30.1003 374.982 30.6289 374.982C31.1576 374.982 31.6429 374.857 32.085 374.606C32.527 374.351 32.8779 373.991 33.1377 373.526C33.3975 373.061 33.5273 372.56 33.5273 372.022C33.5273 371.188 33.2402 370.477 32.666 369.889C32.0964 369.301 31.4173 369.007 30.6289 369.007ZM42.5781 375.7H41.5596L39.0713 370.286L36.6035 375.7H35.5781L38.9824 368.262H39.1533L42.5781 375.7ZM50.3096 373.232L51.1162 373.656C50.8519 374.175 50.5465 374.595 50.2002 374.914C49.8538 375.233 49.4642 375.476 49.0312 375.645C48.5983 375.809 48.1084 375.891 47.5615 375.891C46.3493 375.891 45.4014 375.495 44.7178 374.702C44.0342 373.904 43.6924 373.004 43.6924 372.001C43.6924 371.058 43.9818 370.217 44.5605 369.479C45.2943 368.54 46.2764 368.071 47.5068 368.071C48.7738 368.071 49.7855 368.552 50.542 369.513C51.0798 370.192 51.3532 371.04 51.3623 372.056H44.6768C44.695 372.922 44.9707 373.633 45.5039 374.189C46.0371 374.74 46.6956 375.016 47.4795 375.016C47.8577 375.016 48.2246 374.95 48.5801 374.818C48.9401 374.686 49.2454 374.51 49.4961 374.292C49.7467 374.073 50.0179 373.72 50.3096 373.232ZM50.3096 371.229C50.182 370.719 49.9951 370.311 49.749 370.005C49.5075 369.7 49.1862 369.454 48.7852 369.267C48.3841 369.08 47.9626 368.987 47.5205 368.987C46.7913 368.987 46.1647 369.222 45.6406 369.691C45.2578 370.033 44.9684 370.545 44.7725 371.229H50.3096ZM59.415 373.232L60.2217 373.656C59.9574 374.175 59.652 374.595 59.3057 374.914C58.9593 375.233 58.5697 375.476 58.1367 375.645C57.7038 375.809 57.2139 375.891 56.667 375.891C55.4548 375.891 54.5068 375.495 53.8232 374.702C53.1396 373.904 52.7979 373.004 52.7979 372.001C52.7979 371.058 53.0872 370.217 53.666 369.479C54.3997 368.54 55.3818 368.071 56.6123 368.071C57.8792 368.071 58.891 368.552 59.6475 369.513C60.1852 370.192 60.4587 371.04 60.4678 372.056H53.7822C53.8005 372.922 54.0762 373.633 54.6094 374.189C55.1426 374.74 55.8011 375.016 56.585 375.016C56.9632 375.016 57.3301 374.95 57.6855 374.818C58.0456 374.686 58.3509 374.51 58.6016 374.292C58.8522 374.073 59.1234 373.72 59.415 373.232ZM59.415 371.229C59.2874 370.719 59.1006 370.311 58.8545 370.005C58.613 369.7 58.2917 369.454 57.8906 369.267C57.4896 369.08 57.068 368.987 56.626 368.987C55.8968 368.987 55.2702 369.222 54.7461 369.691C54.3633 370.033 54.0739 370.545 53.8779 371.229H59.415ZM70.209 365.391L71.0361 365.931L68.3223 370.046C68.6868 369.923 69.0286 369.862 69.3477 369.862C70.1452 369.862 70.8219 370.151 71.3779 370.73C71.9339 371.304 72.2119 372.013 72.2119 372.856C72.2119 373.435 72.0775 373.959 71.8086 374.428C71.5397 374.893 71.1569 375.264 70.6602 375.542C70.168 375.816 69.637 375.953 69.0674 375.953C68.516 375.953 68.0033 375.82 67.5293 375.556C67.0599 375.287 66.6908 374.911 66.4219 374.428C66.153 373.945 66.0186 373.428 66.0186 372.876C66.0186 372.466 66.1006 372.036 66.2646 371.584C66.4333 371.129 66.7318 370.582 67.1602 369.944L70.209 365.391ZM69.1084 370.744C68.5251 370.744 68.026 370.951 67.6113 371.366C67.2012 371.776 66.9961 372.275 66.9961 372.863C66.9961 373.446 67.2012 373.945 67.6113 374.36C68.026 374.77 68.5251 374.975 69.1084 374.975C69.6917 374.975 70.1885 374.77 70.5986 374.36C71.0133 373.945 71.2207 373.446 71.2207 372.863C71.2207 372.275 71.0133 371.776 70.5986 371.366C70.1885 370.951 69.6917 370.744 69.1084 370.744ZM85.8633 368.262H86.1367L88.6592 375.7H87.6611L85.8223 370.224L82.9648 375.7H82.7871L79.9229 370.224L78.0908 375.7H77.0928L79.6289 368.262H79.8887L82.8828 374.08L85.8633 368.262ZM96.3564 373.232L97.1631 373.656C96.8988 374.175 96.5934 374.595 96.2471 374.914C95.9007 375.233 95.5111 375.476 95.0781 375.645C94.6452 375.809 94.1553 375.891 93.6084 375.891C92.3962 375.891 91.4482 375.495 90.7646 374.702C90.0811 373.904 89.7393 373.004 89.7393 372.001C89.7393 371.058 90.0286 370.217 90.6074 369.479C91.3411 368.54 92.3232 368.071 93.5537 368.071C94.8206 368.071 95.8324 368.552 96.5889 369.513C97.1266 370.192 97.4001 371.04 97.4092 372.056H90.7236C90.7419 372.922 91.0176 373.633 91.5508 374.189C92.084 374.74 92.7425 375.016 93.5264 375.016C93.9046 375.016 94.2715 374.95 94.627 374.818C94.987 374.686 95.2923 374.51 95.543 374.292C95.7936 374.073 96.0648 373.72 96.3564 373.232ZM96.3564 371.229C96.2288 370.719 96.042 370.311 95.7959 370.005C95.5544 369.7 95.2331 369.454 94.832 369.267C94.431 369.08 94.0094 368.987 93.5674 368.987C92.8382 368.987 92.2116 369.222 91.6875 369.691C91.3047 370.033 91.0153 370.545 90.8193 371.229H96.3564ZM106.419 369.807L105.66 370.279C105.004 369.408 104.108 368.973 102.974 368.973C102.067 368.973 101.312 369.265 100.711 369.848C100.114 370.431 99.8154 371.14 99.8154 371.974C99.8154 372.516 99.9521 373.027 100.226 373.505C100.504 373.984 100.882 374.355 101.36 374.62C101.843 374.884 102.383 375.016 102.98 375.016C104.074 375.016 104.967 374.581 105.66 373.71L106.419 374.209C106.063 374.743 105.585 375.157 104.983 375.454C104.386 375.745 103.705 375.891 102.939 375.891C101.764 375.891 100.788 375.517 100.014 374.77C99.2389 374.023 98.8516 373.113 98.8516 372.042C98.8516 371.322 99.0316 370.655 99.3916 370.04C99.7562 369.42 100.255 368.937 100.889 368.59C101.522 368.244 102.231 368.071 103.015 368.071C103.507 368.071 103.981 368.146 104.437 368.296C104.897 368.447 105.286 368.643 105.605 368.884C105.924 369.126 106.196 369.433 106.419 369.807ZM111.402 372.371H110.719L108.6 375.7H107.567L109.803 372.275C109.247 372.207 108.796 371.997 108.449 371.646C108.103 371.291 107.93 370.851 107.93 370.327C107.93 369.67 108.128 369.162 108.524 368.802C108.925 368.442 109.45 368.262 110.097 368.262H112.359V375.7H111.402V372.371ZM111.402 369.089H110.773C110.163 369.089 109.753 369.128 109.543 369.206C109.333 369.283 109.167 369.417 109.044 369.609C108.921 369.796 108.859 370.049 108.859 370.368C108.859 370.673 108.939 370.926 109.099 371.126C109.258 371.322 109.436 371.443 109.632 371.489C109.828 371.534 110.208 371.557 110.773 371.557H111.402V369.089ZM121.451 375.7H114.499V368.262H115.463V374.797H119.783V368.262H120.747V374.797H122.354V376.875H121.451V375.7ZM129.907 373.232L130.714 373.656C130.45 374.175 130.144 374.595 129.798 374.914C129.451 375.233 129.062 375.476 128.629 375.645C128.196 375.809 127.706 375.891 127.159 375.891C125.947 375.891 124.999 375.495 124.315 374.702C123.632 373.904 123.29 373.004 123.29 372.001C123.29 371.058 123.579 370.217 124.158 369.479C124.892 368.54 125.874 368.071 127.104 368.071C128.371 368.071 129.383 368.552 130.14 369.513C130.677 370.192 130.951 371.04 130.96 372.056H124.274C124.293 372.922 124.568 373.633 125.102 374.189C125.635 374.74 126.293 375.016 127.077 375.016C127.455 375.016 127.822 374.95 128.178 374.818C128.538 374.686 128.843 374.51 129.094 374.292C129.344 374.073 129.616 373.72 129.907 373.232ZM129.907 371.229C129.78 370.719 129.593 370.311 129.347 370.005C129.105 369.7 128.784 369.454 128.383 369.267C127.982 369.08 127.56 368.987 127.118 368.987C126.389 368.987 125.762 369.222 125.238 369.691C124.855 370.033 124.566 370.545 124.37 371.229H129.907ZM134.911 375.7H132.751V368.262H134.877C135.688 368.262 136.271 368.449 136.627 368.823C136.987 369.196 137.167 369.634 137.167 370.135C137.167 370.892 136.834 371.404 136.169 371.673C137.135 372.015 137.618 372.674 137.618 373.649C137.618 375.016 136.716 375.7 134.911 375.7ZM133.715 369.089V371.414H134.337C134.902 371.414 135.271 371.391 135.444 371.345C135.618 371.3 135.779 371.188 135.93 371.01C136.085 370.828 136.162 370.589 136.162 370.292C136.162 369.983 136.082 369.723 135.923 369.513C135.763 369.304 135.595 369.181 135.417 369.144C135.244 369.108 134.884 369.089 134.337 369.089H133.715ZM133.715 372.289V374.893H134.74C135.223 374.893 135.567 374.863 135.772 374.804C135.982 374.74 136.16 374.606 136.306 374.401C136.456 374.196 136.531 373.936 136.531 373.622C136.531 373.216 136.404 372.892 136.148 372.651C135.893 372.409 135.556 372.289 135.137 372.289H133.715ZM143.183 368.262H149.424V375.7H148.467V369.165H144.14V375.7H143.183V368.262ZM151.577 368.262H152.527V369.629C152.906 369.11 153.341 368.72 153.833 368.46C154.325 368.201 154.874 368.071 155.48 368.071C156.538 368.071 157.442 368.451 158.194 369.212C158.946 369.973 159.322 370.889 159.322 371.96C159.322 373.054 158.949 373.984 158.201 374.75C157.458 375.511 156.561 375.891 155.508 375.891C154.915 375.891 154.371 375.768 153.874 375.522C153.377 375.276 152.928 374.909 152.527 374.421V378.42H151.577V368.262ZM155.405 368.994C154.576 368.994 153.876 369.283 153.307 369.862C152.742 370.441 152.459 371.161 152.459 372.022C152.459 372.587 152.584 373.095 152.835 373.546C153.09 373.998 153.452 374.355 153.922 374.62C154.396 374.884 154.895 375.016 155.419 375.016C155.934 375.016 156.417 374.884 156.868 374.62C157.324 374.351 157.686 373.977 157.955 373.499C158.224 373.02 158.358 372.519 158.358 371.995C158.358 371.466 158.224 370.965 157.955 370.491C157.691 370.017 157.333 369.65 156.882 369.39C156.431 369.126 155.938 368.994 155.405 368.994ZM167.382 373.232L168.188 373.656C167.924 374.175 167.619 374.595 167.272 374.914C166.926 375.233 166.536 375.476 166.104 375.645C165.671 375.809 165.181 375.891 164.634 375.891C163.422 375.891 162.474 375.495 161.79 374.702C161.106 373.904 160.765 373.004 160.765 372.001C160.765 371.058 161.054 370.217 161.633 369.479C162.367 368.54 163.349 368.071 164.579 368.071C165.846 368.071 166.858 368.552 167.614 369.513C168.152 370.192 168.425 371.04 168.435 372.056H161.749C161.767 372.922 162.043 373.633 162.576 374.189C163.109 374.74 163.768 375.016 164.552 375.016C164.93 375.016 165.297 374.95 165.652 374.818C166.012 374.686 166.318 374.51 166.568 374.292C166.819 374.073 167.09 373.72 167.382 373.232ZM167.382 371.229C167.254 370.719 167.067 370.311 166.821 370.005C166.58 369.7 166.258 369.454 165.857 369.267C165.456 369.08 165.035 368.987 164.593 368.987C163.864 368.987 163.237 369.222 162.713 369.691C162.33 370.033 162.041 370.545 161.845 371.229H167.382ZM170.287 374.886L173.158 368.262H173.657L176.508 374.886H177.403V376.65H176.48V375.7H170.328V376.691H169.385V374.886H170.287ZM173.391 369.739L171.217 374.886H175.476L173.391 369.739ZM178.702 368.262H184.943V375.7H183.986V369.165H179.659V375.7H178.702V368.262ZM187.097 368.262H188.047V369.629C188.425 369.11 188.86 368.72 189.353 368.46C189.845 368.201 190.394 368.071 191 368.071C192.057 368.071 192.962 368.451 193.714 369.212C194.466 369.973 194.842 370.889 194.842 371.96C194.842 373.054 194.468 373.984 193.721 374.75C192.978 375.511 192.08 375.891 191.027 375.891C190.435 375.891 189.89 375.768 189.394 375.522C188.897 375.276 188.448 374.909 188.047 374.421V378.42H187.097V368.262ZM190.925 368.994C190.095 368.994 189.396 369.283 188.826 369.862C188.261 370.441 187.979 371.161 187.979 372.022C187.979 372.587 188.104 373.095 188.354 373.546C188.61 373.998 188.972 374.355 189.441 374.62C189.915 374.884 190.414 375.016 190.938 375.016C191.453 375.016 191.937 374.884 192.388 374.62C192.843 374.351 193.206 373.977 193.475 373.499C193.743 373.02 193.878 372.519 193.878 371.995C193.878 371.466 193.743 370.965 193.475 370.491C193.21 370.017 192.853 369.65 192.401 369.39C191.95 369.126 191.458 368.994 190.925 368.994ZM197.597 368.262V373.765L203.059 368.262H203.134V375.7H202.177V370.245L196.756 375.7H196.64V368.262H197.597ZM208.404 372.371H207.721L205.602 375.7H204.569L206.805 372.275C206.249 372.207 205.798 371.997 205.451 371.646C205.105 371.291 204.932 370.851 204.932 370.327C204.932 369.67 205.13 369.162 205.526 368.802C205.927 368.442 206.451 368.262 207.099 368.262H209.361V375.7H208.404V372.371ZM208.404 369.089H207.775C207.165 369.089 206.755 369.128 206.545 369.206C206.335 369.283 206.169 369.417 206.046 369.609C205.923 369.796 205.861 370.049 205.861 370.368C205.861 370.673 205.941 370.926 206.101 371.126C206.26 371.322 206.438 371.443 206.634 371.489C206.83 371.534 207.21 371.557 207.775 371.557H208.404V369.089ZM210.667 368.262H215.562V369.089H213.593V375.7H212.629V369.089H210.667V368.262ZM217.817 368.262V373.765L223.279 368.262H223.354V375.7H222.397V370.245L216.977 375.7H216.86V368.262H217.817ZM228.625 372.371H227.941L225.822 375.7H224.79L227.025 372.275C226.469 372.207 226.018 371.997 225.672 371.646C225.326 371.291 225.152 370.851 225.152 370.327C225.152 369.67 225.351 369.162 225.747 368.802C226.148 368.442 226.672 368.262 227.319 368.262H229.582V375.7H228.625V372.371ZM228.625 369.089H227.996C227.385 369.089 226.975 369.128 226.766 369.206C226.556 369.283 226.39 369.417 226.267 369.609C226.144 369.796 226.082 370.049 226.082 370.368C226.082 370.673 226.162 370.926 226.321 371.126C226.481 371.322 226.659 371.443 226.854 371.489C227.05 371.534 227.431 371.557 227.996 371.557H228.625V369.089ZM242.721 365.234V366.15C242.265 366.227 241.483 366.282 240.376 366.314C239.574 366.341 238.954 366.396 238.517 366.478C238.084 366.556 237.705 366.708 237.382 366.936C237.058 367.159 236.785 367.501 236.562 367.961C236.343 368.417 236.206 368.928 236.151 369.493L236.056 370.539C236.315 369.686 236.742 369.062 237.334 368.666C237.931 368.269 238.592 368.071 239.316 368.071C240.419 368.071 241.34 368.458 242.078 369.233C242.821 370.008 243.192 370.931 243.192 372.001C243.192 373.063 242.823 373.977 242.085 374.743C241.347 375.508 240.424 375.891 239.316 375.891C238.182 375.891 237.22 375.467 236.432 374.62C235.643 373.772 235.249 372.437 235.249 370.614C235.249 369.342 235.393 368.381 235.68 367.729C235.971 367.073 236.304 366.601 236.678 366.314C237.051 366.027 237.535 365.801 238.127 365.637C238.719 365.473 239.829 365.371 241.456 365.33C241.957 365.316 242.379 365.284 242.721 365.234ZM242.222 372.022C242.222 371.197 241.935 370.488 241.36 369.896C240.786 369.304 240.105 369.007 239.316 369.007C238.533 369.007 237.854 369.304 237.279 369.896C236.705 370.488 236.418 371.197 236.418 372.022C236.418 372.842 236.694 373.542 237.245 374.121C237.801 374.695 238.492 374.982 239.316 374.982C240.146 374.982 240.836 374.695 241.388 374.121C241.944 373.542 242.222 372.842 242.222 372.022ZM245.92 371.208H246.829C247.554 371.208 248.121 371.265 248.531 371.379C248.941 371.493 249.295 371.746 249.591 372.138C249.887 372.526 250.035 372.972 250.035 373.478C250.035 374.089 249.821 374.613 249.393 375.05C248.964 375.483 248.315 375.7 247.444 375.7H244.97V368.262H245.92V371.208ZM245.954 372.083V374.893H247.055C248.349 374.893 248.996 374.437 248.996 373.526C248.996 373.266 248.925 373.011 248.784 372.76C248.647 372.51 248.445 372.334 248.176 372.234C247.911 372.134 247.442 372.083 246.768 372.083H245.954ZM251.354 368.262H252.318V375.7H251.354V368.262ZM260.658 375.7H259.64L257.151 370.286L254.684 375.7H253.658L257.062 368.262H257.233L260.658 375.7ZM263.085 368.262V373.765L268.547 368.262H268.622V375.7H267.665V370.245L262.244 375.7H262.128V368.262H263.085ZM275.882 371.393H276.381C276.7 371.393 276.992 371.288 277.256 371.079C277.525 370.869 277.659 370.568 277.659 370.176C277.659 369.844 277.552 369.559 277.338 369.322C277.124 369.08 276.796 368.959 276.354 368.959C275.839 368.959 275.321 369.16 274.802 369.561L274.262 368.898C274.932 368.337 275.643 368.057 276.395 368.057C277.014 368.057 277.534 368.242 277.953 368.611C278.372 368.98 278.582 369.456 278.582 370.04C278.582 370.814 278.24 371.341 277.557 371.619C278.45 371.992 278.896 372.646 278.896 373.581C278.896 374.173 278.687 374.708 278.268 375.187C277.853 375.661 277.231 375.898 276.401 375.898C275.385 375.898 274.567 375.568 273.947 374.907L274.549 374.223C275.009 374.743 275.599 375.002 276.319 375.002C276.802 375.002 277.181 374.873 277.454 374.613C277.732 374.353 277.871 374.011 277.871 373.587C277.871 373.173 277.732 372.84 277.454 372.589C277.176 372.339 276.848 372.213 276.47 372.213H275.882V371.393ZM287.968 368.262V375.7H287.024V374.421C286.623 374.909 286.172 375.276 285.671 375.522C285.174 375.768 284.63 375.891 284.037 375.891C282.984 375.891 282.084 375.511 281.337 374.75C280.594 373.984 280.223 373.054 280.223 371.96C280.223 370.889 280.599 369.973 281.351 369.212C282.103 368.451 283.007 368.071 284.064 368.071C284.675 368.071 285.227 368.201 285.719 368.46C286.215 368.72 286.651 369.11 287.024 369.629V368.262H287.968ZM284.14 368.994C283.606 368.994 283.114 369.126 282.663 369.39C282.212 369.65 281.852 370.017 281.583 370.491C281.319 370.965 281.187 371.466 281.187 371.995C281.187 372.519 281.321 373.02 281.59 373.499C281.859 373.977 282.219 374.351 282.67 374.62C283.126 374.884 283.613 375.016 284.133 375.016C284.657 375.016 285.154 374.884 285.623 374.62C286.092 374.355 286.452 373.998 286.703 373.546C286.958 373.095 287.086 372.587 287.086 372.022C287.086 371.161 286.801 370.441 286.231 369.862C285.666 369.283 284.969 368.994 284.14 368.994ZM290.128 368.262H291.092V371.393L294.53 368.262H295.863L292.097 371.667L296.164 375.7H294.811L291.393 372.261L291.092 372.528V375.7H290.128V368.262ZM297.169 368.262H298.119V369.629C298.497 369.11 298.933 368.72 299.425 368.46C299.917 368.201 300.466 368.071 301.072 368.071C302.13 368.071 303.034 368.451 303.786 369.212C304.538 369.973 304.914 370.889 304.914 371.96C304.914 373.054 304.54 373.984 303.793 374.75C303.05 375.511 302.152 375.891 301.1 375.891C300.507 375.891 299.963 375.768 299.466 375.522C298.969 375.276 298.52 374.909 298.119 374.421V378.42H297.169V368.262ZM300.997 368.994C300.168 368.994 299.468 369.283 298.898 369.862C298.333 370.441 298.051 371.161 298.051 372.022C298.051 372.587 298.176 373.095 298.427 373.546C298.682 373.998 299.044 374.355 299.514 374.62C299.988 374.884 300.487 375.016 301.011 375.016C301.526 375.016 302.009 374.884 302.46 374.62C302.916 374.351 303.278 373.977 303.547 373.499C303.816 373.02 303.95 372.519 303.95 371.995C303.95 371.466 303.816 370.965 303.547 370.491C303.283 370.017 302.925 369.65 302.474 369.39C302.022 369.126 301.53 368.994 300.997 368.994ZM307.662 371.208H308.571C309.296 371.208 309.863 371.265 310.273 371.379C310.684 371.493 311.037 371.746 311.333 372.138C311.629 372.526 311.777 372.972 311.777 373.478C311.777 374.089 311.563 374.613 311.135 375.05C310.706 375.483 310.057 375.7 309.187 375.7H306.712V368.262H307.662V371.208ZM307.696 372.083V374.893H308.797C310.091 374.893 310.738 374.437 310.738 373.526C310.738 373.266 310.668 373.011 310.526 372.76C310.39 372.51 310.187 372.334 309.918 372.234C309.654 372.134 309.184 372.083 308.51 372.083H307.696ZM313.097 368.262H314.061V375.7H313.097V368.262ZM315.271 368.262H320.165V369.089H318.196V375.7H317.232V369.089H315.271V368.262ZM322.414 371.208H323.323C324.048 371.208 324.615 371.265 325.025 371.379C325.436 371.493 325.789 371.746 326.085 372.138C326.381 372.526 326.529 372.972 326.529 373.478C326.529 374.089 326.315 374.613 325.887 375.05C325.458 375.483 324.809 375.7 323.938 375.7H321.464V368.262H322.414V371.208ZM322.448 372.083V374.893H323.549C324.843 374.893 325.49 374.437 325.49 373.526C325.49 373.266 325.42 373.011 325.278 372.76C325.142 372.51 324.939 372.334 324.67 372.234C324.406 372.134 323.936 372.083 323.262 372.083H322.448ZM327.849 368.262H328.812V375.7H327.849V368.262ZM20.5186 386.262V391.765L25.9805 386.262H26.0557V393.7H25.0986V388.245L19.6777 393.7H19.5615V386.262H20.5186ZM29.4326 389.393H29.9316C30.2507 389.393 30.5423 389.288 30.8066 389.079C31.0755 388.869 31.21 388.568 31.21 388.176C31.21 387.844 31.1029 387.559 30.8887 387.322C30.6745 387.08 30.3464 386.959 29.9043 386.959C29.3893 386.959 28.8721 387.16 28.3525 387.561L27.8125 386.898C28.4824 386.337 29.1934 386.057 29.9453 386.057C30.5651 386.057 31.0846 386.242 31.5039 386.611C31.9232 386.98 32.1328 387.456 32.1328 388.04C32.1328 388.814 31.791 389.341 31.1074 389.619C32.0007 389.992 32.4473 390.646 32.4473 391.581C32.4473 392.173 32.2376 392.708 31.8184 393.187C31.4036 393.661 30.7816 393.898 29.9521 393.898C28.9359 393.898 28.1178 393.568 27.498 392.907L28.0996 392.223C28.5599 392.743 29.1501 393.002 29.8701 393.002C30.3532 393.002 30.7314 392.873 31.0049 392.613C31.2829 392.353 31.4219 392.011 31.4219 391.587C31.4219 391.173 31.2829 390.84 31.0049 390.589C30.7269 390.339 30.3988 390.213 30.0205 390.213H29.4326V389.393ZM33.4863 389.502H37.2461V390.336H33.4863V389.502ZM40.001 389.393H40.5C40.819 389.393 41.1107 389.288 41.375 389.079C41.6439 388.869 41.7783 388.568 41.7783 388.176C41.7783 387.844 41.6712 387.559 41.457 387.322C41.2428 387.08 40.9147 386.959 40.4727 386.959C39.9577 386.959 39.4404 387.16 38.9209 387.561L38.3809 386.898C39.0508 386.337 39.7617 386.057 40.5137 386.057C41.1335 386.057 41.653 386.242 42.0723 386.611C42.4915 386.98 42.7012 387.456 42.7012 388.04C42.7012 388.814 42.3594 389.341 41.6758 389.619C42.569 389.992 43.0156 390.646 43.0156 391.581C43.0156 392.173 42.806 392.708 42.3867 393.187C41.972 393.661 41.3499 393.898 40.5205 393.898C39.5042 393.898 38.6862 393.568 38.0664 392.907L38.668 392.223C39.1283 392.743 39.7184 393.002 40.4385 393.002C40.9215 393.002 41.2998 392.873 41.5732 392.613C41.8512 392.353 41.9902 392.011 41.9902 391.587C41.9902 391.173 41.8512 390.84 41.5732 390.589C41.2952 390.339 40.9671 390.213 40.5889 390.213H40.001V389.393ZM52.0869 386.262V393.7H51.1436V392.421C50.7425 392.909 50.2913 393.276 49.79 393.522C49.2933 393.768 48.7487 393.891 48.1562 393.891C47.1035 393.891 46.2035 393.511 45.4561 392.75C44.7132 391.984 44.3418 391.054 44.3418 389.96C44.3418 388.889 44.7178 387.973 45.4697 387.212C46.2217 386.451 47.1263 386.071 48.1836 386.071C48.7943 386.071 49.3457 386.201 49.8379 386.46C50.3346 386.72 50.7699 387.11 51.1436 387.629V386.262H52.0869ZM48.2588 386.994C47.7256 386.994 47.2334 387.126 46.7822 387.39C46.3311 387.65 45.971 388.017 45.7021 388.491C45.4378 388.965 45.3057 389.466 45.3057 389.995C45.3057 390.519 45.4401 391.02 45.709 391.499C45.9779 391.977 46.3379 392.351 46.7891 392.62C47.2448 392.884 47.7324 393.016 48.252 393.016C48.776 393.016 49.2728 392.884 49.7422 392.62C50.2116 392.355 50.5716 391.998 50.8223 391.546C51.0775 391.095 51.2051 390.587 51.2051 390.022C51.2051 389.161 50.9202 388.441 50.3506 387.862C49.7855 387.283 49.0882 386.994 48.2588 386.994ZM64.4258 393.7H63.4072L60.9189 388.286L58.4512 393.7H57.4258L60.8301 386.262H61.001L64.4258 393.7ZM69.416 386.071C70.5599 386.071 71.5078 386.486 72.2598 387.315C72.9434 388.071 73.2852 388.967 73.2852 390.001C73.2852 391.041 72.9229 391.95 72.1982 392.729C71.4782 393.504 70.5508 393.891 69.416 393.891C68.2767 393.891 67.3447 393.504 66.6201 392.729C65.9001 391.95 65.54 391.041 65.54 390.001C65.54 388.972 65.8818 388.078 66.5654 387.322C67.3174 386.488 68.2676 386.071 69.416 386.071ZM69.416 387.007C68.623 387.007 67.9417 387.301 67.3721 387.889C66.8024 388.477 66.5176 389.188 66.5176 390.022C66.5176 390.56 66.6475 391.061 66.9072 391.526C67.167 391.991 67.5179 392.351 67.96 392.606C68.402 392.857 68.8874 392.982 69.416 392.982C69.9447 392.982 70.43 392.857 70.8721 392.606C71.3141 392.351 71.665 391.991 71.9248 391.526C72.1846 391.061 72.3145 390.56 72.3145 390.022C72.3145 389.188 72.0273 388.477 71.4531 387.889C70.8835 387.301 70.2044 387.007 69.416 387.007ZM75.0693 386.262H76.0332V389.393L79.4717 386.262H80.8047L77.0381 389.667L81.1055 393.7H79.752L76.334 390.261L76.0332 390.528V393.7H75.0693V386.262ZM82.1582 392.886L85.0293 386.262H85.5283L88.3789 392.886H89.2744V394.65H88.3516V393.7H82.1992V394.691H81.2559V392.886H82.1582ZM85.2617 387.739L83.0879 392.886H87.3467L85.2617 387.739ZM97.9834 386.262V393.7H97.04V392.421C96.639 392.909 96.1878 393.276 95.6865 393.522C95.1898 393.768 94.6452 393.891 94.0527 393.891C93 393.891 92.0999 393.511 91.3525 392.75C90.6097 391.984 90.2383 391.054 90.2383 389.96C90.2383 388.889 90.6143 387.973 91.3662 387.212C92.1182 386.451 93.0228 386.071 94.0801 386.071C94.6908 386.071 95.2422 386.201 95.7344 386.46C96.2311 386.72 96.6663 387.11 97.04 387.629V386.262H97.9834ZM94.1553 386.994C93.6221 386.994 93.1299 387.126 92.6787 387.39C92.2275 387.65 91.8675 388.017 91.5986 388.491C91.3343 388.965 91.2021 389.466 91.2021 389.995C91.2021 390.519 91.3366 391.02 91.6055 391.499C91.8743 391.977 92.2344 392.351 92.6855 392.62C93.1413 392.884 93.6289 393.016 94.1484 393.016C94.6725 393.016 95.1693 392.884 95.6387 392.62C96.1081 392.355 96.4681 391.998 96.7188 391.546C96.974 391.095 97.1016 390.587 97.1016 390.022C97.1016 389.161 96.8167 388.441 96.2471 387.862C95.682 387.283 94.9847 386.994 94.1553 386.994ZM99.3438 386.262H100.355L102.912 391.991L105.394 386.262H106.412L101.976 396.42H100.964L102.399 393.139L99.3438 386.262ZM112.934 390.118H108.613V393.7H107.649V386.262H108.613V389.215H112.934V386.262H113.891V393.7H112.934V390.118ZM123.44 386.262V393.7H122.497V392.421C122.096 392.909 121.645 393.276 121.144 393.522C120.647 393.768 120.102 393.891 119.51 393.891C118.457 393.891 117.557 393.511 116.81 392.75C116.067 391.984 115.695 391.054 115.695 389.96C115.695 388.889 116.071 387.973 116.823 387.212C117.575 386.451 118.48 386.071 119.537 386.071C120.148 386.071 120.699 386.201 121.191 386.46C121.688 386.72 122.123 387.11 122.497 387.629V386.262H123.44ZM119.612 386.994C119.079 386.994 118.587 387.126 118.136 387.39C117.685 387.65 117.325 388.017 117.056 388.491C116.791 388.965 116.659 389.466 116.659 389.995C116.659 390.519 116.794 391.02 117.062 391.499C117.331 391.977 117.691 392.351 118.143 392.62C118.598 392.884 119.086 393.016 119.605 393.016C120.13 393.016 120.626 392.884 121.096 392.62C121.565 392.355 121.925 391.998 122.176 391.546C122.431 391.095 122.559 390.587 122.559 390.022C122.559 389.161 122.274 388.441 121.704 387.862C121.139 387.283 120.442 386.994 119.612 386.994ZM131.644 393.7H129.483V386.262H131.609C132.421 386.262 133.004 386.449 133.359 386.823C133.719 387.196 133.899 387.634 133.899 388.135C133.899 388.892 133.567 389.404 132.901 389.673C133.868 390.015 134.351 390.674 134.351 391.649C134.351 393.016 133.448 393.7 131.644 393.7ZM130.447 387.089V389.414H131.069C131.634 389.414 132.004 389.391 132.177 389.345C132.35 389.3 132.512 389.188 132.662 389.01C132.817 388.828 132.895 388.589 132.895 388.292C132.895 387.983 132.815 387.723 132.655 387.513C132.496 387.304 132.327 387.181 132.149 387.144C131.976 387.108 131.616 387.089 131.069 387.089H130.447ZM130.447 390.289V392.893H131.473C131.956 392.893 132.3 392.863 132.505 392.804C132.715 392.74 132.892 392.606 133.038 392.401C133.188 392.196 133.264 391.936 133.264 391.622C133.264 391.216 133.136 390.892 132.881 390.651C132.626 390.409 132.288 390.289 131.869 390.289H130.447ZM140.469 386.795H139.505C139.532 385.802 139.863 384.986 140.496 384.348C141.134 383.71 141.92 383.391 142.854 383.391C143.78 383.391 144.527 383.69 145.097 384.287C145.671 384.884 145.958 385.588 145.958 386.399C145.958 386.969 145.821 387.504 145.548 388.005C145.274 388.502 144.743 389.177 143.955 390.029L141.453 392.729H146.095V393.7H139.266L143.107 389.55C143.887 388.716 144.393 388.099 144.625 387.698C144.862 387.292 144.98 386.866 144.98 386.419C144.98 385.854 144.769 385.369 144.345 384.963C143.925 384.553 143.41 384.348 142.8 384.348C142.157 384.348 141.622 384.562 141.193 384.991C140.77 385.419 140.528 386.021 140.469 386.795ZM147.059 388.675C147.059 387.349 147.2 386.324 147.482 385.599C147.77 384.875 148.173 384.325 148.692 383.952C149.212 383.578 149.793 383.391 150.436 383.391C151.087 383.391 151.677 383.58 152.206 383.958C152.735 384.332 153.152 384.895 153.457 385.647C153.767 386.399 153.922 387.408 153.922 388.675C153.922 389.938 153.769 390.943 153.464 391.69C153.163 392.437 152.746 393.002 152.213 393.385C151.68 393.764 151.087 393.953 150.436 393.953C149.793 393.953 149.214 393.768 148.699 393.399C148.184 393.03 147.781 392.481 147.489 391.751C147.202 391.018 147.059 389.992 147.059 388.675ZM148.009 388.696C148.009 389.831 148.109 390.69 148.31 391.273C148.515 391.852 148.815 392.292 149.212 392.592C149.608 392.893 150.028 393.043 150.47 393.043C150.916 393.043 151.333 392.898 151.721 392.606C152.108 392.31 152.402 391.868 152.603 391.28C152.853 390.564 152.979 389.703 152.979 388.696C152.979 387.684 152.867 386.857 152.644 386.214C152.42 385.567 152.11 385.096 151.714 384.799C151.322 384.499 150.907 384.348 150.47 384.348C150.023 384.348 149.604 384.499 149.212 384.799C148.82 385.096 148.521 385.535 148.316 386.119C148.111 386.697 148.009 387.556 148.009 388.696ZM156 386.795H155.036C155.063 385.802 155.394 384.986 156.027 384.348C156.665 383.71 157.451 383.391 158.386 383.391C159.311 383.391 160.058 383.69 160.628 384.287C161.202 384.884 161.489 385.588 161.489 386.399C161.489 386.969 161.353 387.504 161.079 388.005C160.806 388.502 160.275 389.177 159.486 390.029L156.984 392.729H161.626V393.7H154.797L158.639 389.55C159.418 388.716 159.924 388.099 160.156 387.698C160.393 387.292 160.512 386.866 160.512 386.419C160.512 385.854 160.3 385.369 159.876 384.963C159.457 384.553 158.942 384.348 158.331 384.348C157.688 384.348 157.153 384.562 156.725 384.991C156.301 385.419 156.059 386.021 156 386.795ZM162.59 388.675C162.59 387.349 162.731 386.324 163.014 385.599C163.301 384.875 163.704 384.325 164.224 383.952C164.743 383.578 165.324 383.391 165.967 383.391C166.618 383.391 167.209 383.58 167.737 383.958C168.266 384.332 168.683 384.895 168.988 385.647C169.298 386.399 169.453 387.408 169.453 388.675C169.453 389.938 169.3 390.943 168.995 391.69C168.694 392.437 168.277 393.002 167.744 393.385C167.211 393.764 166.618 393.953 165.967 393.953C165.324 393.953 164.745 393.768 164.23 393.399C163.715 393.03 163.312 392.481 163.021 391.751C162.733 391.018 162.59 389.992 162.59 388.675ZM163.54 388.696C163.54 389.831 163.64 390.69 163.841 391.273C164.046 391.852 164.347 392.292 164.743 392.592C165.14 392.893 165.559 393.043 166.001 393.043C166.448 393.043 166.865 392.898 167.252 392.606C167.639 392.31 167.933 391.868 168.134 391.28C168.384 390.564 168.51 389.703 168.51 388.696C168.51 387.684 168.398 386.857 168.175 386.214C167.951 385.567 167.642 385.096 167.245 384.799C166.853 384.499 166.438 384.348 166.001 384.348C165.554 384.348 165.135 384.499 164.743 384.799C164.351 385.096 164.053 385.535 163.848 386.119C163.643 386.697 163.54 387.556 163.54 388.696ZM175.811 387.103V393.7H174.86V386.262H178.62V387.103H175.811ZM183.439 386.071C184.583 386.071 185.531 386.486 186.283 387.315C186.967 388.071 187.309 388.967 187.309 390.001C187.309 391.041 186.946 391.95 186.222 392.729C185.502 393.504 184.574 393.891 183.439 393.891C182.3 393.891 181.368 393.504 180.644 392.729C179.924 391.95 179.563 391.041 179.563 390.001C179.563 388.972 179.905 388.078 180.589 387.322C181.341 386.488 182.291 386.071 183.439 386.071ZM183.439 387.007C182.646 387.007 181.965 387.301 181.396 387.889C180.826 388.477 180.541 389.188 180.541 390.022C180.541 390.56 180.671 391.061 180.931 391.526C181.19 391.991 181.541 392.351 181.983 392.606C182.425 392.857 182.911 392.982 183.439 392.982C183.968 392.982 184.453 392.857 184.896 392.606C185.338 392.351 185.688 391.991 185.948 391.526C186.208 391.061 186.338 390.56 186.338 390.022C186.338 389.188 186.051 388.477 185.477 387.889C184.907 387.301 184.228 387.007 183.439 387.007ZM189.154 392.886L192.025 386.262H192.524L195.375 392.886H196.271V394.65H195.348V393.7H189.195V394.691H188.252V392.886H189.154ZM192.258 387.739L190.084 392.886H194.343L192.258 387.739ZM196.77 386.262H197.781L200.338 391.991L202.819 386.262H203.838L199.401 396.42H198.39L199.825 393.139L196.77 386.262ZM206.128 392.196C206.36 392.196 206.559 392.278 206.723 392.442C206.887 392.606 206.969 392.806 206.969 393.043C206.969 393.276 206.887 393.476 206.723 393.645C206.559 393.809 206.36 393.891 206.128 393.891C205.896 393.891 205.697 393.809 205.533 393.645C205.369 393.476 205.287 393.276 205.287 393.043C205.287 392.806 205.369 392.606 205.533 392.442C205.697 392.278 205.896 392.196 206.128 392.196Z" fill="#333333"/>
<path d="M206.722 331.809H205.62C205.651 330.674 206.029 329.741 206.753 329.012C207.482 328.283 208.381 327.918 209.448 327.918C210.506 327.918 211.36 328.26 212.011 328.942C212.667 329.624 212.995 330.429 212.995 331.356C212.995 332.007 212.839 332.619 212.526 333.192C212.214 333.76 211.607 334.53 210.706 335.504L207.847 338.59H213.151V339.7H205.347L209.737 334.958C210.628 334.004 211.206 333.299 211.472 332.84C211.743 332.377 211.878 331.89 211.878 331.379C211.878 330.734 211.636 330.179 211.151 329.715C210.672 329.247 210.084 329.012 209.386 329.012C208.651 329.012 208.039 329.257 207.55 329.747C207.065 330.236 206.789 330.924 206.722 331.809ZM214.253 333.958C214.253 332.442 214.414 331.27 214.737 330.442C215.065 329.614 215.526 328.986 216.12 328.559C216.714 328.132 217.378 327.918 218.112 327.918C218.857 327.918 219.532 328.135 220.136 328.567C220.74 328.994 221.216 329.637 221.565 330.497C221.92 331.356 222.097 332.51 222.097 333.958C222.097 335.4 221.922 336.549 221.573 337.403C221.229 338.257 220.753 338.903 220.144 339.34C219.534 339.773 218.857 339.989 218.112 339.989C217.378 339.989 216.716 339.778 216.128 339.356C215.539 338.934 215.078 338.306 214.745 337.473C214.417 336.635 214.253 335.463 214.253 333.958ZM215.339 333.981C215.339 335.278 215.453 336.26 215.683 336.926C215.917 337.588 216.261 338.09 216.714 338.434C217.167 338.778 217.646 338.95 218.151 338.95C218.662 338.95 219.138 338.783 219.581 338.45C220.024 338.111 220.36 337.606 220.589 336.934C220.875 336.116 221.019 335.132 221.019 333.981C221.019 332.825 220.891 331.879 220.636 331.145C220.381 330.405 220.026 329.866 219.573 329.528C219.125 329.184 218.651 329.012 218.151 329.012C217.641 329.012 217.162 329.184 216.714 329.528C216.266 329.866 215.925 330.369 215.69 331.036C215.456 331.697 215.339 332.679 215.339 333.981ZM224.472 331.809H223.37C223.401 330.674 223.779 329.741 224.503 329.012C225.232 328.283 226.131 327.918 227.198 327.918C228.256 327.918 229.11 328.26 229.761 328.942C230.417 329.624 230.745 330.429 230.745 331.356C230.745 332.007 230.589 332.619 230.276 333.192C229.964 333.76 229.357 334.53 228.456 335.504L225.597 338.59H230.901V339.7H223.097L227.487 334.958C228.378 334.004 228.956 333.299 229.222 332.84C229.493 332.377 229.628 331.89 229.628 331.379C229.628 330.734 229.386 330.179 228.901 329.715C228.422 329.247 227.834 329.012 227.136 329.012C226.401 329.012 225.789 329.257 225.3 329.747C224.815 330.236 224.539 330.924 224.472 331.809ZM232.003 333.958C232.003 332.442 232.164 331.27 232.487 330.442C232.815 329.614 233.276 328.986 233.87 328.559C234.464 328.132 235.128 327.918 235.862 327.918C236.607 327.918 237.282 328.135 237.886 328.567C238.49 328.994 238.966 329.637 239.315 330.497C239.67 331.356 239.847 332.51 239.847 333.958C239.847 335.4 239.672 336.549 239.323 337.403C238.979 338.257 238.503 338.903 237.894 339.34C237.284 339.773 236.607 339.989 235.862 339.989C235.128 339.989 234.466 339.778 233.878 339.356C233.289 338.934 232.828 338.306 232.495 337.473C232.167 336.635 232.003 335.463 232.003 333.958ZM233.089 333.981C233.089 335.278 233.203 336.26 233.433 336.926C233.667 337.588 234.011 338.09 234.464 338.434C234.917 338.778 235.396 338.95 235.901 338.95C236.412 338.95 236.888 338.783 237.331 338.45C237.774 338.111 238.11 337.606 238.339 336.934C238.625 336.116 238.769 335.132 238.769 333.981C238.769 332.825 238.641 331.879 238.386 331.145C238.131 330.405 237.776 329.866 237.323 329.528C236.875 329.184 236.401 329.012 235.901 329.012C235.391 329.012 234.912 329.184 234.464 329.528C234.016 329.866 233.675 330.369 233.44 331.036C233.206 331.697 233.089 332.679 233.089 333.981ZM247.112 332.161V339.7H246.026V331.2H250.323V332.161H247.112ZM253.011 337.981C253.276 337.981 253.503 338.075 253.69 338.262C253.878 338.45 253.972 338.679 253.972 338.95C253.972 339.215 253.878 339.444 253.69 339.637C253.503 339.825 253.276 339.918 253.011 339.918C252.745 339.918 252.519 339.825 252.331 339.637C252.144 339.444 252.05 339.215 252.05 338.95C252.05 338.679 252.144 338.45 252.331 338.262C252.519 338.075 252.745 337.981 253.011 337.981ZM257.909 327.918H258.925L258.698 330.239L260.62 328.864L261.136 329.739L258.972 330.715L261.136 331.676L260.62 332.559L258.698 331.2L258.925 333.52H257.909L258.151 331.2L256.229 332.559L255.714 331.676L257.909 330.715L255.714 329.739L256.229 328.864L258.151 330.239L257.909 327.918Z" fill="#333333"/>
<path d="M305.12 331.809H304.019C304.05 330.674 304.427 329.741 305.151 329.012C305.881 328.283 306.779 327.918 307.847 327.918C308.904 327.918 309.758 328.26 310.409 328.942C311.065 329.624 311.394 330.429 311.394 331.356C311.394 332.007 311.237 332.619 310.925 333.192C310.612 333.76 310.006 334.53 309.104 335.504L306.245 338.59H311.55V339.7H303.745L308.136 334.958C309.026 334.004 309.604 333.299 309.87 332.84C310.141 332.377 310.276 331.89 310.276 331.379C310.276 330.734 310.034 330.179 309.55 329.715C309.071 329.247 308.482 329.012 307.784 329.012C307.05 329.012 306.438 329.257 305.948 329.747C305.464 330.236 305.188 330.924 305.12 331.809ZM312.651 333.958C312.651 332.442 312.813 331.27 313.136 330.442C313.464 329.614 313.925 328.986 314.519 328.559C315.112 328.132 315.776 327.918 316.511 327.918C317.256 327.918 317.93 328.135 318.534 328.567C319.138 328.994 319.615 329.637 319.964 330.497C320.318 331.356 320.495 332.51 320.495 333.958C320.495 335.4 320.321 336.549 319.972 337.403C319.628 338.257 319.151 338.903 318.542 339.34C317.933 339.773 317.256 339.989 316.511 339.989C315.776 339.989 315.115 339.778 314.526 339.356C313.938 338.934 313.477 338.306 313.144 337.473C312.815 336.635 312.651 335.463 312.651 333.958ZM313.737 333.981C313.737 335.278 313.852 336.26 314.081 336.926C314.315 337.588 314.659 338.09 315.112 338.434C315.565 338.778 316.045 338.95 316.55 338.95C317.06 338.95 317.537 338.783 317.979 338.45C318.422 338.111 318.758 337.606 318.987 336.934C319.274 336.116 319.417 335.132 319.417 333.981C319.417 332.825 319.289 331.879 319.034 331.145C318.779 330.405 318.425 329.866 317.972 329.528C317.524 329.184 317.05 329.012 316.55 329.012C316.039 329.012 315.56 329.184 315.112 329.528C314.664 329.866 314.323 330.369 314.089 331.036C313.854 331.697 313.737 332.679 313.737 333.981ZM322.87 331.809H321.769C321.8 330.674 322.177 329.741 322.901 329.012C323.631 328.283 324.529 327.918 325.597 327.918C326.654 327.918 327.508 328.26 328.159 328.942C328.815 329.624 329.144 330.429 329.144 331.356C329.144 332.007 328.987 332.619 328.675 333.192C328.362 333.76 327.756 334.53 326.854 335.504L323.995 338.59H329.3V339.7H321.495L325.886 334.958C326.776 334.004 327.354 333.299 327.62 332.84C327.891 332.377 328.026 331.89 328.026 331.379C328.026 330.734 327.784 330.179 327.3 329.715C326.821 329.247 326.232 329.012 325.534 329.012C324.8 329.012 324.188 329.257 323.698 329.747C323.214 330.236 322.938 330.924 322.87 331.809ZM330.401 333.958C330.401 332.442 330.563 331.27 330.886 330.442C331.214 329.614 331.675 328.986 332.269 328.559C332.862 328.132 333.526 327.918 334.261 327.918C335.006 327.918 335.68 328.135 336.284 328.567C336.888 328.994 337.365 329.637 337.714 330.497C338.068 331.356 338.245 332.51 338.245 333.958C338.245 335.4 338.071 336.549 337.722 337.403C337.378 338.257 336.901 338.903 336.292 339.34C335.683 339.773 335.006 339.989 334.261 339.989C333.526 339.989 332.865 339.778 332.276 339.356C331.688 338.934 331.227 338.306 330.894 337.473C330.565 336.635 330.401 335.463 330.401 333.958ZM331.487 333.981C331.487 335.278 331.602 336.26 331.831 336.926C332.065 337.588 332.409 338.09 332.862 338.434C333.315 338.778 333.795 338.95 334.3 338.95C334.81 338.95 335.287 338.783 335.729 338.45C336.172 338.111 336.508 337.606 336.737 336.934C337.024 336.116 337.167 335.132 337.167 333.981C337.167 332.825 337.039 331.879 336.784 331.145C336.529 330.405 336.175 329.866 335.722 329.528C335.274 329.184 334.8 329.012 334.3 329.012C333.789 329.012 333.31 329.184 332.862 329.528C332.414 329.866 332.073 330.369 331.839 331.036C331.604 331.697 331.487 332.679 331.487 333.981ZM345.511 332.161V339.7H344.425V331.2H348.722V332.161H345.511ZM351.409 337.981C351.675 337.981 351.901 338.075 352.089 338.262C352.276 338.45 352.37 338.679 352.37 338.95C352.37 339.215 352.276 339.444 352.089 339.637C351.901 339.825 351.675 339.918 351.409 339.918C351.144 339.918 350.917 339.825 350.729 339.637C350.542 339.444 350.448 339.215 350.448 338.95C350.448 338.679 350.542 338.45 350.729 338.262C350.917 338.075 351.144 337.981 351.409 337.981Z" fill="#333333"/>
<path d="M5.5459 210.025H10.8652V228.7H7.33594V213.364H3.48926L5.5459 210.025ZM24.4492 209.555H28.0039V221.578H29.667V224.866H28.0039V228.7H24.5254V224.866H16.375V221.578L24.4492 209.555ZM24.5254 221.578V215.319L20.2598 221.578H24.5254ZM42.2354 216.042H38.7695C38.8626 214.028 39.4932 212.445 40.6611 211.294C41.8376 210.135 43.3441 209.555 45.1807 209.555C46.3148 209.555 47.3135 209.796 48.1768 210.279C49.0485 210.753 49.7425 211.443 50.2588 212.348C50.7835 213.245 51.0459 214.159 51.0459 215.09C51.0459 216.199 50.7285 217.392 50.0938 218.67C49.4674 219.948 48.3164 221.459 46.6406 223.203L44.5459 225.412H51.1982V228.7H38.2617V226.999L44.0381 221.108C45.4346 219.694 46.3613 218.56 46.8184 217.706C47.2839 216.842 47.5166 216.064 47.5166 215.37C47.5166 214.65 47.2754 214.058 46.793 213.592C46.319 213.118 45.7054 212.881 44.9521 212.881C44.1904 212.881 43.5557 213.165 43.0479 213.732C42.54 214.299 42.2692 215.069 42.2354 216.042ZM59.501 209.555C60.8636 209.555 62.0358 209.889 63.0176 210.558C64.0078 211.227 64.7695 212.251 65.3027 213.63C65.8444 215.001 66.1152 216.914 66.1152 219.369C66.1152 221.848 65.8402 223.778 65.29 225.158C64.7484 226.537 64.0163 227.553 63.0938 228.205C62.1712 228.848 61.0075 229.169 59.6025 229.169C58.1976 229.169 57.0169 228.844 56.0605 228.192C55.1042 227.54 54.3551 226.55 53.8135 225.221C53.2718 223.892 53.001 222.001 53.001 219.546C53.001 216.119 53.5299 213.635 54.5879 212.094C55.7643 210.402 57.402 209.555 59.501 209.555ZM59.5898 212.932C58.9889 212.932 58.4557 213.127 57.9902 213.516C57.5247 213.897 57.1693 214.557 56.9238 215.497C56.6784 216.436 56.5557 217.811 56.5557 219.623C56.5557 221.984 56.835 223.617 57.3936 224.523C57.9606 225.42 58.6927 225.869 59.5898 225.869C60.4531 225.869 61.1387 225.441 61.6465 224.586C62.2643 223.554 62.5732 221.827 62.5732 219.407C62.5732 216.952 62.2939 215.26 61.7354 214.329C61.1852 213.398 60.4701 212.932 59.5898 212.932ZM74.0752 209.555C75.4378 209.555 76.61 209.889 77.5918 210.558C78.582 211.227 79.3438 212.251 79.877 213.63C80.4186 215.001 80.6895 216.914 80.6895 219.369C80.6895 221.848 80.4144 223.778 79.8643 225.158C79.3226 226.537 78.5905 227.553 77.668 228.205C76.7454 228.848 75.5817 229.169 74.1768 229.169C72.7718 229.169 71.5911 228.844 70.6348 228.192C69.6784 227.54 68.9294 226.55 68.3877 225.221C67.846 223.892 67.5752 222.001 67.5752 219.546C67.5752 216.119 68.1042 213.635 69.1621 212.094C70.3385 210.402 71.9762 209.555 74.0752 209.555ZM74.1641 212.932C73.5632 212.932 73.0299 213.127 72.5645 213.516C72.099 213.897 71.7435 214.557 71.498 215.497C71.2526 216.436 71.1299 217.811 71.1299 219.623C71.1299 221.984 71.4092 223.617 71.9678 224.523C72.5348 225.42 73.2669 225.869 74.1641 225.869C75.0273 225.869 75.7129 225.441 76.2207 224.586C76.8385 223.554 77.1475 221.827 77.1475 219.407C77.1475 216.952 76.8682 215.26 76.3096 214.329C75.7594 213.398 75.0443 212.932 74.1641 212.932ZM12.5742 239.262H17.4688V240.089H15.5V246.7H14.5361V240.089H12.5742V239.262ZM19.7178 242.208H20.627C21.3516 242.208 21.9189 242.265 22.3291 242.379C22.7393 242.493 23.0924 242.746 23.3887 243.138C23.6849 243.526 23.833 243.972 23.833 244.478C23.833 245.089 23.6188 245.613 23.1904 246.05C22.762 246.483 22.1126 246.7 21.2422 246.7H18.7676V239.262H19.7178V242.208ZM19.752 243.083V245.893H20.8525C22.1468 245.893 22.7939 245.437 22.7939 244.526C22.7939 244.266 22.7233 244.011 22.582 243.76C22.4453 243.51 22.2425 243.334 21.9736 243.234C21.7093 243.134 21.2399 243.083 20.5654 243.083H19.752ZM25.1523 239.262H26.1162V246.7H25.1523V239.262ZM35.3789 240.807L34.6201 241.279C33.9639 240.408 33.0684 239.973 31.9336 239.973C31.0267 239.973 30.2725 240.265 29.6709 240.848C29.0739 241.431 28.7754 242.14 28.7754 242.974C28.7754 243.516 28.9121 244.027 29.1855 244.505C29.4635 244.984 29.8418 245.355 30.3203 245.62C30.8034 245.884 31.3434 246.016 31.9404 246.016C33.0342 246.016 33.9274 245.581 34.6201 244.71L35.3789 245.209C35.0234 245.743 34.5449 246.157 33.9434 246.454C33.3464 246.745 32.665 246.891 31.8994 246.891C30.7236 246.891 29.7484 246.517 28.9736 245.77C28.1989 245.023 27.8115 244.113 27.8115 243.042C27.8115 242.322 27.9915 241.655 28.3516 241.04C28.7161 240.42 29.2152 239.937 29.8486 239.59C30.4821 239.244 31.1908 239.071 31.9746 239.071C32.4668 239.071 32.9408 239.146 33.3965 239.296C33.8568 239.447 34.2464 239.643 34.5654 239.884C34.8844 240.126 35.1556 240.433 35.3789 240.807ZM38.2773 245.196C38.5098 245.196 38.708 245.278 38.8721 245.442C39.0361 245.606 39.1182 245.806 39.1182 246.043C39.1182 246.276 39.0361 246.476 38.8721 246.645C38.708 246.809 38.5098 246.891 38.2773 246.891C38.0449 246.891 37.8467 246.809 37.6826 246.645C37.5186 246.476 37.4365 246.276 37.4365 246.043C37.4365 245.806 37.5186 245.606 37.6826 245.442C37.8467 245.278 38.0449 245.196 38.2773 245.196ZM41.1211 239.262H42.0713V240.629C42.4495 240.11 42.8848 239.72 43.377 239.46C43.8691 239.201 44.4183 239.071 45.0244 239.071C46.0817 239.071 46.9863 239.451 47.7383 240.212C48.4902 240.973 48.8662 241.889 48.8662 242.96C48.8662 244.054 48.4925 244.984 47.7451 245.75C47.0023 246.511 46.1045 246.891 45.0518 246.891C44.4593 246.891 43.9147 246.768 43.418 246.522C42.9212 246.276 42.4723 245.909 42.0713 245.421V249.42H41.1211V239.262ZM44.9492 239.994C44.1198 239.994 43.4202 240.283 42.8506 240.862C42.2855 241.441 42.0029 242.161 42.0029 243.022C42.0029 243.587 42.1283 244.095 42.3789 244.546C42.6341 244.998 42.9964 245.355 43.4658 245.62C43.9398 245.884 44.4388 246.016 44.9629 246.016C45.4779 246.016 45.9609 245.884 46.4121 245.62C46.8678 245.351 47.2301 244.977 47.499 244.499C47.7679 244.02 47.9023 243.519 47.9023 242.995C47.9023 242.466 47.7679 241.965 47.499 241.491C47.2347 241.017 46.877 240.65 46.4258 240.39C45.9746 240.126 45.4824 239.994 44.9492 239.994ZM49.8643 239.262H50.876L53.4326 244.991L55.9141 239.262H56.9326L52.4961 249.42H51.4844L52.9199 246.139L49.8643 239.262ZM65.2861 236.234V237.15C64.8304 237.227 64.0488 237.282 62.9414 237.314C62.1393 237.341 61.5195 237.396 61.082 237.478C60.6491 237.556 60.2708 237.708 59.9473 237.936C59.6237 238.159 59.3503 238.501 59.127 238.961C58.9082 239.417 58.7715 239.928 58.7168 240.493L58.6211 241.539C58.8809 240.686 59.307 240.062 59.8994 239.666C60.4964 239.269 61.1572 239.071 61.8818 239.071C62.9847 239.071 63.9053 239.458 64.6436 240.233C65.3864 241.008 65.7578 241.931 65.7578 243.001C65.7578 244.063 65.3887 244.977 64.6504 245.743C63.9121 246.508 62.9893 246.891 61.8818 246.891C60.7471 246.891 59.7855 246.467 58.9971 245.62C58.2087 244.772 57.8145 243.437 57.8145 241.614C57.8145 240.342 57.958 239.381 58.2451 238.729C58.5368 238.073 58.8695 237.601 59.2432 237.314C59.6169 237.027 60.0999 236.801 60.6924 236.637C61.2848 236.473 62.3945 236.371 64.0215 236.33C64.5228 236.316 64.9443 236.284 65.2861 236.234ZM64.7871 243.022C64.7871 242.197 64.5 241.488 63.9258 240.896C63.3516 240.304 62.6702 240.007 61.8818 240.007C61.098 240.007 60.4189 240.304 59.8447 240.896C59.2705 241.488 58.9834 242.197 58.9834 243.022C58.9834 243.842 59.2591 244.542 59.8105 245.121C60.3665 245.695 61.057 245.982 61.8818 245.982C62.7113 245.982 63.4017 245.695 63.9531 245.121C64.5091 244.542 64.7871 243.842 64.7871 243.022ZM68.5879 245.196C68.8203 245.196 69.0186 245.278 69.1826 245.442C69.3467 245.606 69.4287 245.806 69.4287 246.043C69.4287 246.276 69.3467 246.476 69.1826 246.645C69.0186 246.809 68.8203 246.891 68.5879 246.891C68.3555 246.891 68.1572 246.809 67.9932 246.645C67.8291 246.476 67.7471 246.276 67.7471 246.043C67.7471 245.806 67.8291 245.606 67.9932 245.442C68.1572 245.278 68.3555 245.196 68.5879 245.196Z" fill="#333333"/>
<path d="M102.206 153.633H98.791C98.9688 152.254 99.4639 151.145 100.276 150.307C101.41 149.139 102.837 148.555 104.555 148.555C106.087 148.555 107.369 149.042 108.401 150.015C109.442 150.988 109.963 152.144 109.963 153.481C109.963 154.31 109.734 155.068 109.277 155.753C108.829 156.439 108.173 156.993 107.31 157.417C108.444 157.755 109.328 158.347 109.963 159.194C110.606 160.032 110.928 161.022 110.928 162.165C110.928 163.84 110.31 165.262 109.074 166.43C107.839 167.59 106.264 168.169 104.352 168.169C102.54 168.169 101.063 167.624 99.9209 166.532C98.7783 165.431 98.152 163.938 98.042 162.05H101.559C101.711 163.015 102.045 163.735 102.562 164.208C103.086 164.674 103.746 164.907 104.542 164.907C105.371 164.907 106.057 164.64 106.599 164.107C107.149 163.574 107.424 162.922 107.424 162.152C107.424 161.306 107.056 160.59 106.319 160.006C105.583 159.422 104.521 159.122 103.133 159.105V156.058C103.988 155.99 104.622 155.859 105.037 155.665C105.46 155.461 105.786 155.186 106.015 154.839C106.252 154.492 106.37 154.124 106.37 153.735C106.37 153.227 106.192 152.808 105.837 152.478C105.481 152.139 105.016 151.97 104.44 151.97C103.933 151.97 103.471 152.127 103.057 152.44C102.642 152.745 102.358 153.142 102.206 153.633ZM119.383 148.555L122.404 150.066L119.142 156.414C120.724 156.414 122.07 156.981 123.179 158.115C124.287 159.249 124.842 160.658 124.842 162.342C124.842 163.967 124.271 165.347 123.128 166.481C121.994 167.607 120.623 168.169 119.015 168.169C117.33 168.169 115.925 167.585 114.8 166.417C113.683 165.241 113.124 163.895 113.124 162.38C113.124 161.805 113.209 161.225 113.378 160.641C113.556 160.057 113.958 159.16 114.584 157.95L119.383 148.555ZM118.938 159.778C118.278 159.778 117.724 160.019 117.275 160.501C116.827 160.975 116.603 161.572 116.603 162.292C116.603 163.011 116.835 163.616 117.301 164.107C117.775 164.598 118.325 164.843 118.951 164.843C119.611 164.843 120.178 164.602 120.652 164.12C121.126 163.637 121.363 163.028 121.363 162.292C121.363 161.572 121.131 160.975 120.665 160.501C120.208 160.019 119.632 159.778 118.938 159.778ZM138.642 153.633H135.227C135.404 152.254 135.899 151.145 136.712 150.307C137.846 149.139 139.272 148.555 140.99 148.555C142.522 148.555 143.804 149.042 144.837 150.015C145.878 150.988 146.398 152.144 146.398 153.481C146.398 154.31 146.17 155.068 145.713 155.753C145.264 156.439 144.608 156.993 143.745 157.417C144.879 157.755 145.764 158.347 146.398 159.194C147.042 160.032 147.363 161.022 147.363 162.165C147.363 163.84 146.745 165.262 145.51 166.43C144.274 167.59 142.7 168.169 140.787 168.169C138.976 168.169 137.499 167.624 136.356 166.532C135.214 165.431 134.588 163.938 134.478 162.05H137.994C138.146 163.015 138.481 163.735 138.997 164.208C139.522 164.674 140.182 164.907 140.978 164.907C141.807 164.907 142.493 164.64 143.034 164.107C143.584 163.574 143.859 162.922 143.859 162.152C143.859 161.306 143.491 160.59 142.755 160.006C142.019 159.422 140.956 159.122 139.568 159.105V156.058C140.423 155.99 141.058 155.859 141.473 155.665C141.896 155.461 142.222 155.186 142.45 154.839C142.687 154.492 142.806 154.124 142.806 153.735C142.806 153.227 142.628 152.808 142.272 152.478C141.917 152.139 141.451 151.97 140.876 151.97C140.368 151.97 139.907 152.127 139.492 152.44C139.077 152.745 138.794 153.142 138.642 153.633ZM155.501 148.555C156.864 148.555 158.036 148.889 159.018 149.558C160.008 150.227 160.77 151.251 161.303 152.63C161.844 154.001 162.115 155.914 162.115 158.369C162.115 160.848 161.84 162.778 161.29 164.158C160.748 165.537 160.016 166.553 159.094 167.205C158.171 167.848 157.007 168.169 155.603 168.169C154.198 168.169 153.017 167.844 152.061 167.192C151.104 166.54 150.355 165.55 149.813 164.221C149.272 162.892 149.001 161.001 149.001 158.546C149.001 155.119 149.53 152.635 150.588 151.094C151.764 149.402 153.402 148.555 155.501 148.555ZM155.59 151.932C154.989 151.932 154.456 152.127 153.99 152.516C153.525 152.897 153.169 153.557 152.924 154.497C152.678 155.436 152.556 156.811 152.556 158.623C152.556 160.984 152.835 162.617 153.394 163.523C153.961 164.42 154.693 164.869 155.59 164.869C156.453 164.869 157.139 164.441 157.646 163.586C158.264 162.554 158.573 160.827 158.573 158.407C158.573 155.952 158.294 154.26 157.735 153.329C157.185 152.398 156.47 151.932 155.59 151.932ZM170.075 148.555C171.438 148.555 172.61 148.889 173.592 149.558C174.582 150.227 175.344 151.251 175.877 152.63C176.419 154.001 176.689 155.914 176.689 158.369C176.689 160.848 176.414 162.778 175.864 164.158C175.323 165.537 174.59 166.553 173.668 167.205C172.745 167.848 171.582 168.169 170.177 168.169C168.772 168.169 167.591 167.844 166.635 167.192C165.678 166.54 164.929 165.55 164.388 164.221C163.846 162.892 163.575 161.001 163.575 158.546C163.575 155.119 164.104 152.635 165.162 151.094C166.339 149.402 167.976 148.555 170.075 148.555ZM170.164 151.932C169.563 151.932 169.03 152.127 168.564 152.516C168.099 152.897 167.743 153.557 167.498 154.497C167.253 155.436 167.13 156.811 167.13 158.623C167.13 160.984 167.409 162.617 167.968 163.523C168.535 164.42 169.267 164.869 170.164 164.869C171.027 164.869 171.713 164.441 172.221 163.586C172.839 162.554 173.147 160.827 173.147 158.407C173.147 155.952 172.868 154.26 172.31 153.329C171.759 152.398 171.044 151.932 170.164 151.932ZM108.574 178.262H113.469V179.089H111.5V185.7H110.536V179.089H108.574V178.262ZM115.718 181.208H116.627C117.352 181.208 117.919 181.265 118.329 181.379C118.739 181.493 119.092 181.746 119.389 182.138C119.685 182.526 119.833 182.972 119.833 183.478C119.833 184.089 119.619 184.613 119.19 185.05C118.762 185.483 118.113 185.7 117.242 185.7H114.768V178.262H115.718V181.208ZM115.752 182.083V184.893H116.853C118.147 184.893 118.794 184.437 118.794 183.526C118.794 183.266 118.723 183.011 118.582 182.76C118.445 182.51 118.243 182.334 117.974 182.234C117.709 182.134 117.24 182.083 116.565 182.083H115.752ZM121.152 178.262H122.116V185.7H121.152V178.262ZM131.379 179.807L130.62 180.279C129.964 179.408 129.068 178.973 127.934 178.973C127.027 178.973 126.272 179.265 125.671 179.848C125.074 180.431 124.775 181.14 124.775 181.974C124.775 182.516 124.912 183.027 125.186 183.505C125.464 183.984 125.842 184.355 126.32 184.62C126.803 184.884 127.343 185.016 127.94 185.016C129.034 185.016 129.927 184.581 130.62 183.71L131.379 184.209C131.023 184.743 130.545 185.157 129.943 185.454C129.346 185.745 128.665 185.891 127.899 185.891C126.724 185.891 125.748 185.517 124.974 184.77C124.199 184.023 123.812 183.113 123.812 182.042C123.812 181.322 123.992 180.655 124.352 180.04C124.716 179.42 125.215 178.937 125.849 178.59C126.482 178.244 127.191 178.071 127.975 178.071C128.467 178.071 128.941 178.146 129.396 178.296C129.857 178.447 130.246 178.643 130.565 178.884C130.884 179.126 131.156 179.433 131.379 179.807ZM134.277 184.196C134.51 184.196 134.708 184.278 134.872 184.442C135.036 184.606 135.118 184.806 135.118 185.043C135.118 185.276 135.036 185.476 134.872 185.645C134.708 185.809 134.51 185.891 134.277 185.891C134.045 185.891 133.847 185.809 133.683 185.645C133.519 185.476 133.437 185.276 133.437 185.043C133.437 184.806 133.519 184.606 133.683 184.442C133.847 184.278 134.045 184.196 134.277 184.196ZM137.121 178.262H138.071V179.629C138.45 179.11 138.885 178.72 139.377 178.46C139.869 178.201 140.418 178.071 141.024 178.071C142.082 178.071 142.986 178.451 143.738 179.212C144.49 179.973 144.866 180.889 144.866 181.96C144.866 183.054 144.493 183.984 143.745 184.75C143.002 185.511 142.104 185.891 141.052 185.891C140.459 185.891 139.915 185.768 139.418 185.522C138.921 185.276 138.472 184.909 138.071 184.421V188.42H137.121V178.262ZM140.949 178.994C140.12 178.994 139.42 179.283 138.851 179.862C138.285 180.441 138.003 181.161 138.003 182.022C138.003 182.587 138.128 183.095 138.379 183.546C138.634 183.998 138.996 184.355 139.466 184.62C139.94 184.884 140.439 185.016 140.963 185.016C141.478 185.016 141.961 184.884 142.412 184.62C142.868 184.351 143.23 183.977 143.499 183.499C143.768 183.02 143.902 182.519 143.902 181.995C143.902 181.466 143.768 180.965 143.499 180.491C143.235 180.017 142.877 179.65 142.426 179.39C141.975 179.126 141.482 178.994 140.949 178.994ZM145.864 178.262H146.876L149.433 183.991L151.914 178.262H152.933L148.496 188.42H147.484L148.92 185.139L145.864 178.262ZM161.286 175.234V176.15C160.83 176.227 160.049 176.282 158.941 176.314C158.139 176.341 157.52 176.396 157.082 176.478C156.649 176.556 156.271 176.708 155.947 176.936C155.624 177.159 155.35 177.501 155.127 177.961C154.908 178.417 154.771 178.928 154.717 179.493L154.621 180.539C154.881 179.686 155.307 179.062 155.899 178.666C156.496 178.269 157.157 178.071 157.882 178.071C158.985 178.071 159.905 178.458 160.644 179.233C161.386 180.008 161.758 180.931 161.758 182.001C161.758 183.063 161.389 183.977 160.65 184.743C159.912 185.508 158.989 185.891 157.882 185.891C156.747 185.891 155.785 185.467 154.997 184.62C154.209 183.772 153.814 182.437 153.814 180.614C153.814 179.342 153.958 178.381 154.245 177.729C154.537 177.073 154.869 176.601 155.243 176.314C155.617 176.027 156.1 175.801 156.692 175.637C157.285 175.473 158.395 175.371 160.021 175.33C160.523 175.316 160.944 175.284 161.286 175.234ZM160.787 182.022C160.787 181.197 160.5 180.488 159.926 179.896C159.352 179.304 158.67 179.007 157.882 179.007C157.098 179.007 156.419 179.304 155.845 179.896C155.271 180.488 154.983 181.197 154.983 182.022C154.983 182.842 155.259 183.542 155.811 184.121C156.367 184.695 157.057 184.982 157.882 184.982C158.711 184.982 159.402 184.695 159.953 184.121C160.509 183.542 160.787 182.842 160.787 182.022ZM164.588 184.196C164.82 184.196 165.019 184.278 165.183 184.442C165.347 184.606 165.429 184.806 165.429 185.043C165.429 185.276 165.347 185.476 165.183 185.645C165.019 185.809 164.82 185.891 164.588 185.891C164.355 185.891 164.157 185.809 163.993 185.645C163.829 185.476 163.747 185.276 163.747 185.043C163.747 184.806 163.829 184.606 163.993 184.442C164.157 184.278 164.355 184.196 164.588 184.196Z" fill="#333333"/>
<path d="M195.546 179.025H200.865V197.7H197.336V182.364H193.489L195.546 179.025ZM216.95 187.582C217.797 188.123 218.448 188.821 218.905 189.676C219.371 190.523 219.604 191.441 219.604 192.431C219.604 193.506 219.333 194.5 218.791 195.415C218.258 196.329 217.538 197.018 216.633 197.484C215.727 197.941 214.572 198.169 213.167 198.169C211.66 198.169 210.463 197.949 209.574 197.509C208.686 197.061 207.975 196.388 207.441 195.491C206.908 194.585 206.642 193.565 206.642 192.431C206.642 191.449 206.853 190.556 207.276 189.752C207.708 188.94 208.351 188.216 209.206 187.582C208.647 187.014 208.224 186.414 207.937 185.779C207.657 185.136 207.518 184.458 207.518 183.748C207.518 182.774 207.75 181.89 208.216 181.094C208.69 180.29 209.35 179.668 210.196 179.228C211.043 178.779 212.02 178.555 213.129 178.555C214.221 178.555 215.181 178.779 216.011 179.228C216.84 179.677 217.492 180.316 217.966 181.145C218.448 181.966 218.689 182.85 218.689 183.798C218.689 184.467 218.562 185.089 218.309 185.665C218.063 186.232 217.61 186.871 216.95 187.582ZM213.015 181.983C212.431 181.983 211.948 182.178 211.567 182.567C211.195 182.948 211.009 183.439 211.009 184.04C211.009 184.64 211.208 185.144 211.605 185.55C212.003 185.957 212.494 186.16 213.078 186.16C213.679 186.16 214.17 185.961 214.551 185.563C214.94 185.165 215.135 184.649 215.135 184.014C215.135 183.413 214.94 182.927 214.551 182.554C214.161 182.173 213.649 181.983 213.015 181.983ZM213.154 189.473C212.299 189.473 211.58 189.736 210.996 190.26C210.412 190.777 210.12 191.394 210.12 192.114C210.12 192.867 210.395 193.506 210.945 194.031C211.495 194.547 212.219 194.805 213.116 194.805C214.022 194.805 214.741 194.564 215.274 194.082C215.816 193.591 216.087 192.96 216.087 192.19C216.087 191.42 215.808 190.777 215.249 190.26C214.69 189.736 213.992 189.473 213.154 189.473ZM235.244 178.555L238.266 180.066L235.003 186.414C236.586 186.414 237.931 186.981 239.04 188.115C240.149 189.249 240.703 190.658 240.703 192.342C240.703 193.967 240.132 195.347 238.989 196.481C237.855 197.607 236.484 198.169 234.876 198.169C233.192 198.169 231.787 197.585 230.661 196.417C229.544 195.241 228.985 193.895 228.985 192.38C228.985 191.805 229.07 191.225 229.239 190.641C229.417 190.057 229.819 189.16 230.445 187.95L235.244 178.555ZM234.8 189.778C234.14 189.778 233.585 190.019 233.137 190.501C232.688 190.975 232.464 191.572 232.464 192.292C232.464 193.011 232.697 193.616 233.162 194.107C233.636 194.598 234.186 194.843 234.812 194.843C235.473 194.843 236.04 194.602 236.514 194.12C236.988 193.637 237.225 193.028 237.225 192.292C237.225 191.572 236.992 190.975 236.526 190.501C236.069 190.019 235.494 189.778 234.8 189.778ZM249.501 178.555C250.864 178.555 252.036 178.889 253.018 179.558C254.008 180.227 254.77 181.251 255.303 182.63C255.844 184.001 256.115 185.914 256.115 188.369C256.115 190.848 255.84 192.778 255.29 194.158C254.748 195.537 254.016 196.553 253.094 197.205C252.171 197.848 251.007 198.169 249.603 198.169C248.198 198.169 247.017 197.844 246.061 197.192C245.104 196.54 244.355 195.55 243.813 194.221C243.272 192.892 243.001 191.001 243.001 188.546C243.001 185.119 243.53 182.635 244.588 181.094C245.764 179.402 247.402 178.555 249.501 178.555ZM249.59 181.932C248.989 181.932 248.456 182.127 247.99 182.516C247.525 182.897 247.169 183.557 246.924 184.497C246.678 185.436 246.556 186.811 246.556 188.623C246.556 190.984 246.835 192.617 247.394 193.523C247.961 194.42 248.693 194.869 249.59 194.869C250.453 194.869 251.139 194.441 251.646 193.586C252.264 192.554 252.573 190.827 252.573 188.407C252.573 185.952 252.294 184.26 251.735 183.329C251.185 182.398 250.47 181.932 249.59 181.932ZM264.075 178.555C265.438 178.555 266.61 178.889 267.592 179.558C268.582 180.227 269.344 181.251 269.877 182.63C270.419 184.001 270.689 185.914 270.689 188.369C270.689 190.848 270.414 192.778 269.864 194.158C269.323 195.537 268.59 196.553 267.668 197.205C266.745 197.848 265.582 198.169 264.177 198.169C262.772 198.169 261.591 197.844 260.635 197.192C259.678 196.54 258.929 195.55 258.388 194.221C257.846 192.892 257.575 191.001 257.575 188.546C257.575 185.119 258.104 182.635 259.162 181.094C260.339 179.402 261.976 178.555 264.075 178.555ZM264.164 181.932C263.563 181.932 263.03 182.127 262.564 182.516C262.099 182.897 261.743 183.557 261.498 184.497C261.253 185.436 261.13 186.811 261.13 188.623C261.13 190.984 261.409 192.617 261.968 193.523C262.535 194.42 263.267 194.869 264.164 194.869C265.027 194.869 265.713 194.441 266.221 193.586C266.839 192.554 267.147 190.827 267.147 188.407C267.147 185.952 266.868 184.26 266.31 183.329C265.759 182.398 265.044 181.932 264.164 181.932ZM210.729 215.7H203.777V208.262H204.741V214.797H209.062V208.262H210.025V214.797H211.632V216.875H210.729V215.7ZM219.186 213.232L219.992 213.656C219.728 214.175 219.423 214.595 219.076 214.914C218.73 215.233 218.34 215.476 217.907 215.645C217.474 215.809 216.984 215.891 216.438 215.891C215.225 215.891 214.277 215.495 213.594 214.702C212.91 213.904 212.568 213.004 212.568 212.001C212.568 211.058 212.858 210.217 213.437 209.479C214.17 208.54 215.152 208.071 216.383 208.071C217.65 208.071 218.661 208.552 219.418 209.513C219.956 210.192 220.229 211.04 220.238 212.056H213.553C213.571 212.922 213.847 213.633 214.38 214.189C214.913 214.74 215.572 215.016 216.355 215.016C216.734 215.016 217.101 214.95 217.456 214.818C217.816 214.686 218.121 214.51 218.372 214.292C218.623 214.073 218.894 213.72 219.186 213.232ZM219.186 211.229C219.058 210.719 218.871 210.311 218.625 210.005C218.383 209.7 218.062 209.454 217.661 209.267C217.26 209.08 216.839 208.987 216.396 208.987C215.667 208.987 215.041 209.222 214.517 209.691C214.134 210.033 213.844 210.545 213.648 211.229H219.186ZM227.313 212.118H222.993V215.7H222.029V208.262H222.993V211.215H227.313V208.262H228.271V215.7H227.313V212.118ZM229.576 208.262H234.471V209.089H232.502V215.7H231.538V209.089H229.576V208.262ZM235.783 208.262H236.733V209.629C237.112 209.11 237.547 208.72 238.039 208.46C238.531 208.201 239.08 208.071 239.687 208.071C240.744 208.071 241.648 208.451 242.4 209.212C243.152 209.973 243.528 210.889 243.528 211.96C243.528 213.054 243.155 213.984 242.407 214.75C241.664 215.511 240.767 215.891 239.714 215.891C239.121 215.891 238.577 215.768 238.08 215.522C237.583 215.276 237.134 214.909 236.733 214.421V218.42H235.783V208.262ZM239.611 208.994C238.782 208.994 238.082 209.283 237.513 209.862C236.948 210.441 236.665 211.161 236.665 212.022C236.665 212.587 236.79 213.095 237.041 213.546C237.296 213.998 237.659 214.355 238.128 214.62C238.602 214.884 239.101 215.016 239.625 215.016C240.14 215.016 240.623 214.884 241.074 214.62C241.53 214.351 241.892 213.977 242.161 213.499C242.43 213.02 242.564 212.519 242.564 211.995C242.564 211.466 242.43 210.965 242.161 210.491C241.897 210.017 241.539 209.65 241.088 209.39C240.637 209.126 240.145 208.994 239.611 208.994ZM248.847 208.071C249.991 208.071 250.938 208.486 251.69 209.315C252.374 210.071 252.716 210.967 252.716 212.001C252.716 213.041 252.354 213.95 251.629 214.729C250.909 215.504 249.981 215.891 248.847 215.891C247.707 215.891 246.775 215.504 246.051 214.729C245.331 213.95 244.971 213.041 244.971 212.001C244.971 210.972 245.312 210.078 245.996 209.322C246.748 208.488 247.698 208.071 248.847 208.071ZM248.847 209.007C248.054 209.007 247.372 209.301 246.803 209.889C246.233 210.477 245.948 211.188 245.948 212.022C245.948 212.56 246.078 213.061 246.338 213.526C246.598 213.991 246.949 214.351 247.391 214.606C247.833 214.857 248.318 214.982 248.847 214.982C249.375 214.982 249.861 214.857 250.303 214.606C250.745 214.351 251.096 213.991 251.355 213.526C251.615 213.061 251.745 212.56 251.745 212.022C251.745 211.188 251.458 210.477 250.884 209.889C250.314 209.301 249.635 209.007 248.847 209.007ZM256.66 215.7H254.5V208.262H256.626C257.437 208.262 258.021 208.449 258.376 208.823C258.736 209.196 258.916 209.634 258.916 210.135C258.916 210.892 258.583 211.404 257.918 211.673C258.884 212.015 259.367 212.674 259.367 213.649C259.367 215.016 258.465 215.7 256.66 215.7ZM255.464 209.089V211.414H256.086C256.651 211.414 257.02 211.391 257.193 211.345C257.367 211.3 257.528 211.188 257.679 211.01C257.834 210.828 257.911 210.589 257.911 210.292C257.911 209.983 257.831 209.723 257.672 209.513C257.512 209.304 257.344 209.181 257.166 209.144C256.993 209.108 256.633 209.089 256.086 209.089H255.464ZM255.464 212.289V214.893H256.489C256.972 214.893 257.316 214.863 257.521 214.804C257.731 214.74 257.909 214.606 258.055 214.401C258.205 214.196 258.28 213.936 258.28 213.622C258.28 213.216 258.153 212.892 257.897 212.651C257.642 212.409 257.305 212.289 256.886 212.289H255.464Z" fill="#333333"/>
<path d="M297.376 17.5815C298.222 18.1232 298.874 18.8215 299.331 19.6763C299.797 20.5226 300.029 21.4409 300.029 22.4312C300.029 23.506 299.758 24.5005 299.217 25.4146C298.684 26.3286 297.964 27.0184 297.059 27.4839C296.153 27.9409 294.998 28.1694 293.593 28.1694C292.086 28.1694 290.889 27.9494 290 27.5093C289.111 27.0607 288.4 26.3879 287.867 25.4907C287.334 24.5851 287.067 23.5653 287.067 22.4312C287.067 21.4494 287.279 20.5565 287.702 19.7524C288.134 18.9399 288.777 18.2163 289.632 17.5815C289.073 17.0145 288.65 16.4136 288.362 15.7788C288.083 15.1356 287.943 14.4585 287.943 13.7476C287.943 12.7743 288.176 11.8898 288.642 11.0942C289.116 10.2902 289.776 9.66813 290.622 9.22803C291.468 8.77946 292.446 8.55518 293.555 8.55518C294.646 8.55518 295.607 8.77946 296.437 9.22803C297.266 9.6766 297.918 10.3156 298.392 11.145C298.874 11.966 299.115 12.8504 299.115 13.7983C299.115 14.467 298.988 15.089 298.734 15.6646C298.489 16.2316 298.036 16.8706 297.376 17.5815ZM293.44 11.9829C292.856 11.9829 292.374 12.1776 291.993 12.5669C291.621 12.9478 291.435 13.4386 291.435 14.0396C291.435 14.6405 291.633 15.144 292.031 15.5503C292.429 15.9565 292.92 16.1597 293.504 16.1597C294.105 16.1597 294.596 15.9608 294.977 15.563C295.366 15.1652 295.561 14.6489 295.561 14.0142C295.561 13.4132 295.366 12.9266 294.977 12.5542C294.587 12.1733 294.075 11.9829 293.44 11.9829ZM293.58 19.4731C292.725 19.4731 292.006 19.7355 291.422 20.2603C290.838 20.7765 290.546 21.3944 290.546 22.1138C290.546 22.867 290.821 23.506 291.371 24.0308C291.921 24.547 292.645 24.8052 293.542 24.8052C294.448 24.8052 295.167 24.564 295.7 24.0815C296.242 23.5907 296.513 22.9601 296.513 22.1899C296.513 21.4198 296.233 20.7765 295.675 20.2603C295.116 19.7355 294.418 19.4731 293.58 19.4731ZM305.374 15.0425H301.908C302.001 13.0282 302.632 11.4455 303.8 10.2944C304.976 9.13493 306.483 8.55518 308.319 8.55518C309.453 8.55518 310.452 8.79639 311.315 9.27881C312.187 9.75277 312.881 10.4425 313.397 11.3481C313.922 12.2453 314.185 13.1593 314.185 14.0903C314.185 15.1991 313.867 16.3924 313.232 17.6704C312.606 18.9484 311.455 20.4591 309.779 22.2026L307.685 24.4116H314.337V27.6997H301.4V25.9985L307.177 20.1079C308.573 18.6945 309.5 17.5604 309.957 16.7056C310.423 15.8423 310.655 15.0636 310.655 14.3696C310.655 13.6502 310.414 13.0578 309.932 12.5923C309.458 12.1183 308.844 11.8813 308.091 11.8813C307.329 11.8813 306.694 12.1649 306.187 12.7319C305.679 13.299 305.408 14.0692 305.374 15.0425ZM329.927 8.55518C331.289 8.55518 332.462 8.88949 333.443 9.55811C334.434 10.2267 335.195 11.2508 335.729 12.6304C336.27 14.0015 336.541 15.9142 336.541 18.3687C336.541 20.8485 336.266 22.7782 335.716 24.1577C335.174 25.5373 334.442 26.5529 333.52 27.2046C332.597 27.8478 331.433 28.1694 330.028 28.1694C328.623 28.1694 327.443 27.8436 326.486 27.1919C325.53 26.5402 324.781 25.55 324.239 24.2212C323.698 22.8924 323.427 21.0008 323.427 18.5464C323.427 15.1187 323.956 12.6346 325.014 11.0942C326.19 9.40153 327.828 8.55518 329.927 8.55518ZM330.016 11.9321C329.415 11.9321 328.882 12.1268 328.416 12.5161C327.951 12.897 327.595 13.5571 327.35 14.4966C327.104 15.436 326.981 16.8114 326.981 18.6226C326.981 20.9839 327.261 22.6174 327.819 23.5229C328.386 24.4201 329.118 24.8687 330.016 24.8687C330.879 24.8687 331.564 24.4412 332.072 23.5864C332.69 22.5539 332.999 20.8273 332.999 18.4067C332.999 15.9523 332.72 14.2596 332.161 13.3286C331.611 12.3976 330.896 11.9321 330.016 11.9321ZM344.501 8.55518C345.864 8.55518 347.036 8.88949 348.018 9.55811C349.008 10.2267 349.77 11.2508 350.303 12.6304C350.844 14.0015 351.115 15.9142 351.115 18.3687C351.115 20.8485 350.84 22.7782 350.29 24.1577C349.748 25.5373 349.016 26.5529 348.094 27.2046C347.171 27.8478 346.007 28.1694 344.603 28.1694C343.198 28.1694 342.017 27.8436 341.061 27.1919C340.104 26.5402 339.355 25.55 338.813 24.2212C338.272 22.8924 338.001 21.0008 338.001 18.5464C338.001 15.1187 338.53 12.6346 339.588 11.0942C340.764 9.40153 342.402 8.55518 344.501 8.55518ZM344.59 11.9321C343.989 11.9321 343.456 12.1268 342.99 12.5161C342.525 12.897 342.169 13.5571 341.924 14.4966C341.678 15.436 341.556 16.8114 341.556 18.6226C341.556 20.9839 341.835 22.6174 342.394 23.5229C342.961 24.4201 343.693 24.8687 344.59 24.8687C345.453 24.8687 346.139 24.4412 346.646 23.5864C347.264 22.5539 347.573 20.8273 347.573 18.4067C347.573 15.9523 347.294 14.2596 346.735 13.3286C346.185 12.3976 345.47 11.9321 344.59 11.9321ZM359.075 8.55518C360.438 8.55518 361.61 8.88949 362.592 9.55811C363.582 10.2267 364.344 11.2508 364.877 12.6304C365.419 14.0015 365.689 15.9142 365.689 18.3687C365.689 20.8485 365.414 22.7782 364.864 24.1577C364.323 25.5373 363.59 26.5529 362.668 27.2046C361.745 27.8478 360.582 28.1694 359.177 28.1694C357.772 28.1694 356.591 27.8436 355.635 27.1919C354.678 26.5402 353.929 25.55 353.388 24.2212C352.846 22.8924 352.575 21.0008 352.575 18.5464C352.575 15.1187 353.104 12.6346 354.162 11.0942C355.339 9.40153 356.976 8.55518 359.075 8.55518ZM359.164 11.9321C358.563 11.9321 358.03 12.1268 357.564 12.5161C357.099 12.897 356.743 13.5571 356.498 14.4966C356.253 15.436 356.13 16.8114 356.13 18.6226C356.13 20.9839 356.409 22.6174 356.968 23.5229C357.535 24.4201 358.267 24.8687 359.164 24.8687C360.027 24.8687 360.713 24.4412 361.221 23.5864C361.839 22.5539 362.147 20.8273 362.147 18.4067C362.147 15.9523 361.868 14.2596 361.31 13.3286C360.759 12.3976 360.044 11.9321 359.164 11.9321ZM305.729 45.6997H298.777V38.2622H299.741V44.7974H304.062V38.2622H305.025V44.7974H306.632V46.8755H305.729V45.6997ZM314.186 43.2319L314.992 43.6558C314.728 44.1753 314.423 44.5946 314.076 44.9136C313.73 45.2326 313.34 45.4764 312.907 45.645C312.474 45.8091 311.984 45.8911 311.438 45.8911C310.225 45.8911 309.277 45.4946 308.594 44.7017C307.91 43.9041 307.568 43.0041 307.568 42.0015C307.568 41.0581 307.858 40.2173 308.437 39.479C309.17 38.5402 310.152 38.0708 311.383 38.0708C312.65 38.0708 313.661 38.5516 314.418 39.5132C314.956 40.1922 315.229 41.0399 315.238 42.0562H308.553C308.571 42.922 308.847 43.633 309.38 44.189C309.913 44.7404 310.572 45.0161 311.355 45.0161C311.734 45.0161 312.101 44.95 312.456 44.8179C312.816 44.6857 313.121 44.5103 313.372 44.2915C313.623 44.0728 313.894 43.7196 314.186 43.2319ZM314.186 41.229C314.058 40.7186 313.871 40.3107 313.625 40.0054C313.383 39.7 313.062 39.4539 312.661 39.2671C312.26 39.0802 311.839 38.9868 311.396 38.9868C310.667 38.9868 310.041 39.2215 309.517 39.6909C309.134 40.0327 308.844 40.5454 308.648 41.229H314.186ZM322.313 42.1177H317.993V45.6997H317.029V38.2622H317.993V41.2153H322.313V38.2622H323.271V45.6997H322.313V42.1177ZM324.576 38.2622H329.471V39.0894H327.502V45.6997H326.538V39.0894H324.576V38.2622ZM330.783 38.2622H331.733V39.6294C332.112 39.1099 332.547 38.7202 333.039 38.4604C333.531 38.2007 334.08 38.0708 334.687 38.0708C335.744 38.0708 336.648 38.4513 337.4 39.2124C338.152 39.9735 338.528 40.8895 338.528 41.9604C338.528 43.0542 338.155 43.9839 337.407 44.7495C336.664 45.5106 335.767 45.8911 334.714 45.8911C334.121 45.8911 333.577 45.7681 333.08 45.522C332.583 45.2759 332.134 44.909 331.733 44.4214V48.4204H330.783V38.2622ZM334.611 38.9937C333.782 38.9937 333.082 39.283 332.513 39.8618C331.948 40.4406 331.665 41.1606 331.665 42.022C331.665 42.5871 331.79 43.0952 332.041 43.5464C332.296 43.9976 332.659 44.3553 333.128 44.6196C333.602 44.884 334.101 45.0161 334.625 45.0161C335.14 45.0161 335.623 44.884 336.074 44.6196C336.53 44.3507 336.892 43.9771 337.161 43.4985C337.43 43.02 337.564 42.5187 337.564 41.9946C337.564 41.466 337.43 40.9647 337.161 40.4907C336.897 40.0168 336.539 39.6499 336.088 39.3901C335.637 39.1258 335.145 38.9937 334.611 38.9937ZM343.847 38.0708C344.991 38.0708 345.938 38.4855 346.69 39.3149C347.374 40.0715 347.716 40.967 347.716 42.0015C347.716 43.0405 347.354 43.9497 346.629 44.729C345.909 45.5037 344.981 45.8911 343.847 45.8911C342.707 45.8911 341.775 45.5037 341.051 44.729C340.331 43.9497 339.971 43.0405 339.971 42.0015C339.971 40.9715 340.312 40.0783 340.996 39.3218C341.748 38.4878 342.698 38.0708 343.847 38.0708ZM343.847 39.0073C343.054 39.0073 342.372 39.3013 341.803 39.8892C341.233 40.4771 340.948 41.188 340.948 42.022C340.948 42.5597 341.078 43.061 341.338 43.5259C341.598 43.9907 341.949 44.3507 342.391 44.606C342.833 44.8566 343.318 44.9819 343.847 44.9819C344.375 44.9819 344.861 44.8566 345.303 44.606C345.745 44.3507 346.096 43.9907 346.355 43.5259C346.615 43.061 346.745 42.5597 346.745 42.022C346.745 41.188 346.458 40.4771 345.884 39.8892C345.314 39.3013 344.635 39.0073 343.847 39.0073ZM351.66 45.6997H349.5V38.2622H351.626C352.437 38.2622 353.021 38.4491 353.376 38.8228C353.736 39.1965 353.916 39.634 353.916 40.1353C353.916 40.8918 353.583 41.4045 352.918 41.6733C353.884 42.0151 354.367 42.6737 354.367 43.6489C354.367 45.0161 353.465 45.6997 351.66 45.6997ZM350.464 39.0894V41.4136H351.086C351.651 41.4136 352.02 41.3908 352.193 41.3452C352.367 41.2996 352.528 41.188 352.679 41.0103C352.834 40.828 352.911 40.5887 352.911 40.2925C352.911 39.9826 352.831 39.7228 352.672 39.5132C352.512 39.3035 352.344 39.1805 352.166 39.144C351.993 39.1076 351.633 39.0894 351.086 39.0894H350.464ZM350.464 42.2886V44.8931H351.489C351.972 44.8931 352.316 44.8634 352.521 44.8042C352.731 44.7404 352.909 44.606 353.055 44.4009C353.205 44.1958 353.28 43.936 353.28 43.6216C353.28 43.216 353.153 42.8924 352.897 42.6509C352.642 42.4093 352.305 42.2886 351.886 42.2886H350.464Z" fill="#333333"/>
<rect x="291.847" y="60.6997" width="71" height="242" fill="#8BD40A"/>
<rect x="291.847" y="60.6997" width="71" height="242" fill="url(#paint3_linear_88_673)"/>
<defs>
<linearGradient id="paint0_linear_88_673" x1="45.8467" y1="256.7" x2="45.8467" y2="287.117" gradientUnits="userSpaceOnUse">
<stop stop-color="#FAE316"/>
<stop offset="1" stop-color="#8BD40A"/>
</linearGradient>
<linearGradient id="paint1_linear_88_673" x1="139.347" y1="198.7" x2="139.347" y2="267.469" gradientUnits="userSpaceOnUse">
<stop stop-color="#FAE316"/>
<stop offset="1" stop-color="#8BD40A"/>
</linearGradient>
<linearGradient id="paint2_linear_88_673" x1="233.347" y1="232.7" x2="233.347" y2="278.987" gradientUnits="userSpaceOnUse">
<stop stop-color="#FAE316"/>
<stop offset="1" stop-color="#8BD40A"/>
</linearGradient>
<linearGradient id="paint3_linear_88_673" x1="327.347" y1="60.6997" x2="327.347" y2="220.721" gradientUnits="userSpaceOnUse">
<stop stop-color="#FAE316"/>
<stop offset="1" stop-color="#8BD40A"/>
</linearGradient>
</defs>
</svg>
