<svg width="382" height="380" viewBox="0 0 382 380" fill="none" xmlns="http://www.w3.org/2000/svg">
<path d="M342.847 192.7C342.847 216.372 337.244 239.707 326.498 260.799C315.751 281.89 300.165 300.139 281.014 314.053C261.864 327.967 239.692 337.15 216.312 340.853C192.932 344.556 169.007 342.674 146.494 335.359L192.847 192.7H342.847Z" fill="#8BD40A"/>
<path d="M146.954 45.8933C169.49 38.6508 193.421 36.8449 216.789 40.6231C240.157 44.4013 262.299 53.6565 281.405 67.6318C300.511 81.6071 316.038 99.9058 326.717 121.032C337.396 142.158 342.923 165.511 342.847 189.183L192.847 188.7L146.954 45.8933Z" fill="#FEE30A"/>
<path d="M142.737 333.437C112.594 323.7 86.3073 304.67 67.6444 279.075C48.9815 253.479 38.9006 222.633 38.8466 190.956C38.7926 159.279 48.7682 128.398 67.3436 102.739C85.9191 77.0804 112.141 57.9608 142.251 48.1207L188.846 190.7L142.737 333.437Z" fill="#60C3D4"/>
<path d="M229.026 226.634H225.611C225.789 225.254 226.284 224.146 227.097 223.308C228.231 222.14 229.657 221.556 231.375 221.556C232.907 221.556 234.189 222.042 235.222 223.016C236.263 223.989 236.783 225.144 236.783 226.481C236.783 227.311 236.555 228.068 236.098 228.754C235.649 229.439 234.993 229.994 234.13 230.417C235.264 230.756 236.148 231.348 236.783 232.194C237.426 233.032 237.748 234.022 237.748 235.165C237.748 236.841 237.13 238.263 235.895 239.431C234.659 240.59 233.085 241.17 231.172 241.17C229.361 241.17 227.884 240.624 226.741 239.532C225.599 238.432 224.972 236.938 224.862 235.051H228.379C228.531 236.016 228.866 236.735 229.382 237.209C229.907 237.674 230.567 237.907 231.362 237.907C232.192 237.907 232.877 237.641 233.419 237.107C233.969 236.574 234.244 235.923 234.244 235.152C234.244 234.306 233.876 233.591 233.14 233.007C232.403 232.423 231.341 232.122 229.953 232.105V229.059C230.808 228.991 231.443 228.86 231.857 228.665C232.281 228.462 232.606 228.187 232.835 227.84C233.072 227.493 233.19 227.125 233.19 226.735C233.19 226.228 233.013 225.809 232.657 225.479C232.302 225.14 231.836 224.971 231.261 224.971C230.753 224.971 230.292 225.127 229.877 225.44C229.462 225.745 229.179 226.143 229.026 226.634ZM245.886 221.556C247.248 221.556 248.421 221.89 249.402 222.559C250.393 223.227 251.154 224.251 251.688 225.631C252.229 227.002 252.5 228.915 252.5 231.369C252.5 233.849 252.225 235.779 251.675 237.158C251.133 238.538 250.401 239.553 249.479 240.205C248.556 240.848 247.392 241.17 245.987 241.17C244.582 241.17 243.402 240.844 242.445 240.192C241.489 239.541 240.74 238.55 240.198 237.222C239.657 235.893 239.386 234.001 239.386 231.547C239.386 228.119 239.915 225.635 240.973 224.095C242.149 222.402 243.787 221.556 245.886 221.556ZM245.975 224.933C245.374 224.933 244.84 225.127 244.375 225.517C243.91 225.897 243.554 226.558 243.309 227.497C243.063 228.437 242.94 229.812 242.94 231.623C242.94 233.984 243.22 235.618 243.778 236.523C244.345 237.421 245.077 237.869 245.975 237.869C246.838 237.869 247.523 237.442 248.031 236.587C248.649 235.554 248.958 233.828 248.958 231.407C248.958 228.953 248.679 227.26 248.12 226.329C247.57 225.398 246.855 224.933 245.975 224.933ZM270.4 221.2H272.965L258.162 241.97H255.598L268.255 224.133C267.493 224.26 266.778 224.357 266.109 224.425C265.441 224.484 264.823 224.514 264.256 224.514C263.672 224.514 263.054 224.484 262.402 224.425C262.589 225.017 262.682 225.555 262.682 226.037C262.682 227.273 262.25 228.322 261.387 229.186C260.532 230.049 259.487 230.48 258.251 230.48C257.007 230.48 255.949 230.049 255.077 229.186C254.205 228.322 253.77 227.277 253.77 226.05C253.77 225.254 253.964 224.518 254.354 223.841C254.743 223.155 255.289 222.605 255.991 222.19C256.702 221.767 257.405 221.556 258.099 221.556C258.623 221.556 259.347 221.657 260.27 221.86C261.903 222.216 263.342 222.394 264.586 222.394C265.712 222.394 266.757 222.296 267.722 222.102C268.695 221.898 269.588 221.598 270.4 221.2ZM258.226 223.879C257.633 223.879 257.125 224.09 256.702 224.514C256.287 224.928 256.08 225.428 256.08 226.012C256.08 226.604 256.287 227.112 256.702 227.535C257.125 227.95 257.633 228.157 258.226 228.157C258.818 228.157 259.322 227.95 259.736 227.535C260.16 227.112 260.371 226.604 260.371 226.012C260.371 225.419 260.16 224.916 259.736 224.501C259.322 224.086 258.818 223.879 258.226 223.879ZM270.604 232.283C271.831 232.283 272.88 232.719 273.752 233.591C274.624 234.463 275.06 235.516 275.06 236.752C275.06 237.979 274.624 239.029 273.752 239.9C272.88 240.772 271.831 241.208 270.604 241.208C269.368 241.208 268.314 240.772 267.442 239.9C266.579 239.029 266.147 237.979 266.147 236.752C266.147 235.516 266.579 234.463 267.442 233.591C268.314 232.719 269.368 232.283 270.604 232.283ZM270.591 234.581C269.99 234.581 269.478 234.793 269.055 235.216C268.64 235.639 268.433 236.147 268.433 236.739C268.433 237.332 268.64 237.84 269.055 238.263C269.478 238.686 269.99 238.897 270.591 238.897C271.183 238.897 271.687 238.686 272.102 238.263C272.525 237.84 272.736 237.332 272.736 236.739C272.736 236.147 272.525 235.639 272.102 235.216C271.687 234.793 271.183 234.581 270.591 234.581Z" fill="#333333"/>
<path d="M229.026 110.634H225.611C225.789 109.254 226.284 108.146 227.097 107.308C228.231 106.14 229.657 105.556 231.375 105.556C232.907 105.556 234.189 106.042 235.222 107.016C236.263 107.989 236.783 109.144 236.783 110.481C236.783 111.311 236.555 112.068 236.098 112.754C235.649 113.439 234.993 113.994 234.13 114.417C235.264 114.756 236.148 115.348 236.783 116.194C237.426 117.032 237.748 118.022 237.748 119.165C237.748 120.841 237.13 122.263 235.895 123.431C234.659 124.59 233.085 125.17 231.172 125.17C229.361 125.17 227.884 124.624 226.741 123.532C225.599 122.432 224.972 120.938 224.862 119.051H228.379C228.531 120.016 228.866 120.735 229.382 121.209C229.907 121.674 230.567 121.907 231.362 121.907C232.192 121.907 232.877 121.641 233.419 121.107C233.969 120.574 234.244 119.923 234.244 119.152C234.244 118.306 233.876 117.591 233.14 117.007C232.403 116.423 231.341 116.122 229.953 116.105V113.059C230.808 112.991 231.443 112.86 231.857 112.665C232.281 112.462 232.606 112.187 232.835 111.84C233.072 111.493 233.19 111.125 233.19 110.735C233.19 110.228 233.013 109.809 232.657 109.479C232.302 109.14 231.836 108.971 231.261 108.971C230.753 108.971 230.292 109.127 229.877 109.44C229.462 109.745 229.179 110.143 229.026 110.634ZM245.886 105.556C247.248 105.556 248.421 105.89 249.402 106.559C250.393 107.227 251.154 108.251 251.688 109.631C252.229 111.002 252.5 112.915 252.5 115.369C252.5 117.849 252.225 119.779 251.675 121.158C251.133 122.538 250.401 123.553 249.479 124.205C248.556 124.848 247.392 125.17 245.987 125.17C244.582 125.17 243.402 124.844 242.445 124.192C241.489 123.541 240.74 122.55 240.198 121.222C239.657 119.893 239.386 118.001 239.386 115.547C239.386 112.119 239.915 109.635 240.973 108.095C242.149 106.402 243.787 105.556 245.886 105.556ZM245.975 108.933C245.374 108.933 244.84 109.127 244.375 109.517C243.91 109.897 243.554 110.558 243.309 111.497C243.063 112.437 242.94 113.812 242.94 115.623C242.94 117.984 243.22 119.618 243.778 120.523C244.345 121.421 245.077 121.869 245.975 121.869C246.838 121.869 247.523 121.442 248.031 120.587C248.649 119.554 248.958 117.828 248.958 115.407C248.958 112.953 248.679 111.26 248.12 110.329C247.57 109.398 246.855 108.933 245.975 108.933ZM270.4 105.2H272.965L258.162 125.97H255.598L268.255 108.133C267.493 108.26 266.778 108.357 266.109 108.425C265.441 108.484 264.823 108.514 264.256 108.514C263.672 108.514 263.054 108.484 262.402 108.425C262.589 109.017 262.682 109.555 262.682 110.037C262.682 111.273 262.25 112.322 261.387 113.186C260.532 114.049 259.487 114.48 258.251 114.48C257.007 114.48 255.949 114.049 255.077 113.186C254.205 112.322 253.77 111.277 253.77 110.05C253.77 109.254 253.964 108.518 254.354 107.841C254.743 107.155 255.289 106.605 255.991 106.19C256.702 105.767 257.405 105.556 258.099 105.556C258.623 105.556 259.347 105.657 260.27 105.86C261.903 106.216 263.342 106.394 264.586 106.394C265.712 106.394 266.757 106.296 267.722 106.102C268.695 105.898 269.588 105.598 270.4 105.2ZM258.226 107.879C257.633 107.879 257.125 108.09 256.702 108.514C256.287 108.928 256.08 109.428 256.08 110.012C256.08 110.604 256.287 111.112 256.702 111.535C257.125 111.95 257.633 112.157 258.226 112.157C258.818 112.157 259.322 111.95 259.736 111.535C260.16 111.112 260.371 110.604 260.371 110.012C260.371 109.419 260.16 108.916 259.736 108.501C259.322 108.086 258.818 107.879 258.226 107.879ZM270.604 116.283C271.831 116.283 272.88 116.719 273.752 117.591C274.624 118.463 275.06 119.516 275.06 120.752C275.06 121.979 274.624 123.029 273.752 123.9C272.88 124.772 271.831 125.208 270.604 125.208C269.368 125.208 268.314 124.772 267.442 123.9C266.579 123.029 266.147 121.979 266.147 120.752C266.147 119.516 266.579 118.463 267.442 117.591C268.314 116.719 269.368 116.283 270.604 116.283ZM270.591 118.581C269.99 118.581 269.478 118.793 269.055 119.216C268.64 119.639 268.433 120.147 268.433 120.739C268.433 121.332 268.64 121.84 269.055 122.263C269.478 122.686 269.99 122.897 270.591 122.897C271.183 122.897 271.687 122.686 272.102 122.263C272.525 121.84 272.736 121.332 272.736 120.739C272.736 120.147 272.525 119.639 272.102 119.216C271.687 118.793 271.183 118.581 270.591 118.581Z" fill="#333333"/>
<path d="M101.695 172.556H105.25V184.578H106.913V187.866H105.25V191.7H101.771V187.866H93.6211V184.578L101.695 172.556ZM101.771 184.578V178.319L97.5059 184.578H101.771ZM114.886 172.556C116.248 172.556 117.421 172.89 118.402 173.559C119.393 174.227 120.154 175.251 120.688 176.631C121.229 178.002 121.5 179.915 121.5 182.369C121.5 184.849 121.225 186.779 120.675 188.158C120.133 189.538 119.401 190.553 118.479 191.205C117.556 191.848 116.392 192.17 114.987 192.17C113.582 192.17 112.402 191.844 111.445 191.192C110.489 190.541 109.74 189.55 109.198 188.222C108.657 186.893 108.386 185.001 108.386 182.547C108.386 179.119 108.915 176.635 109.973 175.095C111.149 173.402 112.787 172.556 114.886 172.556ZM114.975 175.933C114.374 175.933 113.84 176.127 113.375 176.517C112.91 176.897 112.554 177.558 112.309 178.497C112.063 179.437 111.94 180.812 111.94 182.623C111.94 184.984 112.22 186.618 112.778 187.523C113.345 188.421 114.077 188.869 114.975 188.869C115.838 188.869 116.523 188.442 117.031 187.587C117.649 186.554 117.958 184.828 117.958 182.407C117.958 179.953 117.679 178.26 117.12 177.329C116.57 176.398 115.855 175.933 114.975 175.933ZM139.4 172.2H141.965L127.162 192.97H124.598L137.255 175.133C136.493 175.26 135.778 175.357 135.109 175.425C134.441 175.484 133.823 175.514 133.256 175.514C132.672 175.514 132.054 175.484 131.402 175.425C131.589 176.017 131.682 176.555 131.682 177.037C131.682 178.273 131.25 179.322 130.387 180.186C129.532 181.049 128.487 181.48 127.251 181.48C126.007 181.48 124.949 181.049 124.077 180.186C123.205 179.322 122.77 178.277 122.77 177.05C122.77 176.254 122.964 175.518 123.354 174.841C123.743 174.155 124.289 173.605 124.991 173.19C125.702 172.767 126.405 172.556 127.099 172.556C127.623 172.556 128.347 172.657 129.27 172.86C130.903 173.216 132.342 173.394 133.586 173.394C134.712 173.394 135.757 173.296 136.722 173.102C137.695 172.898 138.588 172.598 139.4 172.2ZM127.226 174.879C126.633 174.879 126.125 175.09 125.702 175.514C125.287 175.928 125.08 176.428 125.08 177.012C125.08 177.604 125.287 178.112 125.702 178.535C126.125 178.95 126.633 179.157 127.226 179.157C127.818 179.157 128.322 178.95 128.736 178.535C129.16 178.112 129.371 177.604 129.371 177.012C129.371 176.419 129.16 175.916 128.736 175.501C128.322 175.086 127.818 174.879 127.226 174.879ZM139.604 183.283C140.831 183.283 141.88 183.719 142.752 184.591C143.624 185.463 144.06 186.516 144.06 187.752C144.06 188.979 143.624 190.029 142.752 190.9C141.88 191.772 140.831 192.208 139.604 192.208C138.368 192.208 137.314 191.772 136.442 190.9C135.579 190.029 135.147 188.979 135.147 187.752C135.147 186.516 135.579 185.463 136.442 184.591C137.314 183.719 138.368 183.283 139.604 183.283ZM139.591 185.581C138.99 185.581 138.478 185.793 138.055 186.216C137.64 186.639 137.433 187.147 137.433 187.739C137.433 188.332 137.64 188.84 138.055 189.263C138.478 189.686 138.99 189.897 139.591 189.897C140.183 189.897 140.687 189.686 141.102 189.263C141.525 188.84 141.736 188.332 141.736 187.739C141.736 187.147 141.525 186.639 141.102 186.216C140.687 185.793 140.183 185.581 139.591 185.581Z" fill="#333333"/>
<path d="M221.15 262.887L224.021 256.263H224.521L227.371 262.887H228.267V264.65H227.344V263.7H221.191V264.691H220.248V262.887H221.15ZM224.254 257.739L222.08 262.887H226.339L224.254 257.739ZM235.827 261.232L236.634 261.656C236.369 262.176 236.064 262.595 235.718 262.914C235.371 263.233 234.982 263.477 234.549 263.646C234.116 263.81 233.626 263.892 233.079 263.892C231.867 263.892 230.919 263.495 230.235 262.702C229.552 261.905 229.21 261.005 229.21 260.002C229.21 259.059 229.499 258.218 230.078 257.479C230.812 256.541 231.794 256.071 233.024 256.071C234.291 256.071 235.303 256.552 236.06 257.514C236.597 258.193 236.871 259.04 236.88 260.057H230.194C230.213 260.923 230.488 261.633 231.021 262.189C231.555 262.741 232.213 263.017 232.997 263.017C233.375 263.017 233.742 262.951 234.098 262.818C234.458 262.686 234.763 262.511 235.014 262.292C235.264 262.073 235.535 261.72 235.827 261.232ZM235.827 259.229C235.7 258.719 235.513 258.311 235.267 258.006C235.025 257.701 234.704 257.454 234.303 257.268C233.902 257.081 233.48 256.987 233.038 256.987C232.309 256.987 231.682 257.222 231.158 257.691C230.775 258.033 230.486 258.546 230.29 259.229H235.827ZM237.837 256.263H242.731V257.09H240.763V263.7H239.799V257.09H237.837V256.263ZM251.249 257.808L250.49 258.279C249.834 257.409 248.938 256.974 247.804 256.974C246.897 256.974 246.143 257.265 245.541 257.849C244.944 258.432 244.646 259.141 244.646 259.975C244.646 260.517 244.782 261.027 245.056 261.506C245.334 261.984 245.712 262.356 246.19 262.62C246.674 262.884 247.214 263.017 247.811 263.017C248.904 263.017 249.798 262.581 250.49 261.711L251.249 262.21C250.894 262.743 250.415 263.158 249.813 263.454C249.216 263.746 248.535 263.892 247.77 263.892C246.594 263.892 245.618 263.518 244.844 262.771C244.069 262.023 243.682 261.114 243.682 260.043C243.682 259.323 243.862 258.655 244.222 258.04C244.586 257.42 245.085 256.937 245.719 256.591C246.352 256.244 247.061 256.071 247.845 256.071C248.337 256.071 248.811 256.146 249.267 256.297C249.727 256.447 250.117 256.643 250.436 256.885C250.755 257.126 251.026 257.434 251.249 257.808ZM253.095 256.263H254.059V259.394L257.497 256.263H258.83L255.063 259.667L259.131 263.7H257.777L254.359 260.262L254.059 260.528V263.7H253.095V256.263ZM261.079 256.263V261.766L266.541 256.263H266.616V263.7H265.659V258.245L260.238 263.7H260.122V256.263H261.079ZM275.011 261.232L275.817 261.656C275.553 262.176 275.248 262.595 274.901 262.914C274.555 263.233 274.165 263.477 273.732 263.646C273.299 263.81 272.81 263.892 272.263 263.892C271.05 263.892 270.103 263.495 269.419 262.702C268.735 261.905 268.394 261.005 268.394 260.002C268.394 259.059 268.683 258.218 269.262 257.479C269.995 256.541 270.978 256.071 272.208 256.071C273.475 256.071 274.487 256.552 275.243 257.514C275.781 258.193 276.054 259.04 276.063 260.057H269.378C269.396 260.923 269.672 261.633 270.205 262.189C270.738 262.741 271.397 263.017 272.181 263.017C272.559 263.017 272.926 262.951 273.281 262.818C273.641 262.686 273.947 262.511 274.197 262.292C274.448 262.073 274.719 261.72 275.011 261.232ZM275.011 259.229C274.883 258.719 274.696 258.311 274.45 258.006C274.209 257.701 273.887 257.454 273.486 257.268C273.085 257.081 272.664 256.987 272.222 256.987C271.493 256.987 270.866 257.222 270.342 257.691C269.959 258.033 269.67 258.546 269.474 259.229H275.011ZM214.13 274.263H220.371V281.7H219.414V275.165H215.087V281.7H214.13V274.263ZM222.524 274.263H223.475V275.63C223.853 275.11 224.288 274.721 224.78 274.461C225.272 274.201 225.822 274.071 226.428 274.071C227.485 274.071 228.39 274.452 229.142 275.213C229.894 275.974 230.27 276.89 230.27 277.961C230.27 279.055 229.896 279.984 229.148 280.75C228.406 281.511 227.508 281.892 226.455 281.892C225.863 281.892 225.318 281.769 224.821 281.522C224.325 281.276 223.876 280.91 223.475 280.422V284.421H222.524V274.263ZM226.353 274.994C225.523 274.994 224.824 275.284 224.254 275.862C223.689 276.441 223.406 277.161 223.406 278.022C223.406 278.588 223.532 279.096 223.782 279.547C224.037 279.998 224.4 280.356 224.869 280.62C225.343 280.884 225.842 281.017 226.366 281.017C226.881 281.017 227.364 280.884 227.815 280.62C228.271 280.351 228.633 279.978 228.902 279.499C229.171 279.021 229.306 278.519 229.306 277.995C229.306 277.466 229.171 276.965 228.902 276.491C228.638 276.017 228.28 275.65 227.829 275.391C227.378 275.126 226.886 274.994 226.353 274.994ZM239.478 274.263V281.7H238.534V280.422C238.133 280.91 237.682 281.276 237.181 281.522C236.684 281.769 236.139 281.892 235.547 281.892C234.494 281.892 233.594 281.511 232.847 280.75C232.104 279.984 231.732 279.055 231.732 277.961C231.732 276.89 232.108 275.974 232.86 275.213C233.612 274.452 234.517 274.071 235.574 274.071C236.185 274.071 236.736 274.201 237.229 274.461C237.725 274.721 238.16 275.11 238.534 275.63V274.263H239.478ZM235.649 274.994C235.116 274.994 234.624 275.126 234.173 275.391C233.722 275.65 233.362 276.017 233.093 276.491C232.828 276.965 232.696 277.466 232.696 277.995C232.696 278.519 232.831 279.021 233.1 279.499C233.368 279.978 233.729 280.351 234.18 280.62C234.635 280.884 235.123 281.017 235.643 281.017C236.167 281.017 236.663 280.884 237.133 280.62C237.602 280.356 237.962 279.998 238.213 279.547C238.468 279.096 238.596 278.588 238.596 278.022C238.596 277.161 238.311 276.441 237.741 275.862C237.176 275.284 236.479 274.994 235.649 274.994ZM242.882 277.394H243.381C243.7 277.394 243.992 277.289 244.256 277.079C244.525 276.869 244.659 276.569 244.659 276.177C244.659 275.844 244.552 275.559 244.338 275.322C244.124 275.081 243.796 274.96 243.354 274.96C242.839 274.96 242.321 275.16 241.802 275.562L241.262 274.898C241.932 274.338 242.643 274.058 243.395 274.058C244.014 274.058 244.534 274.242 244.953 274.611C245.372 274.98 245.582 275.457 245.582 276.04C245.582 276.815 245.24 277.341 244.557 277.619C245.45 277.993 245.896 278.647 245.896 279.581C245.896 280.174 245.687 280.709 245.268 281.188C244.853 281.661 244.231 281.898 243.401 281.898C242.385 281.898 241.567 281.568 240.947 280.907L241.549 280.224C242.009 280.743 242.599 281.003 243.319 281.003C243.802 281.003 244.181 280.873 244.454 280.613C244.732 280.354 244.871 280.012 244.871 279.588C244.871 279.173 244.732 278.84 244.454 278.59C244.176 278.339 243.848 278.214 243.47 278.214H242.882V277.394ZM247.619 280.887L250.49 274.263H250.989L253.84 280.887H254.735V282.65H253.812V281.7H247.66V282.691H246.717V280.887H247.619ZM250.723 275.739L248.549 280.887H252.808L250.723 275.739ZM261.318 278.118H256.998V281.7H256.034V274.263H256.998V277.216H261.318V274.263H262.275V281.7H261.318V278.118ZM265.372 274.263V279.766L270.834 274.263H270.909V281.7H269.952V276.245L264.531 281.7H264.415V274.263H265.372ZM273.042 274.263H274.006V277.394L277.444 274.263H278.777L275.011 277.667L279.078 281.7H277.725L274.307 278.262L274.006 278.528V281.7H273.042V274.263ZM281.026 274.263V279.766L286.488 274.263H286.563V281.7H285.606V276.245L280.186 281.7H280.069V274.263H281.026Z" fill="#333333"/>
<path d="M228.987 140.263H229.951V143.394L233.39 140.263H234.723L230.956 143.667L235.023 147.7H233.67L230.252 144.262L229.951 144.528V147.7H228.987V140.263ZM243.425 140.263V147.7H242.481V146.422C242.08 146.91 241.629 147.276 241.128 147.522C240.631 147.769 240.087 147.892 239.494 147.892C238.441 147.892 237.541 147.511 236.794 146.75C236.051 145.984 235.68 145.055 235.68 143.961C235.68 142.89 236.056 141.974 236.808 141.213C237.56 140.452 238.464 140.071 239.521 140.071C240.132 140.071 240.684 140.201 241.176 140.461C241.673 140.721 242.108 141.11 242.481 141.63V140.263H243.425ZM239.597 140.994C239.063 140.994 238.571 141.126 238.12 141.391C237.669 141.65 237.309 142.017 237.04 142.491C236.776 142.965 236.644 143.466 236.644 143.995C236.644 144.519 236.778 145.021 237.047 145.499C237.316 145.978 237.676 146.351 238.127 146.62C238.583 146.884 239.07 147.017 239.59 147.017C240.114 147.017 240.611 146.884 241.08 146.62C241.549 146.356 241.91 145.998 242.16 145.547C242.415 145.096 242.543 144.588 242.543 144.022C242.543 143.161 242.258 142.441 241.688 141.862C241.123 141.284 240.426 140.994 239.597 140.994ZM251.621 137.392H252.571V141.384C253.168 140.536 254.027 140.112 255.148 140.112C256.229 140.112 257.133 140.479 257.862 141.213C258.596 141.947 258.963 142.888 258.963 144.036C258.963 145.171 258.594 146.103 257.855 146.832C257.117 147.561 256.224 147.926 255.176 147.926C254.027 147.926 253.159 147.479 252.571 146.586V150.421H251.621V146.586C251.042 147.484 250.167 147.933 248.996 147.933C247.966 147.933 247.08 147.568 246.337 146.839C245.599 146.11 245.229 145.175 245.229 144.036C245.229 142.888 245.594 141.947 246.323 141.213C247.057 140.479 247.964 140.112 249.044 140.112C250.188 140.112 251.047 140.536 251.621 141.384V137.392ZM252.544 144.159C252.544 145.048 252.797 145.745 253.303 146.251C253.809 146.757 254.39 147.01 255.046 147.01C255.939 147.01 256.655 146.714 257.192 146.121C257.73 145.529 257.999 144.815 257.999 143.981C257.999 143.12 257.714 142.405 257.145 141.835C256.579 141.265 255.9 140.98 255.107 140.98C254.392 140.98 253.786 141.236 253.289 141.746C252.792 142.252 252.544 143.056 252.544 144.159ZM246.193 143.988C246.193 144.818 246.46 145.529 246.993 146.121C247.531 146.714 248.249 147.01 249.146 147.01C249.456 147.01 249.789 146.932 250.145 146.777C250.5 146.618 250.785 146.42 250.999 146.183C251.218 145.941 251.382 145.663 251.491 145.349C251.601 145.034 251.655 144.574 251.655 143.968C251.655 143.002 251.405 142.263 250.903 141.753C250.402 141.238 249.796 140.98 249.085 140.98C248.287 140.98 247.606 141.265 247.041 141.835C246.476 142.405 246.193 143.122 246.193 143.988ZM266.995 145.232L267.802 145.656C267.537 146.176 267.232 146.595 266.886 146.914C266.539 147.233 266.15 147.477 265.717 147.646C265.284 147.81 264.794 147.892 264.247 147.892C263.035 147.892 262.087 147.495 261.403 146.702C260.72 145.905 260.378 145.005 260.378 144.002C260.378 143.059 260.667 142.218 261.246 141.479C261.98 140.541 262.962 140.071 264.192 140.071C265.459 140.071 266.471 140.552 267.228 141.514C267.765 142.193 268.039 143.04 268.048 144.057H261.362C261.381 144.923 261.656 145.633 262.189 146.189C262.723 146.741 263.381 147.017 264.165 147.017C264.543 147.017 264.91 146.951 265.266 146.818C265.626 146.686 265.931 146.511 266.182 146.292C266.432 146.073 266.703 145.72 266.995 145.232ZM266.995 143.229C266.868 142.719 266.681 142.311 266.435 142.006C266.193 141.701 265.872 141.454 265.471 141.268C265.07 141.081 264.648 140.987 264.206 140.987C263.477 140.987 262.85 141.222 262.326 141.691C261.943 142.033 261.654 142.546 261.458 143.229H266.995Z" fill="#333333"/>
<path d="M85.3496 208.808L84.5908 209.279C83.9346 208.409 83.0391 207.974 81.9043 207.974C80.9974 207.974 80.2432 208.265 79.6416 208.849C79.0446 209.432 78.7461 210.141 78.7461 210.975C78.7461 211.517 78.8828 212.027 79.1562 212.506C79.4342 212.984 79.8125 213.356 80.291 213.62C80.7741 213.884 81.3141 214.017 81.9111 214.017C83.0049 214.017 83.8981 213.581 84.5908 212.711L85.3496 213.21C84.9941 213.743 84.5156 214.158 83.9141 214.454C83.3171 214.746 82.6357 214.892 81.8701 214.892C80.6943 214.892 79.7191 214.518 78.9443 213.771C78.1696 213.023 77.7822 212.114 77.7822 211.043C77.7822 210.323 77.9622 209.655 78.3223 209.04C78.6868 208.42 79.1859 207.937 79.8193 207.591C80.4528 207.244 81.1615 207.071 81.9453 207.071C82.4375 207.071 82.9115 207.146 83.3672 207.297C83.8275 207.447 84.2171 207.643 84.5361 207.885C84.8551 208.126 85.1263 208.434 85.3496 208.808ZM89.3555 214.7H87.1953V207.263H89.3213C90.1325 207.263 90.7158 207.45 91.0713 207.823C91.4313 208.197 91.6113 208.634 91.6113 209.136C91.6113 209.892 91.2786 210.405 90.6133 210.674C91.5794 211.016 92.0625 211.674 92.0625 212.649C92.0625 214.017 91.1602 214.7 89.3555 214.7ZM88.1592 208.09V210.414H88.7812C89.3464 210.414 89.7155 210.391 89.8887 210.346C90.0618 210.3 90.2236 210.188 90.374 210.011C90.529 209.828 90.6064 209.589 90.6064 209.293C90.6064 208.983 90.5267 208.723 90.3672 208.514C90.2077 208.304 90.0391 208.181 89.8613 208.145C89.6882 208.108 89.3281 208.09 88.7812 208.09H88.1592ZM88.1592 211.289V213.894H89.1846C89.6676 213.894 90.0117 213.864 90.2168 213.805C90.4264 213.741 90.6042 213.606 90.75 213.401C90.9004 213.196 90.9756 212.937 90.9756 212.622C90.9756 212.216 90.848 211.893 90.5928 211.651C90.3376 211.41 90.0003 211.289 89.5811 211.289H88.1592ZM97.2646 207.071C98.4085 207.071 99.3564 207.486 100.108 208.315C100.792 209.072 101.134 209.967 101.134 211.002C101.134 212.041 100.771 212.95 100.047 213.729C99.3268 214.504 98.3994 214.892 97.2646 214.892C96.1253 214.892 95.1934 214.504 94.4688 213.729C93.7487 212.95 93.3887 212.041 93.3887 211.002C93.3887 209.972 93.7305 209.079 94.4141 208.322C95.166 207.488 96.1162 207.071 97.2646 207.071ZM97.2646 208.008C96.4717 208.008 95.7904 208.302 95.2207 208.89C94.651 209.478 94.3662 210.188 94.3662 211.022C94.3662 211.56 94.4961 212.062 94.7559 212.526C95.0156 212.991 95.3665 213.351 95.8086 213.606C96.2507 213.857 96.736 213.982 97.2646 213.982C97.7933 213.982 98.2786 213.857 98.7207 213.606C99.1628 213.351 99.5137 212.991 99.7734 212.526C100.033 212.062 100.163 211.56 100.163 211.022C100.163 210.188 99.876 209.478 99.3018 208.89C98.7321 208.302 98.0531 208.008 97.2646 208.008ZM110.034 204.234V205.15C109.578 205.228 108.797 205.283 107.689 205.314C106.887 205.342 106.268 205.396 105.83 205.479C105.397 205.556 105.019 205.709 104.695 205.937C104.372 206.16 104.098 206.502 103.875 206.962C103.656 207.418 103.52 207.928 103.465 208.493L103.369 209.539C103.629 208.687 104.055 208.062 104.647 207.666C105.244 207.27 105.905 207.071 106.63 207.071C107.733 207.071 108.653 207.459 109.392 208.233C110.134 209.008 110.506 209.931 110.506 211.002C110.506 212.064 110.137 212.978 109.398 213.743C108.66 214.509 107.737 214.892 106.63 214.892C105.495 214.892 104.534 214.468 103.745 213.62C102.957 212.772 102.562 211.437 102.562 209.614C102.562 208.343 102.706 207.381 102.993 206.729C103.285 206.073 103.618 205.602 103.991 205.314C104.365 205.027 104.848 204.802 105.44 204.638C106.033 204.474 107.143 204.371 108.77 204.33C109.271 204.316 109.692 204.285 110.034 204.234ZM109.535 211.022C109.535 210.198 109.248 209.489 108.674 208.896C108.1 208.304 107.418 208.008 106.63 208.008C105.846 208.008 105.167 208.304 104.593 208.896C104.019 209.489 103.731 210.198 103.731 211.022C103.731 211.843 104.007 212.542 104.559 213.121C105.115 213.695 105.805 213.982 106.63 213.982C107.459 213.982 108.15 213.695 108.701 213.121C109.257 212.542 109.535 211.843 109.535 211.022ZM115.804 207.071C116.948 207.071 117.896 207.486 118.647 208.315C119.331 209.072 119.673 209.967 119.673 211.002C119.673 212.041 119.311 212.95 118.586 213.729C117.866 214.504 116.938 214.892 115.804 214.892C114.664 214.892 113.732 214.504 113.008 213.729C112.288 212.95 111.928 212.041 111.928 211.002C111.928 209.972 112.27 209.079 112.953 208.322C113.705 207.488 114.655 207.071 115.804 207.071ZM115.804 208.008C115.011 208.008 114.329 208.302 113.76 208.89C113.19 209.478 112.905 210.188 112.905 211.022C112.905 211.56 113.035 212.062 113.295 212.526C113.555 212.991 113.906 213.351 114.348 213.606C114.79 213.857 115.275 213.982 115.804 213.982C116.332 213.982 116.818 213.857 117.26 213.606C117.702 213.351 118.053 212.991 118.312 212.526C118.572 212.062 118.702 211.56 118.702 211.022C118.702 210.188 118.415 209.478 117.841 208.89C117.271 208.302 116.592 208.008 115.804 208.008ZM121.519 213.887L124.39 207.263H124.889L127.739 213.887H128.635V215.65H127.712V214.7H121.56V215.691H120.616V213.887H121.519ZM124.622 208.739L122.448 213.887H126.707L124.622 208.739ZM135.218 211.118H130.897V214.7H129.934V207.263H130.897V210.216H135.218V207.263H136.175V214.7H135.218V211.118ZM139.265 210.209H140.174C140.898 210.209 141.466 210.266 141.876 210.38C142.286 210.494 142.639 210.747 142.936 211.139C143.232 211.526 143.38 211.973 143.38 212.479C143.38 213.089 143.166 213.613 142.737 214.051C142.309 214.484 141.66 214.7 140.789 214.7H138.314V207.263H139.265V210.209ZM139.299 211.084V213.894H140.399C141.694 213.894 142.341 213.438 142.341 212.526C142.341 212.267 142.27 212.011 142.129 211.761C141.992 211.51 141.789 211.335 141.521 211.234C141.256 211.134 140.787 211.084 140.112 211.084H139.299ZM144.699 207.263H145.663V214.7H144.699V207.263ZM153.969 212.232L154.775 212.656C154.511 213.176 154.206 213.595 153.859 213.914C153.513 214.233 153.123 214.477 152.69 214.646C152.257 214.81 151.768 214.892 151.221 214.892C150.008 214.892 149.061 214.495 148.377 213.702C147.693 212.905 147.352 212.005 147.352 211.002C147.352 210.059 147.641 209.218 148.22 208.479C148.953 207.541 149.936 207.071 151.166 207.071C152.433 207.071 153.445 207.552 154.201 208.514C154.739 209.193 155.012 210.04 155.021 211.057H148.336C148.354 211.923 148.63 212.633 149.163 213.189C149.696 213.741 150.355 214.017 151.139 214.017C151.517 214.017 151.884 213.951 152.239 213.818C152.599 213.686 152.905 213.511 153.155 213.292C153.406 213.073 153.677 212.72 153.969 212.232ZM153.969 210.229C153.841 209.719 153.654 209.311 153.408 209.006C153.167 208.701 152.845 208.454 152.444 208.268C152.043 208.081 151.622 207.987 151.18 207.987C150.451 207.987 149.824 208.222 149.3 208.691C148.917 209.033 148.628 209.546 148.432 210.229H153.969ZM78.3701 225.263H84.6113V232.7H83.6543V226.165H79.3271V232.7H78.3701V225.263ZM90.2715 225.071C91.4154 225.071 92.3633 225.486 93.1152 226.315C93.7988 227.072 94.1406 227.967 94.1406 229.002C94.1406 230.041 93.7783 230.95 93.0537 231.729C92.3337 232.504 91.4062 232.892 90.2715 232.892C89.1322 232.892 88.2002 232.504 87.4756 231.729C86.7555 230.95 86.3955 230.041 86.3955 229.002C86.3955 227.972 86.7373 227.079 87.4209 226.322C88.1729 225.488 89.123 225.071 90.2715 225.071ZM90.2715 226.008C89.4785 226.008 88.7972 226.302 88.2275 226.89C87.6579 227.478 87.373 228.188 87.373 229.022C87.373 229.56 87.5029 230.062 87.7627 230.526C88.0225 230.991 88.3734 231.351 88.8154 231.606C89.2575 231.857 89.7428 231.982 90.2715 231.982C90.8001 231.982 91.2855 231.857 91.7275 231.606C92.1696 231.351 92.5205 230.991 92.7803 230.526C93.04 230.062 93.1699 229.56 93.1699 229.022C93.1699 228.188 92.8828 227.478 92.3086 226.89C91.7389 226.302 91.0599 226.008 90.2715 226.008ZM103.144 226.808L102.385 227.279C101.729 226.409 100.833 225.974 99.6982 225.974C98.7913 225.974 98.0371 226.265 97.4355 226.849C96.8385 227.432 96.54 228.141 96.54 228.975C96.54 229.517 96.6768 230.027 96.9502 230.506C97.2282 230.984 97.6064 231.356 98.085 231.62C98.568 231.884 99.1081 232.017 99.7051 232.017C100.799 232.017 101.692 231.581 102.385 230.711L103.144 231.21C102.788 231.743 102.31 232.158 101.708 232.454C101.111 232.746 100.43 232.892 99.6641 232.892C98.4883 232.892 97.513 232.518 96.7383 231.771C95.9635 231.023 95.5762 230.114 95.5762 229.043C95.5762 228.323 95.7562 227.655 96.1162 227.04C96.4808 226.42 96.9798 225.937 97.6133 225.591C98.2467 225.244 98.9554 225.071 99.7393 225.071C100.231 225.071 100.705 225.146 101.161 225.297C101.621 225.447 102.011 225.643 102.33 225.885C102.649 226.126 102.92 226.434 103.144 226.808ZM111.251 230.232L112.058 230.656C111.793 231.176 111.488 231.595 111.142 231.914C110.795 232.233 110.406 232.477 109.973 232.646C109.54 232.81 109.05 232.892 108.503 232.892C107.291 232.892 106.343 232.495 105.659 231.702C104.976 230.905 104.634 230.005 104.634 229.002C104.634 228.059 104.923 227.218 105.502 226.479C106.236 225.541 107.218 225.071 108.448 225.071C109.715 225.071 110.727 225.552 111.483 226.514C112.021 227.193 112.295 228.04 112.304 229.057H105.618C105.636 229.923 105.912 230.633 106.445 231.189C106.979 231.741 107.637 232.017 108.421 232.017C108.799 232.017 109.166 231.951 109.521 231.818C109.882 231.686 110.187 231.511 110.438 231.292C110.688 231.073 110.959 230.72 111.251 230.232ZM111.251 228.229C111.123 227.719 110.937 227.311 110.69 227.006C110.449 226.701 110.128 226.454 109.727 226.268C109.326 226.081 108.904 225.987 108.462 225.987C107.733 225.987 107.106 226.222 106.582 226.691C106.199 227.033 105.91 227.546 105.714 228.229H111.251ZM125.914 232.7H114.095V225.263H115.059V231.798H119.16V225.263H120.131V231.798H124.232V225.263H125.21V231.798H126.823V233.876H125.914V232.7ZM134.37 230.232L135.177 230.656C134.912 231.176 134.607 231.595 134.261 231.914C133.914 232.233 133.525 232.477 133.092 232.646C132.659 232.81 132.169 232.892 131.622 232.892C130.41 232.892 129.462 232.495 128.778 231.702C128.095 230.905 127.753 230.005 127.753 229.002C127.753 228.059 128.042 227.218 128.621 226.479C129.355 225.541 130.337 225.071 131.567 225.071C132.834 225.071 133.846 225.552 134.603 226.514C135.14 227.193 135.414 228.04 135.423 229.057H128.737C128.756 229.923 129.031 230.633 129.564 231.189C130.098 231.741 130.756 232.017 131.54 232.017C131.918 232.017 132.285 231.951 132.641 231.818C133.001 231.686 133.306 231.511 133.557 231.292C133.807 231.073 134.078 230.72 134.37 230.232ZM134.37 228.229C134.243 227.719 134.056 227.311 133.81 227.006C133.568 226.701 133.247 226.454 132.846 226.268C132.445 226.081 132.023 225.987 131.581 225.987C130.852 225.987 130.225 226.222 129.701 226.691C129.318 227.033 129.029 227.546 128.833 228.229H134.37ZM142.498 229.118H138.178V232.7H137.214V225.263H138.178V228.216H142.498V225.263H143.455V232.7H142.498V229.118ZM146.552 225.263V230.766L152.014 225.263H152.089V232.7H151.132V227.245L145.711 232.7H145.595V225.263H146.552ZM157.359 229.371H156.676L154.557 232.7H153.524L155.76 229.275C155.204 229.207 154.753 228.997 154.406 228.646C154.06 228.291 153.887 227.851 153.887 227.327C153.887 226.671 154.085 226.163 154.481 225.803C154.882 225.443 155.407 225.263 156.054 225.263H158.316V232.7H157.359V229.371ZM157.359 226.09H156.73C156.12 226.09 155.71 226.129 155.5 226.206C155.29 226.284 155.124 226.418 155.001 226.609C154.878 226.796 154.816 227.049 154.816 227.368C154.816 227.674 154.896 227.926 155.056 228.127C155.215 228.323 155.393 228.444 155.589 228.489C155.785 228.535 156.165 228.558 156.73 228.558H157.359V226.09Z" fill="#333333"/>
</svg>
