<svg width="353" height="343" viewBox="0 0 353 343" fill="none" xmlns="http://www.w3.org/2000/svg">
<rect x="0.000488281" y="228" width="72" height="74" fill="#8BD40A"/>
<rect x="0.000488281" y="228" width="72" height="74" fill="url(#paint0_linear_87_314)"/>
<rect x="94.0005" y="157" width="71" height="145" fill="#8BD40A"/>
<rect x="94.0005" y="157" width="71" height="145" fill="url(#paint1_linear_87_314)"/>
<rect x="188" y="105" width="71" height="197" fill="#8BD40A"/>
<rect x="188" y="105" width="71" height="197" fill="url(#paint2_linear_87_314)"/>
<path d="M31.2456 183.343H27.7798C27.8729 181.328 28.5034 179.746 29.6714 178.595C30.8478 177.435 32.3543 176.855 34.1909 176.855C35.325 176.855 36.3237 177.097 37.187 177.579C38.0588 178.053 38.7528 178.743 39.269 179.648C39.7938 180.546 40.0562 181.46 40.0562 182.391C40.0562 183.499 39.7388 184.693 39.104 185.971C38.4777 187.249 37.3267 188.759 35.6509 190.503L33.5562 192.712H40.2085V196H27.272V194.299L33.0483 188.408C34.4448 186.995 35.3716 185.861 35.8286 185.006C36.2941 184.143 36.5269 183.364 36.5269 182.67C36.5269 181.951 36.2856 181.358 35.8032 180.893C35.3293 180.419 34.7157 180.182 33.9624 180.182C33.2007 180.182 32.5659 180.465 32.0581 181.032C31.5503 181.599 31.2795 182.369 31.2456 183.343ZM16.4595 214H9.50732V206.562H10.4712V213.098H14.7915V206.562H15.7554V213.098H17.3618V215.176H16.4595V214ZM24.9155 211.532L25.7222 211.956C25.4578 212.476 25.1525 212.895 24.8062 213.214C24.4598 213.533 24.0701 213.777 23.6372 213.945C23.2043 214.109 22.7144 214.191 22.1675 214.191C20.9552 214.191 20.0073 213.795 19.3237 213.002C18.6401 212.204 18.2983 211.304 18.2983 210.302C18.2983 209.358 18.5877 208.518 19.1665 207.779C19.9002 206.84 20.8823 206.371 22.1128 206.371C23.3797 206.371 24.3914 206.852 25.1479 207.813C25.6857 208.493 25.9591 209.34 25.9683 210.356H19.2827C19.3009 211.222 19.5767 211.933 20.1099 212.489C20.6431 213.041 21.3016 213.316 22.0854 213.316C22.4637 213.316 22.8306 213.25 23.186 213.118C23.5461 212.986 23.8514 212.811 24.1021 212.592C24.3527 212.373 24.6239 212.02 24.9155 211.532ZM24.9155 209.529C24.7879 209.019 24.6011 208.611 24.355 208.306C24.1134 208 23.7922 207.754 23.3911 207.567C22.9901 207.381 22.5685 207.287 22.1265 207.287C21.3973 207.287 20.7707 207.522 20.2466 207.991C19.8638 208.333 19.5744 208.846 19.3784 209.529H24.9155ZM33.0435 210.418H28.7231V214H27.7593V206.562H28.7231V209.516H33.0435V206.562H34.0005V214H33.0435V210.418ZM35.3062 206.562H40.2007V207.39H38.2319V214H37.2681V207.39H35.3062V206.562ZM41.5132 206.562H42.4634V207.93C42.8416 207.41 43.2769 207.021 43.769 206.761C44.2612 206.501 44.8104 206.371 45.4165 206.371C46.4738 206.371 47.3784 206.752 48.1304 207.513C48.8823 208.274 49.2583 209.19 49.2583 210.261C49.2583 211.354 48.8846 212.284 48.1372 213.05C47.3944 213.811 46.4966 214.191 45.4438 214.191C44.8514 214.191 44.3068 214.068 43.8101 213.822C43.3133 213.576 42.8644 213.209 42.4634 212.722V216.721H41.5132V206.562ZM45.3413 207.294C44.5119 207.294 43.8123 207.583 43.2427 208.162C42.6776 208.741 42.395 209.461 42.395 210.322C42.395 210.887 42.5203 211.396 42.771 211.847C43.0262 212.298 43.3885 212.656 43.8579 212.92C44.3319 213.184 44.8309 213.316 45.355 213.316C45.87 213.316 46.353 213.184 46.8042 212.92C47.2599 212.651 47.6222 212.277 47.8911 211.799C48.16 211.32 48.2944 210.819 48.2944 210.295C48.2944 209.766 48.16 209.265 47.8911 208.791C47.6268 208.317 47.269 207.95 46.8179 207.69C46.3667 207.426 45.8745 207.294 45.3413 207.294ZM58.4663 206.562V214H57.5229V212.722C57.1219 213.209 56.6707 213.576 56.1694 213.822C55.6727 214.068 55.1281 214.191 54.5356 214.191C53.4829 214.191 52.5828 213.811 51.8354 213.05C51.0926 212.284 50.7212 211.354 50.7212 210.261C50.7212 209.19 51.0972 208.274 51.8491 207.513C52.6011 206.752 53.5057 206.371 54.563 206.371C55.1737 206.371 55.7251 206.501 56.2173 206.761C56.714 207.021 57.1493 207.41 57.5229 207.93V206.562H58.4663ZM54.6382 207.294C54.105 207.294 53.6128 207.426 53.1616 207.69C52.7104 207.95 52.3504 208.317 52.0815 208.791C51.8172 209.265 51.6851 209.766 51.6851 210.295C51.6851 210.819 51.8195 211.32 52.0884 211.799C52.3573 212.277 52.7173 212.651 53.1685 212.92C53.6242 213.184 54.1118 213.316 54.6313 213.316C55.1554 213.316 55.6522 213.184 56.1216 212.92C56.591 212.656 56.951 212.298 57.2017 211.847C57.4569 211.396 57.5845 210.887 57.5845 210.322C57.5845 209.461 57.2996 208.741 56.73 208.162C56.1649 207.583 55.4676 207.294 54.6382 207.294Z" fill="#333333"/>
<path d="M16.2739 331.109H15.1724C15.2036 329.974 15.5812 329.042 16.3052 328.312C17.0343 327.583 17.9328 327.219 19.0005 327.219C20.0578 327.219 20.9119 327.56 21.563 328.242C22.2192 328.924 22.5474 329.729 22.5474 330.656C22.5474 331.307 22.3911 331.919 22.0786 332.492C21.7661 333.06 21.1593 333.831 20.2583 334.805L17.3989 337.891H22.7036V339H14.8989L19.2896 334.258C20.1802 333.305 20.7583 332.599 21.0239 332.141C21.2948 331.677 21.4302 331.19 21.4302 330.68C21.4302 330.034 21.188 329.479 20.7036 329.016C20.2244 328.547 19.6359 328.312 18.938 328.312C18.2036 328.312 17.5916 328.557 17.1021 329.047C16.6177 329.536 16.3416 330.224 16.2739 331.109ZM23.8052 333.258C23.8052 331.742 23.9666 330.57 24.2896 329.742C24.6177 328.914 25.0786 328.286 25.6724 327.859C26.2661 327.432 26.9302 327.219 27.6646 327.219C28.4093 327.219 29.0838 327.435 29.688 327.867C30.2922 328.294 30.7687 328.938 31.1177 329.797C31.4718 330.656 31.6489 331.81 31.6489 333.258C31.6489 334.701 31.4744 335.849 31.1255 336.703C30.7817 337.557 30.3052 338.203 29.6958 338.641C29.0864 339.073 28.4093 339.289 27.6646 339.289C26.9302 339.289 26.2687 339.078 25.6802 338.656C25.0916 338.234 24.6307 337.607 24.2974 336.773C23.9692 335.935 23.8052 334.763 23.8052 333.258ZM24.8911 333.281C24.8911 334.578 25.0057 335.56 25.2349 336.227C25.4692 336.888 25.813 337.391 26.2661 337.734C26.7192 338.078 27.1984 338.25 27.7036 338.25C28.214 338.25 28.6906 338.083 29.1333 337.75C29.576 337.411 29.9119 336.906 30.1411 336.234C30.4276 335.417 30.5708 334.432 30.5708 333.281C30.5708 332.125 30.4432 331.18 30.188 330.445C29.9328 329.706 29.5786 329.167 29.1255 328.828C28.6776 328.484 28.2036 328.312 27.7036 328.312C27.1932 328.312 26.714 328.484 26.2661 328.828C25.8182 329.167 25.4771 329.669 25.2427 330.336C25.0083 330.997 24.8911 331.979 24.8911 333.281ZM35.1333 327.508H37.3911V339H36.2505V328.633H34.4458L35.1333 327.508ZM47.1958 332.695C47.9718 333.081 48.5265 333.521 48.8599 334.016C49.1984 334.51 49.3677 335.073 49.3677 335.703C49.3677 336.589 49.0786 337.37 48.5005 338.047C47.7922 338.875 46.7791 339.289 45.4614 339.289C44.1906 339.289 43.2271 338.927 42.5708 338.203C41.9146 337.474 41.5864 336.672 41.5864 335.797C41.5864 335.156 41.7583 334.581 42.1021 334.07C42.4458 333.555 43.0187 333.096 43.8208 332.695C43.2583 332.404 42.8364 332.042 42.5552 331.609C42.2739 331.177 42.1333 330.714 42.1333 330.219C42.1333 329.719 42.2817 329.232 42.5786 328.758C42.8807 328.279 43.2948 327.904 43.8208 327.633C44.3521 327.357 44.925 327.219 45.5396 327.219C46.1385 327.219 46.6932 327.357 47.2036 327.633C47.714 327.909 48.1125 328.284 48.3989 328.758C48.6906 329.232 48.8364 329.729 48.8364 330.25C48.8364 330.771 48.6984 331.234 48.4224 331.641C48.1515 332.047 47.7427 332.398 47.1958 332.695ZM45.4849 328.336C44.8547 328.336 44.3312 328.523 43.9146 328.898C43.5031 329.268 43.2974 329.711 43.2974 330.227C43.2974 330.737 43.5187 331.201 43.9614 331.617C44.4093 332.029 44.9302 332.234 45.5239 332.234C45.9041 332.234 46.2635 332.141 46.6021 331.953C46.9406 331.766 47.2036 331.51 47.3911 331.188C47.5838 330.859 47.6802 330.531 47.6802 330.203C47.6802 329.74 47.4927 329.312 47.1177 328.922C46.7427 328.531 46.1984 328.336 45.4849 328.336ZM45.5396 333.273C44.7479 333.273 44.0838 333.531 43.5474 334.047C43.0109 334.557 42.7427 335.154 42.7427 335.836C42.7427 336.258 42.8573 336.656 43.0864 337.031C43.3156 337.406 43.6359 337.695 44.0474 337.898C44.4588 338.102 44.9354 338.203 45.4771 338.203C46.3156 338.203 46.9823 337.956 47.4771 337.461C47.9718 336.966 48.2192 336.388 48.2192 335.727C48.2192 335.086 47.9562 334.518 47.4302 334.023C46.9093 333.523 46.2791 333.273 45.5396 333.273ZM56.6646 331.461V339H55.5786V330.5H59.8755V331.461H56.6646ZM62.563 337.281C62.8286 337.281 63.0552 337.375 63.2427 337.562C63.4302 337.75 63.5239 337.979 63.5239 338.25C63.5239 338.516 63.4302 338.745 63.2427 338.938C63.0552 339.125 62.8286 339.219 62.563 339.219C62.2974 339.219 62.0708 339.125 61.8833 338.938C61.6958 338.745 61.6021 338.516 61.6021 338.25C61.6021 337.979 61.6958 337.75 61.8833 337.562C62.0708 337.375 62.2974 337.281 62.563 337.281Z" fill="#333333"/>
<path d="M111.274 331.109H110.172C110.204 329.974 110.581 329.042 111.305 328.312C112.034 327.583 112.933 327.219 114 327.219C115.058 327.219 115.912 327.56 116.563 328.242C117.219 328.924 117.547 329.729 117.547 330.656C117.547 331.307 117.391 331.919 117.079 332.492C116.766 333.06 116.159 333.831 115.258 334.805L112.399 337.891H117.704V339H109.899L114.29 334.258C115.18 333.305 115.758 332.599 116.024 332.141C116.295 331.677 116.43 331.19 116.43 330.68C116.43 330.034 116.188 329.479 115.704 329.016C115.224 328.547 114.636 328.312 113.938 328.312C113.204 328.312 112.592 328.557 112.102 329.047C111.618 329.536 111.342 330.224 111.274 331.109ZM118.805 333.258C118.805 331.742 118.967 330.57 119.29 329.742C119.618 328.914 120.079 328.286 120.672 327.859C121.266 327.432 121.93 327.219 122.665 327.219C123.409 327.219 124.084 327.435 124.688 327.867C125.292 328.294 125.769 328.938 126.118 329.797C126.472 330.656 126.649 331.81 126.649 333.258C126.649 334.701 126.474 335.849 126.125 336.703C125.782 337.557 125.305 338.203 124.696 338.641C124.086 339.073 123.409 339.289 122.665 339.289C121.93 339.289 121.269 339.078 120.68 338.656C120.092 338.234 119.631 337.607 119.297 336.773C118.969 335.935 118.805 334.763 118.805 333.258ZM119.891 333.281C119.891 334.578 120.006 335.56 120.235 336.227C120.469 336.888 120.813 337.391 121.266 337.734C121.719 338.078 122.198 338.25 122.704 338.25C123.214 338.25 123.691 338.083 124.133 337.75C124.576 337.411 124.912 336.906 125.141 336.234C125.428 335.417 125.571 334.432 125.571 333.281C125.571 332.125 125.443 331.18 125.188 330.445C124.933 329.706 124.579 329.167 124.125 328.828C123.678 328.484 123.204 328.312 122.704 328.312C122.193 328.312 121.714 328.484 121.266 328.828C120.818 329.167 120.477 329.669 120.243 330.336C120.008 330.997 119.891 331.979 119.891 333.281ZM130.133 327.508H132.391V339H131.25V328.633H129.446L130.133 327.508ZM139.118 339.289L138.172 338.68L141.274 333.977C140.857 334.112 140.467 334.18 140.102 334.18C139.191 334.18 138.417 333.852 137.782 333.195C137.146 332.534 136.829 331.721 136.829 330.758C136.829 330.096 136.982 329.5 137.29 328.969C137.597 328.438 138.032 328.013 138.594 327.695C139.162 327.378 139.769 327.219 140.415 327.219C141.05 327.219 141.636 327.372 142.172 327.68C142.714 327.987 143.139 328.417 143.446 328.969C143.753 329.521 143.907 330.109 143.907 330.734C143.907 331.208 143.81 331.706 143.618 332.227C143.43 332.742 143.092 333.365 142.602 334.094L139.118 339.289ZM140.368 333.172C141.04 333.172 141.61 332.938 142.079 332.469C142.553 331.995 142.79 331.424 142.79 330.758C142.79 330.091 142.553 329.523 142.079 329.055C141.61 328.581 141.04 328.344 140.368 328.344C139.701 328.344 139.131 328.581 138.657 329.055C138.188 329.523 137.954 330.091 137.954 330.758C137.954 331.424 138.188 331.995 138.657 332.469C139.131 332.938 139.701 333.172 140.368 333.172ZM151.665 331.461V339H150.579V330.5H154.875V331.461H151.665ZM157.563 337.281C157.829 337.281 158.055 337.375 158.243 337.562C158.43 337.75 158.524 337.979 158.524 338.25C158.524 338.516 158.43 338.745 158.243 338.938C158.055 339.125 157.829 339.219 157.563 339.219C157.297 339.219 157.071 339.125 156.883 338.938C156.696 338.745 156.602 338.516 156.602 338.25C156.602 337.979 156.696 337.75 156.883 337.562C157.071 337.375 157.297 337.281 157.563 337.281Z" fill="#333333"/>
<path d="M200.274 331.109H199.172C199.204 329.974 199.581 329.042 200.305 328.312C201.034 327.583 201.933 327.219 203 327.219C204.058 327.219 204.912 327.56 205.563 328.242C206.219 328.924 206.547 329.729 206.547 330.656C206.547 331.307 206.391 331.919 206.079 332.492C205.766 333.06 205.159 333.831 204.258 334.805L201.399 337.891H206.704V339H198.899L203.29 334.258C204.18 333.305 204.758 332.599 205.024 332.141C205.295 331.677 205.43 331.19 205.43 330.68C205.43 330.034 205.188 329.479 204.704 329.016C204.224 328.547 203.636 328.312 202.938 328.312C202.204 328.312 201.592 328.557 201.102 329.047C200.618 329.536 200.342 330.224 200.274 331.109ZM207.805 333.258C207.805 331.742 207.967 330.57 208.29 329.742C208.618 328.914 209.079 328.286 209.672 327.859C210.266 327.432 210.93 327.219 211.665 327.219C212.409 327.219 213.084 327.435 213.688 327.867C214.292 328.294 214.769 328.938 215.118 329.797C215.472 330.656 215.649 331.81 215.649 333.258C215.649 334.701 215.474 335.849 215.125 336.703C214.782 337.557 214.305 338.203 213.696 338.641C213.086 339.073 212.409 339.289 211.665 339.289C210.93 339.289 210.269 339.078 209.68 338.656C209.092 338.234 208.631 337.607 208.297 336.773C207.969 335.935 207.805 334.763 207.805 333.258ZM208.891 333.281C208.891 334.578 209.006 335.56 209.235 336.227C209.469 336.888 209.813 337.391 210.266 337.734C210.719 338.078 211.198 338.25 211.704 338.25C212.214 338.25 212.691 338.083 213.133 337.75C213.576 337.411 213.912 336.906 214.141 336.234C214.428 335.417 214.571 334.432 214.571 333.281C214.571 332.125 214.443 331.18 214.188 330.445C213.933 329.706 213.579 329.167 213.125 328.828C212.678 328.484 212.204 328.312 211.704 328.312C211.193 328.312 210.714 328.484 210.266 328.828C209.818 329.167 209.477 329.669 209.243 330.336C209.008 330.997 208.891 331.979 208.891 333.281ZM218.024 331.109H216.922C216.954 329.974 217.331 329.042 218.055 328.312C218.784 327.583 219.683 327.219 220.75 327.219C221.808 327.219 222.662 327.56 223.313 328.242C223.969 328.924 224.297 329.729 224.297 330.656C224.297 331.307 224.141 331.919 223.829 332.492C223.516 333.06 222.909 333.831 222.008 334.805L219.149 337.891H224.454V339H216.649L221.04 334.258C221.93 333.305 222.508 332.599 222.774 332.141C223.045 331.677 223.18 331.19 223.18 330.68C223.18 330.034 222.938 329.479 222.454 329.016C221.974 328.547 221.386 328.312 220.688 328.312C219.954 328.312 219.342 328.557 218.852 329.047C218.368 329.536 218.092 330.224 218.024 331.109ZM225.555 333.258C225.555 331.742 225.717 330.57 226.04 329.742C226.368 328.914 226.829 328.286 227.422 327.859C228.016 327.432 228.68 327.219 229.415 327.219C230.159 327.219 230.834 327.435 231.438 327.867C232.042 328.294 232.519 328.938 232.868 329.797C233.222 330.656 233.399 331.81 233.399 333.258C233.399 334.701 233.224 335.849 232.875 336.703C232.532 337.557 232.055 338.203 231.446 338.641C230.836 339.073 230.159 339.289 229.415 339.289C228.68 339.289 228.019 339.078 227.43 338.656C226.842 338.234 226.381 337.607 226.047 336.773C225.719 335.935 225.555 334.763 225.555 333.258ZM226.641 333.281C226.641 334.578 226.756 335.56 226.985 336.227C227.219 336.888 227.563 337.391 228.016 337.734C228.469 338.078 228.948 338.25 229.454 338.25C229.964 338.25 230.441 338.083 230.883 337.75C231.326 337.411 231.662 336.906 231.891 336.234C232.178 335.417 232.321 334.432 232.321 333.281C232.321 332.125 232.193 331.18 231.938 330.445C231.683 329.706 231.329 329.167 230.875 328.828C230.428 328.484 229.954 328.312 229.454 328.312C228.943 328.312 228.464 328.484 228.016 328.828C227.568 329.167 227.227 329.669 226.993 330.336C226.758 330.997 226.641 331.979 226.641 333.281ZM240.665 331.461V339H239.579V330.5H243.875V331.461H240.665ZM246.563 337.281C246.829 337.281 247.055 337.375 247.243 337.562C247.43 337.75 247.524 337.979 247.524 338.25C247.524 338.516 247.43 338.745 247.243 338.938C247.055 339.125 246.829 339.219 246.563 339.219C246.297 339.219 246.071 339.125 245.883 338.938C245.696 338.745 245.602 338.516 245.602 338.25C245.602 337.979 245.696 337.75 245.883 337.562C246.071 337.375 246.297 337.281 246.563 337.281Z" fill="#333333"/>
<path d="M295.274 331.109H294.172C294.204 329.974 294.581 329.042 295.305 328.312C296.034 327.583 296.933 327.219 298 327.219C299.058 327.219 299.912 327.56 300.563 328.242C301.219 328.924 301.547 329.729 301.547 330.656C301.547 331.307 301.391 331.919 301.079 332.492C300.766 333.06 300.159 333.831 299.258 334.805L296.399 337.891H301.704V339H293.899L298.29 334.258C299.18 333.305 299.758 332.599 300.024 332.141C300.295 331.677 300.43 331.19 300.43 330.68C300.43 330.034 300.188 329.479 299.704 329.016C299.224 328.547 298.636 328.312 297.938 328.312C297.204 328.312 296.592 328.557 296.102 329.047C295.618 329.536 295.342 330.224 295.274 331.109ZM302.805 333.258C302.805 331.742 302.967 330.57 303.29 329.742C303.618 328.914 304.079 328.286 304.672 327.859C305.266 327.432 305.93 327.219 306.665 327.219C307.409 327.219 308.084 327.435 308.688 327.867C309.292 328.294 309.769 328.938 310.118 329.797C310.472 330.656 310.649 331.81 310.649 333.258C310.649 334.701 310.474 335.849 310.125 336.703C309.782 337.557 309.305 338.203 308.696 338.641C308.086 339.073 307.409 339.289 306.665 339.289C305.93 339.289 305.269 339.078 304.68 338.656C304.092 338.234 303.631 337.607 303.297 336.773C302.969 335.935 302.805 334.763 302.805 333.258ZM303.891 333.281C303.891 334.578 304.006 335.56 304.235 336.227C304.469 336.888 304.813 337.391 305.266 337.734C305.719 338.078 306.198 338.25 306.704 338.25C307.214 338.25 307.691 338.083 308.133 337.75C308.576 337.411 308.912 336.906 309.141 336.234C309.428 335.417 309.571 334.432 309.571 333.281C309.571 332.125 309.443 331.18 309.188 330.445C308.933 329.706 308.579 329.167 308.125 328.828C307.678 328.484 307.204 328.312 306.704 328.312C306.193 328.312 305.714 328.484 305.266 328.828C304.818 329.167 304.477 329.669 304.243 330.336C304.008 330.997 303.891 331.979 303.891 333.281ZM313.024 331.109H311.922C311.954 329.974 312.331 329.042 313.055 328.312C313.784 327.583 314.683 327.219 315.75 327.219C316.808 327.219 317.662 327.56 318.313 328.242C318.969 328.924 319.297 329.729 319.297 330.656C319.297 331.307 319.141 331.919 318.829 332.492C318.516 333.06 317.909 333.831 317.008 334.805L314.149 337.891H319.454V339H311.649L316.04 334.258C316.93 333.305 317.508 332.599 317.774 332.141C318.045 331.677 318.18 331.19 318.18 330.68C318.18 330.034 317.938 329.479 317.454 329.016C316.974 328.547 316.386 328.312 315.688 328.312C314.954 328.312 314.342 328.557 313.852 329.047C313.368 329.536 313.092 330.224 313.024 331.109ZM320.555 333.258C320.555 331.742 320.717 330.57 321.04 329.742C321.368 328.914 321.829 328.286 322.422 327.859C323.016 327.432 323.68 327.219 324.415 327.219C325.159 327.219 325.834 327.435 326.438 327.867C327.042 328.294 327.519 328.938 327.868 329.797C328.222 330.656 328.399 331.81 328.399 333.258C328.399 334.701 328.224 335.849 327.875 336.703C327.532 337.557 327.055 338.203 326.446 338.641C325.836 339.073 325.159 339.289 324.415 339.289C323.68 339.289 323.019 339.078 322.43 338.656C321.842 338.234 321.381 337.607 321.047 336.773C320.719 335.935 320.555 334.763 320.555 333.258ZM321.641 333.281C321.641 334.578 321.756 335.56 321.985 336.227C322.219 336.888 322.563 337.391 323.016 337.734C323.469 338.078 323.948 338.25 324.454 338.25C324.964 338.25 325.441 338.083 325.883 337.75C326.326 337.411 326.662 336.906 326.891 336.234C327.178 335.417 327.321 334.432 327.321 333.281C327.321 332.125 327.193 331.18 326.938 330.445C326.683 329.706 326.329 329.167 325.875 328.828C325.428 328.484 324.954 328.312 324.454 328.312C323.943 328.312 323.464 328.484 323.016 328.828C322.568 329.167 322.227 329.669 321.993 330.336C321.758 330.997 321.641 331.979 321.641 333.281ZM335.665 331.461V339H334.579V330.5H338.875V331.461H335.665ZM341.563 337.281C341.829 337.281 342.055 337.375 342.243 337.562C342.43 337.75 342.524 337.979 342.524 338.25C342.524 338.516 342.43 338.745 342.243 338.938C342.055 339.125 341.829 339.219 341.563 339.219C341.297 339.219 341.071 339.125 340.883 338.938C340.696 338.745 340.602 338.516 340.602 338.25C340.602 337.979 340.696 337.75 340.883 337.562C341.071 337.375 341.297 337.281 341.563 337.281Z" fill="#333333"/>
<path d="M128.254 98.8555L131.276 100.366L128.013 106.714C129.596 106.714 130.942 107.281 132.05 108.415C133.159 109.549 133.713 110.958 133.713 112.643C133.713 114.268 133.142 115.647 132 116.781C130.865 117.907 129.494 118.47 127.886 118.47C126.202 118.47 124.797 117.886 123.671 116.718C122.554 115.541 121.996 114.196 121.996 112.681C121.996 112.105 122.08 111.525 122.25 110.941C122.427 110.357 122.829 109.46 123.456 108.25L128.254 98.8555ZM127.81 110.078C127.15 110.078 126.596 110.319 126.147 110.802C125.698 111.276 125.474 111.872 125.474 112.592C125.474 113.311 125.707 113.916 126.172 114.407C126.646 114.898 127.196 115.144 127.823 115.144C128.483 115.144 129.05 114.902 129.524 114.42C129.998 113.938 130.235 113.328 130.235 112.592C130.235 111.872 130.002 111.276 129.537 110.802C129.08 110.319 128.504 110.078 127.81 110.078ZM107.383 136H100.431V128.562H101.395V135.098H105.715V128.562H106.679V135.098H108.286V137.176H107.383V136ZM115.839 133.532L116.646 133.956C116.382 134.476 116.076 134.895 115.73 135.214C115.384 135.533 114.994 135.777 114.561 135.945C114.128 136.109 113.638 136.191 113.091 136.191C111.879 136.191 110.931 135.795 110.248 135.002C109.564 134.204 109.222 133.304 109.222 132.302C109.222 131.358 109.512 130.518 110.09 129.779C110.824 128.84 111.806 128.371 113.037 128.371C114.304 128.371 115.315 128.852 116.072 129.813C116.61 130.493 116.883 131.34 116.892 132.356H110.207C110.225 133.222 110.5 133.933 111.034 134.489C111.567 135.041 112.225 135.316 113.009 135.316C113.388 135.316 113.754 135.25 114.11 135.118C114.47 134.986 114.775 134.811 115.026 134.592C115.277 134.373 115.548 134.02 115.839 133.532ZM115.839 131.529C115.712 131.019 115.525 130.611 115.279 130.306C115.037 130 114.716 129.754 114.315 129.567C113.914 129.381 113.492 129.287 113.05 129.287C112.321 129.287 111.694 129.522 111.17 129.991C110.788 130.333 110.498 130.846 110.302 131.529H115.839ZM123.967 132.418H119.647V136H118.683V128.562H119.647V131.516H123.967V128.562H124.924V136H123.967V132.418ZM126.23 128.562H131.125V129.39H129.156V136H128.192V129.39H126.23V128.562ZM132.437 128.562H133.387V129.93C133.765 129.41 134.201 129.021 134.693 128.761C135.185 128.501 135.734 128.371 136.34 128.371C137.398 128.371 138.302 128.752 139.054 129.513C139.806 130.274 140.182 131.19 140.182 132.261C140.182 133.354 139.808 134.284 139.061 135.05C138.318 135.811 137.42 136.191 136.368 136.191C135.775 136.191 135.231 136.068 134.734 135.822C134.237 135.576 133.788 135.209 133.387 134.722V138.721H132.437V128.562ZM136.265 129.294C135.436 129.294 134.736 129.583 134.167 130.162C133.601 130.741 133.319 131.461 133.319 132.322C133.319 132.887 133.444 133.396 133.695 133.847C133.95 134.298 134.312 134.656 134.782 134.92C135.256 135.184 135.755 135.316 136.279 135.316C136.794 135.316 137.277 135.184 137.728 134.92C138.184 134.651 138.546 134.277 138.815 133.799C139.084 133.32 139.218 132.819 139.218 132.295C139.218 131.766 139.084 131.265 138.815 130.791C138.551 130.317 138.193 129.95 137.742 129.69C137.291 129.426 136.798 129.294 136.265 129.294ZM145.5 128.371C146.644 128.371 147.592 128.786 148.344 129.615C149.028 130.372 149.37 131.267 149.37 132.302C149.37 133.341 149.007 134.25 148.283 135.029C147.563 135.804 146.635 136.191 145.5 136.191C144.361 136.191 143.429 135.804 142.705 135.029C141.985 134.25 141.625 133.341 141.625 132.302C141.625 131.272 141.966 130.379 142.65 129.622C143.402 128.788 144.352 128.371 145.5 128.371ZM145.5 129.308C144.708 129.308 144.026 129.602 143.457 130.189C142.887 130.777 142.602 131.488 142.602 132.322C142.602 132.86 142.732 133.361 142.992 133.826C143.251 134.291 143.602 134.651 144.044 134.906C144.486 135.157 144.972 135.282 145.5 135.282C146.029 135.282 146.514 135.157 146.957 134.906C147.399 134.651 147.75 134.291 148.009 133.826C148.269 133.361 148.399 132.86 148.399 132.322C148.399 131.488 148.112 130.777 147.538 130.189C146.968 129.602 146.289 129.308 145.5 129.308ZM153.314 136H151.154V128.562H153.28C154.091 128.562 154.674 128.749 155.03 129.123C155.39 129.497 155.57 129.934 155.57 130.436C155.57 131.192 155.237 131.705 154.572 131.974C155.538 132.315 156.021 132.974 156.021 133.949C156.021 135.316 155.119 136 153.314 136ZM152.118 129.39V131.714H152.74C153.305 131.714 153.674 131.691 153.847 131.646C154.02 131.6 154.182 131.488 154.333 131.311C154.487 131.128 154.565 130.889 154.565 130.593C154.565 130.283 154.485 130.023 154.326 129.813C154.166 129.604 153.998 129.481 153.82 129.444C153.647 129.408 153.287 129.39 152.74 129.39H152.118ZM152.118 132.589V135.193H153.143C153.626 135.193 153.97 135.164 154.175 135.104C154.385 135.041 154.563 134.906 154.708 134.701C154.859 134.496 154.934 134.236 154.934 133.922C154.934 133.516 154.806 133.193 154.551 132.951C154.296 132.71 153.959 132.589 153.54 132.589H152.118Z" fill="#333333"/>
<path d="M223.734 69.4697L220.712 67.9717L223.975 61.624C222.392 61.624 221.047 61.057 219.938 59.9229C218.829 58.7887 218.275 57.3796 218.275 55.6953C218.275 54.0618 218.842 52.6823 219.976 51.5566C221.119 50.4225 222.494 49.8555 224.102 49.8555C225.786 49.8555 227.187 50.4437 228.304 51.6201C229.43 52.7881 229.993 54.1338 229.993 55.6572C229.993 56.2327 229.904 56.8125 229.726 57.3965C229.557 57.972 229.159 58.8649 228.533 60.0752L223.734 69.4697ZM224.178 58.2598C224.838 58.2598 225.393 58.0186 225.841 57.5361C226.29 57.0537 226.514 56.457 226.514 55.7461C226.514 55.0182 226.277 54.4089 225.803 53.918C225.338 53.4271 224.792 53.1816 224.166 53.1816C223.505 53.1816 222.938 53.4271 222.464 53.918C221.99 54.4004 221.753 55.0055 221.753 55.7334C221.753 56.4528 221.982 57.0537 222.439 57.5361C222.904 58.0186 223.484 58.2598 224.178 58.2598ZM203.383 87H196.431V79.5625H197.395V86.0977H201.715V79.5625H202.679V86.0977H204.286V88.1758H203.383V87ZM211.839 84.5322L212.646 84.9561C212.382 85.4756 212.076 85.8949 211.73 86.2139C211.384 86.5329 210.994 86.7767 210.561 86.9453C210.128 87.1094 209.638 87.1914 209.091 87.1914C207.879 87.1914 206.931 86.7949 206.248 86.002C205.564 85.2044 205.222 84.3044 205.222 83.3018C205.222 82.3584 205.512 81.5176 206.09 80.7793C206.824 79.8405 207.806 79.3711 209.037 79.3711C210.304 79.3711 211.315 79.8519 212.072 80.8135C212.61 81.4925 212.883 82.3402 212.892 83.3564H206.207C206.225 84.2223 206.5 84.9333 207.034 85.4893C207.567 86.0407 208.225 86.3164 209.009 86.3164C209.388 86.3164 209.754 86.2503 210.11 86.1182C210.47 85.986 210.775 85.8105 211.026 85.5918C211.277 85.373 211.548 85.0199 211.839 84.5322ZM211.839 82.5293C211.712 82.0189 211.525 81.611 211.279 81.3057C211.037 81.0003 210.716 80.7542 210.315 80.5674C209.914 80.3805 209.492 80.2871 209.05 80.2871C208.321 80.2871 207.694 80.5218 207.17 80.9912C206.788 81.333 206.498 81.8457 206.302 82.5293H211.839ZM219.967 83.418H215.647V87H214.683V79.5625H215.647V82.5156H219.967V79.5625H220.924V87H219.967V83.418ZM222.23 79.5625H227.125V80.3896H225.156V87H224.192V80.3896H222.23V79.5625ZM228.437 79.5625H229.387V80.9297C229.765 80.4102 230.201 80.0205 230.693 79.7607C231.185 79.501 231.734 79.3711 232.34 79.3711C233.398 79.3711 234.302 79.7516 235.054 80.5127C235.806 81.2738 236.182 82.1898 236.182 83.2607C236.182 84.3545 235.808 85.2842 235.061 86.0498C234.318 86.8109 233.42 87.1914 232.368 87.1914C231.775 87.1914 231.231 87.0684 230.734 86.8223C230.237 86.5762 229.788 86.2093 229.387 85.7217V89.7207H228.437V79.5625ZM232.265 80.2939C231.436 80.2939 230.736 80.5833 230.167 81.1621C229.601 81.7409 229.319 82.4609 229.319 83.3223C229.319 83.8874 229.444 84.3955 229.695 84.8467C229.95 85.2979 230.312 85.6556 230.782 85.9199C231.256 86.1842 231.755 86.3164 232.279 86.3164C232.794 86.3164 233.277 86.1842 233.728 85.9199C234.184 85.651 234.546 85.2773 234.815 84.7988C235.084 84.3203 235.218 83.819 235.218 83.2949C235.218 82.7663 235.084 82.265 234.815 81.791C234.551 81.3171 234.193 80.9502 233.742 80.6904C233.291 80.4261 232.798 80.2939 232.265 80.2939ZM241.5 79.3711C242.644 79.3711 243.592 79.7858 244.344 80.6152C245.028 81.3717 245.37 82.2673 245.37 83.3018C245.37 84.3408 245.007 85.25 244.283 86.0293C243.563 86.804 242.635 87.1914 241.5 87.1914C240.361 87.1914 239.429 86.804 238.705 86.0293C237.985 85.25 237.625 84.3408 237.625 83.3018C237.625 82.2718 237.966 81.3786 238.65 80.6221C239.402 79.7881 240.352 79.3711 241.5 79.3711ZM241.5 80.3076C240.708 80.3076 240.026 80.6016 239.457 81.1895C238.887 81.7773 238.602 82.4883 238.602 83.3223C238.602 83.86 238.732 84.3613 238.992 84.8262C239.251 85.291 239.602 85.651 240.044 85.9062C240.486 86.1569 240.972 86.2822 241.5 86.2822C242.029 86.2822 242.514 86.1569 242.957 85.9062C243.399 85.651 243.75 85.291 244.009 84.8262C244.269 84.3613 244.399 83.86 244.399 83.3223C244.399 82.4883 244.112 81.7773 243.538 81.1895C242.968 80.6016 242.289 80.3076 241.5 80.3076ZM249.314 87H247.154V79.5625H249.28C250.091 79.5625 250.674 79.7493 251.03 80.123C251.39 80.4967 251.57 80.9342 251.57 81.4355C251.57 82.1921 251.237 82.7048 250.572 82.9736C251.538 83.3154 252.021 83.974 252.021 84.9492C252.021 86.3164 251.119 87 249.314 87ZM248.118 80.3896V82.7139H248.74C249.305 82.7139 249.674 82.6911 249.847 82.6455C250.02 82.5999 250.182 82.4883 250.333 82.3105C250.487 82.1283 250.565 81.889 250.565 81.5928C250.565 81.2829 250.485 81.0231 250.326 80.8135C250.166 80.6038 249.998 80.4808 249.82 80.4443C249.647 80.4079 249.287 80.3896 248.74 80.3896H248.118ZM248.118 83.5889V86.1934H249.143C249.626 86.1934 249.97 86.1637 250.175 86.1045C250.385 86.0407 250.563 85.9062 250.708 85.7012C250.859 85.4961 250.934 85.2363 250.934 84.9219C250.934 84.5163 250.806 84.1927 250.551 83.9512C250.296 83.7096 249.959 83.5889 249.54 83.5889H248.118Z" fill="#333333"/>
<path d="M305.705 8.3252H311.024V27H307.495V11.6641H303.648L305.705 8.3252ZM320.342 8.3252H329.089V11.6006H322.996L322.234 15.0029C322.445 14.9437 322.653 14.9014 322.856 14.876C323.059 14.8421 323.254 14.8252 323.44 14.8252C325.133 14.8252 326.538 15.4049 327.655 16.5645C328.78 17.7155 329.343 19.1924 329.343 20.9951C329.343 22.8148 328.721 24.3509 327.477 25.6035C326.241 26.8477 324.735 27.4697 322.958 27.4697C321.366 27.4697 320 27.0169 318.857 26.1113C317.714 25.2057 316.965 23.9658 316.61 22.3916H320.342C320.63 22.9756 321.007 23.4199 321.472 23.7246C321.946 24.0208 322.467 24.1689 323.034 24.1689C323.821 24.1689 324.489 23.8854 325.04 23.3184C325.59 22.7513 325.865 22.0234 325.865 21.1348C325.865 20.2715 325.607 19.5648 325.09 19.0146C324.583 18.4561 323.965 18.1768 323.237 18.1768C322.847 18.1768 322.462 18.2741 322.082 18.4688C321.709 18.6634 321.341 18.9554 320.977 19.3447L318.083 18.6973L320.342 8.3252ZM295.383 45H288.431V37.5625H289.395V44.0977H293.715V37.5625H294.679V44.0977H296.286V46.1758H295.383V45ZM303.839 42.5322L304.646 42.9561C304.382 43.4756 304.076 43.8949 303.73 44.2139C303.384 44.5329 302.994 44.7767 302.561 44.9453C302.128 45.1094 301.638 45.1914 301.091 45.1914C299.879 45.1914 298.931 44.7949 298.248 44.002C297.564 43.2044 297.222 42.3044 297.222 41.3018C297.222 40.3584 297.512 39.5176 298.09 38.7793C298.824 37.8405 299.806 37.3711 301.037 37.3711C302.304 37.3711 303.315 37.8519 304.072 38.8135C304.61 39.4925 304.883 40.3402 304.892 41.3564H298.207C298.225 42.2223 298.5 42.9333 299.034 43.4893C299.567 44.0407 300.225 44.3164 301.009 44.3164C301.388 44.3164 301.754 44.2503 302.11 44.1182C302.47 43.986 302.775 43.8105 303.026 43.5918C303.277 43.373 303.548 43.0199 303.839 42.5322ZM303.839 40.5293C303.712 40.0189 303.525 39.611 303.279 39.3057C303.037 39.0003 302.716 38.7542 302.315 38.5674C301.914 38.3805 301.492 38.2871 301.05 38.2871C300.321 38.2871 299.694 38.5218 299.17 38.9912C298.788 39.333 298.498 39.8457 298.302 40.5293H303.839ZM311.967 41.418H307.647V45H306.683V37.5625H307.647V40.5156H311.967V37.5625H312.924V45H311.967V41.418ZM314.23 37.5625H319.125V38.3896H317.156V45H316.192V38.3896H314.23V37.5625ZM320.437 37.5625H321.387V38.9297C321.765 38.4102 322.201 38.0205 322.693 37.7607C323.185 37.501 323.734 37.3711 324.34 37.3711C325.398 37.3711 326.302 37.7516 327.054 38.5127C327.806 39.2738 328.182 40.1898 328.182 41.2607C328.182 42.3545 327.808 43.2842 327.061 44.0498C326.318 44.8109 325.42 45.1914 324.368 45.1914C323.775 45.1914 323.231 45.0684 322.734 44.8223C322.237 44.5762 321.788 44.2093 321.387 43.7217V47.7207H320.437V37.5625ZM324.265 38.2939C323.436 38.2939 322.736 38.5833 322.167 39.1621C321.601 39.7409 321.319 40.4609 321.319 41.3223C321.319 41.8874 321.444 42.3955 321.695 42.8467C321.95 43.2979 322.312 43.6556 322.782 43.9199C323.256 44.1842 323.755 44.3164 324.279 44.3164C324.794 44.3164 325.277 44.1842 325.728 43.9199C326.184 43.651 326.546 43.2773 326.815 42.7988C327.084 42.3203 327.218 41.819 327.218 41.2949C327.218 40.7663 327.084 40.265 326.815 39.791C326.551 39.3171 326.193 38.9502 325.742 38.6904C325.291 38.4261 324.798 38.2939 324.265 38.2939ZM333.5 37.3711C334.644 37.3711 335.592 37.7858 336.344 38.6152C337.028 39.3717 337.37 40.2673 337.37 41.3018C337.37 42.3408 337.007 43.25 336.283 44.0293C335.563 44.804 334.635 45.1914 333.5 45.1914C332.361 45.1914 331.429 44.804 330.705 44.0293C329.985 43.25 329.625 42.3408 329.625 41.3018C329.625 40.2718 329.966 39.3786 330.65 38.6221C331.402 37.7881 332.352 37.3711 333.5 37.3711ZM333.5 38.3076C332.708 38.3076 332.026 38.6016 331.457 39.1895C330.887 39.7773 330.602 40.4883 330.602 41.3223C330.602 41.86 330.732 42.3613 330.992 42.8262C331.251 43.291 331.602 43.651 332.044 43.9062C332.486 44.1569 332.972 44.2822 333.5 44.2822C334.029 44.2822 334.514 44.1569 334.957 43.9062C335.399 43.651 335.75 43.291 336.009 42.8262C336.269 42.3613 336.399 41.86 336.399 41.3223C336.399 40.4883 336.112 39.7773 335.538 39.1895C334.968 38.6016 334.289 38.3076 333.5 38.3076ZM341.314 45H339.154V37.5625H341.28C342.091 37.5625 342.674 37.7493 343.03 38.123C343.39 38.4967 343.57 38.9342 343.57 39.4355C343.57 40.1921 343.237 40.7048 342.572 40.9736C343.538 41.3154 344.021 41.974 344.021 42.9492C344.021 44.3164 343.119 45 341.314 45ZM340.118 38.3896V40.7139H340.74C341.305 40.7139 341.674 40.6911 341.847 40.6455C342.02 40.5999 342.182 40.4883 342.333 40.3105C342.487 40.1283 342.565 39.889 342.565 39.5928C342.565 39.2829 342.485 39.0231 342.326 38.8135C342.166 38.6038 341.998 38.4808 341.82 38.4443C341.647 38.4079 341.287 38.3896 340.74 38.3896H340.118ZM340.118 41.5889V44.1934H341.143C341.626 44.1934 341.97 44.1637 342.175 44.1045C342.385 44.0407 342.563 43.9062 342.708 43.7012C342.859 43.4961 342.934 43.2363 342.934 42.9219C342.934 42.5163 342.806 42.1927 342.551 41.9512C342.296 41.7096 341.959 41.5889 341.54 41.5889H340.118Z" fill="#333333"/>
<rect x="282" y="60" width="71" height="242" fill="#8BD40A"/>
<rect x="282" y="60" width="71" height="242" fill="url(#paint3_linear_87_314)"/>
<defs>
<linearGradient id="paint0_linear_87_314" x1="36.0005" y1="228" x2="36.0005" y2="276.932" gradientUnits="userSpaceOnUse">
<stop stop-color="#FAE316"/>
<stop offset="1" stop-color="#8BD40A"/>
</linearGradient>
<linearGradient id="paint1_linear_87_314" x1="129.5" y1="157" x2="129.5" y2="252.881" gradientUnits="userSpaceOnUse">
<stop stop-color="#FAE316"/>
<stop offset="1" stop-color="#8BD40A"/>
</linearGradient>
<linearGradient id="paint2_linear_87_314" x1="223.5" y1="105" x2="223.5" y2="235.266" gradientUnits="userSpaceOnUse">
<stop stop-color="#FAE316"/>
<stop offset="1" stop-color="#8BD40A"/>
</linearGradient>
<linearGradient id="paint3_linear_87_314" x1="317.5" y1="60" x2="317.5" y2="220.022" gradientUnits="userSpaceOnUse">
<stop stop-color="#FAE316"/>
<stop offset="1" stop-color="#8BD40A"/>
</linearGradient>
</defs>
</svg>
