<?xml version="1.0" encoding="utf-8"?>
<!-- Generator: Adobe Illustrator 25.2.3, SVG Export Plug-In . SVG Version: 6.00 Build 0)  -->
<svg version="1.1" id="Слой_1" xmlns="http://www.w3.org/2000/svg" xmlns:xlink="http://www.w3.org/1999/xlink" x="0px" y="0px"
	 viewBox="0 0 492 73" style="enable-background:new 0 0 492 73;" xml:space="preserve">
<style type="text/css">
	.st0{fill:none;stroke:#000000;stroke-width:0.216;stroke-miterlimit:22.9256;}
	.st1{fill-rule:evenodd;clip-rule:evenodd;}
	.st2{fill:none;stroke:#000000;stroke-width:0.5669;stroke-miterlimit:22.9256;}
	.st3{fill-rule:evenodd;clip-rule:evenodd;fill:#8BD40A;}
	.st4{fill-rule:evenodd;clip-rule:evenodd;fill:#60C3D4;}
	.st5{fill-rule:evenodd;clip-rule:evenodd;fill:#FEE30A;}
	.st6{fill:none;}
	.st7{font-family:'Skalalend';}
	.st8{font-size:43px;}
	.st9{letter-spacing:12;}
	.st10{font-size:20px;}
	.st11{letter-spacing:2;}
</style>
<g>
	<path d="M273.8,17.1L288,47.4h-3.3l-3.2-6.8l-2.9-6.1l-5.2-11l-4.3,9.2l-0.2,0.4l-0.7,1.4l-2.5,5.3l-3.6,7.6h-3.3l14.3-30.3H273.8z
		"/>
	<path class="st0" d="M273.8,17.1L288,47.4h-3.3l-3.2-6.8l-2.9-6.1l-5.2-11l-4.3,9.2l-0.2,0.4l-0.7,1.4l-2.5,5.3l-3.6,7.6h-3.3
		l14.3-30.3H273.8z"/>
	<path class="st1" d="M268.6,33.8l4.8,2.7l4.8-2.7l1.2,2.4l-6,3.4l-6-3.4L268.6,33.8z"/>
	<path class="st2" d="M268.6,33.8l4.8,2.7l4.8-2.7l1.2,2.4l-6,3.4l-6-3.4L268.6,33.8z"/>
</g>
<g>
	<path d="M336.3,17.5l14.2,30.3h-3.3L344,41l-2.9-6.1l-5.2-11l-4.3,9.2l-0.2,0.4l-0.7,1.4l-2.5,5.3l-3.6,7.6h-3.3l14.3-30.3H336.3z"
		/>
	<path class="st0" d="M336.3,17.5l14.2,30.3h-3.3L344,41l-2.9-6.1l-5.2-11l-4.3,9.2l-0.2,0.4l-0.7,1.4l-2.5,5.3l-3.6,7.6h-3.3
		l14.3-30.3H336.3z"/>
	<path class="st1" d="M331.1,34.2l4.8,2.7l4.8-2.7l1.2,2.4l-6,3.4l-6-3.4L331.1,34.2z"/>
	<path class="st2" d="M331.1,34.2l4.8,2.7l4.8-2.7l1.2,2.4l-6,3.4l-6-3.4L331.1,34.2z"/>
</g>
<g>
	<path d="M396.2,17.1l14.2,30.3h-3.3l-3.2-6.8l-2.9-6.1l-5.2-11l-4.3,9.2l-0.2,0.4l-0.7,1.4l-2.5,5.3l-3.6,7.6h-3.3l14.3-30.3H396.2
		z"/>
	<path class="st0" d="M396.2,17.1l14.2,30.3h-3.3l-3.2-6.8l-2.9-6.1l-5.2-11l-4.3,9.2l-0.2,0.4l-0.7,1.4l-2.5,5.3l-3.6,7.6h-3.3
		l14.3-30.3H396.2z"/>
	<path class="st1" d="M391,33.8l4.8,2.7l4.8-2.7l1.2,2.4l-6,3.4l-6-3.4L391,33.8z"/>
	<path class="st2" d="M391,33.8l4.8,2.7l4.8-2.7l1.2,2.4l-6,3.4l-6-3.4L391,33.8z"/>
</g>
<path class="st3" d="M66.2,37.9L48.9,69.4h61.7c-0.9-2.4-2.9-5.3-4.2-7.7L93.2,38c-1.2,0.7-3.1,2.8-4.4,2.6
	c-0.9-0.1-3.5-2.3-4.3-2.9c-1.2,0.5-3.3,2.8-4.5,2.9c-1.2,0.1-3.8-2.3-4.7-2.9c-1.1,0.6-3.3,2.8-4.5,2.9
	C69.5,40.7,67.4,38.4,66.2,37.9z"/>
<path class="st4" d="M22.1,9.6c-14.4,3.2-14.3,23-0.7,26.6c3.4,0.9,11.5,0.5,15.5,0.5c13.1,0,12.6-12.8,5.8-16.4
	c-2.2-1.1-4-0.7-5.2-2.6c-1.2-2-1.8-3.3-3.3-4.7C31.4,10.5,27.2,8.4,22.1,9.6z"/>
<path class="st5" d="M110.5,40.4l8,14.6c1.4,2.4,2.7,4.8,4,7.2c1.1,2.1,2.8,5.4,4.1,7.2h21.2c0.6-3-2.4-11-3.6-13.4
	c-0.9-1.9-2.2-3.9-3.3-5.4c-1.4-1.9-2.5-2.9-4.1-4.6c-2.4-2.5-7.4-5.2-11.1-6.3C119.6,38,116.1,39,110.5,40.4z"/>
<path class="st3" d="M68.3,36c0.7,0.5,1.6,1.1,2.3,1.7c3.1-1.1,3.4-5.6,9.2,0c1.3-0.5,3.3-2.8,4.6-2.9c1.2-0.1,3.7,2.3,4.6,3
	c1.1-0.4,1.4-1.1,2.5-1.6c-0.3-1.3-2.1-4.1-2.8-5.4c-2-3.6-7-13-8.7-15.7c-1.3,1.8-6.9,12.5-8.7,15.5C70.5,31.8,68.6,34.9,68.3,36z"
	/>
<path class="st4" d="M6.8,47.2c-5.5,1.5-7.1,7-4.8,11.1c2.6,4.7,7.7,4,13.9,4c6.6-0.1,6.8-7.6,2.5-9.3c-1.7-0.7-1.9-0.2-2.8-1.7
	C13.8,48.2,10.8,46.1,6.8,47.2z"/>
<path class="st4" d="M57.8,0.2c-8.2,1.7-8.1,12.8-0.6,14.9c1.8,0.5,6.5,0.3,8.7,0.3c3,0,4.8-0.9,5.7-3.1c1-2.8-0.6-5.3-2.4-6.1
	c-1.3-0.6-2.1-0.3-2.9-1.6C64.5,1.8,62.2-0.7,57.8,0.2z"/>
<path class="st5" d="M45.7,48.2l-8.9,15.7c-0.9,1.7-2.3,3.8-2.9,5.5h10.7l11.2-20.5c-0.5-0.6-0.6-0.5-1.1-0.9
	c-1.4,0.5-3.1,2.6-4.3,2.8C48.8,51,46.8,48.9,45.7,48.2z"/>
<path class="st5" d="M47.4,46.3c0.5,0.6,1.6,1.4,2.3,1.9c1.1-0.4,2.6-1.9,3.6-2.5c1.7-1,2.9,0.7,4.1,1.3l3.1-5.3
	c1.1-1.8,2-3.6,3-5.4c0.8-1.5,0.7-1.3-0.1-2.8c-1.4-2.3-3.2-6.1-4.5-8L47.4,46.3z"/>
<path class="st4" d="M104.7,50.4c0.3,1.2,1.9,3.7,2.5,4.9l5.2,9.4c0.8,1.4,1.8,3.5,2.7,4.8h6.8c0-0.9-11.4-20.9-11.7-21.3
	c-0.7,0.3-1.9,1.3-2.5,1.8C106.5,51,106.4,51,104.7,50.4z"/>
<path class="st5" d="M165.7,20.1c-0.7,0.2-21.2,20.4-21.4,21.4c-0.5,1.8,1,3.2,2.7,2.7c1.3-0.4,16.3-15.8,18.6-18.1
	c0.7-0.7,2.5-2.3,2.8-3.3C168.9,21.1,167.3,19.5,165.7,20.1z"/>
<path class="st4" d="M101.3,45.7c2.6,0.3,2.3,1.1,4.1,2c0.5-0.6,0.5-0.9,1.1-1.5c0.4-0.4,1-0.7,1.5-1.1L97.5,26
	c-0.7,0.7-2.2,3.7-2.9,4.8c-1,1.8-0.9,1.3,1.2,5L101.3,45.7z"/>
<path class="st5" d="M114.1,3.5c-2.4,0.5-1.8,3-1.8,5.5v14.3c0,2.2-0.1,5.2,2.8,4.4c2.1-0.5,1.5-3.5,1.5-5.6V7.8
	C116.7,5.7,116.7,2.9,114.1,3.5z"/>
<path class="st5" d="M135.6,16.1c-1.3,0.5-1.8,2.5-2.4,4l-4.1,9c-0.7,1.9,0.4,4,2.7,3.2c1.3-0.5,3.5-6.4,4.5-8.5
	c0.7-1.4,1.5-3.1,2-4.5C139.2,17.2,137.6,15.3,135.6,16.1z"/>
<path class="st5" d="M169.6,54.7c-3.3,1-6.6,1.9-9.9,2.9c-1.5,0.5-3.6,0.7-3.9,2.4c-0.4,1.9,1.2,2.9,3.1,2.4c3.3-0.9,6.5-2,9.7-3
	c1.6-0.5,3.7-0.8,4.2-2.2C173.4,55,171.4,54.2,169.6,54.7z"/>
<rect x="197.5" y="15.3" class="st6" width="25.1" height="40.5"/>
<text transform="matrix(1 0 0 1 197.489 46.923)" class="st7 st8 st9">S</text>
<rect x="226.8" y="15.3" class="st6" width="29.9" height="40.5"/>
<text transform="matrix(1 0 0 1 226.7659 46.923)" class="st7 st8 st9">K</text>
<rect x="293.3" y="15.3" class="st6" width="29.9" height="40.5"/>
<text transform="matrix(1 0 0 1 293.2979 46.923)" class="st7 st8 st9">L</text>
<rect x="354.7" y="16.5" class="st6" width="29.9" height="40.5"/>
<text transform="matrix(1 0 0 1 354.7067 48.123)" class="st7 st8 st9">L</text>
<rect x="415" y="15.3" class="st6" width="35.2" height="40.5"/>
<text transform="matrix(1 0 0 1 414.9857 46.923)" class="st7 st8 st9">N</text>
<rect x="450.2" y="15" class="st6" width="35.2" height="40.5"/>
<text transform="matrix(1 0 0 1 450.1909 46.6019)" class="st7 st8 st9">D</text>
<rect x="193.6" y="55.9" class="st6" width="300.8" height="18.6"/>
<text transform="matrix(1 0 0 1 193.6001 70.6189)" class="st7 st10 st11">family adventure center</text>
</svg>
