<svg width="492" height="73" viewBox="0 0 492 73" fill="none" xmlns="http://www.w3.org/2000/svg">
<path d="M485.3 57.7H486.3C486.5 58 486.7 58.2 487 58.3C487.3 58.4 487.6 58.5 488.1 58.5C488.5 58.5 488.8 58.4 489.1 58.3C489.4 58.2 489.6 58 489.8 57.7H490.8C490.7 58.2 490.4 58.6 489.9 58.9C489.4 59.2 488.8 59.4 488.1 59.4C487.3 59.4 486.7 59.2 486.3 58.9C485.7 58.6 485.4 58.2 485.3 57.7ZM485.5 61.1V67.3L491.7 61.1H491.8V69.5H490.7V63.3L484.6 69.5H484.5V61.1H485.5ZM474.1 61.1V67.3L480.3 61.1H480.4V69.5H479.3V63.3L473.2 69.5H473.1V61.1H474.1ZM468 65.5H463.1V69.5H462V61.1H463.1V64.4H468V61.1H469.1V69.5H468V65.5ZM457.3 64.5C457.2 63.9 456.9 63.5 456.7 63.1C456.4 62.8 456.1 62.5 455.6 62.3C455.1 62.1 454.7 62 454.2 62C453.4 62 452.7 62.3 452.1 62.8C451.7 63.2 451.3 63.8 451.1 64.5H457.3ZM457.3 66.7L458.2 67.2C457.9 67.8 457.6 68.3 457.2 68.6C456.8 69 456.4 69.2 455.9 69.4C455.4 69.6 454.9 69.7 454.2 69.7C452.8 69.7 451.8 69.3 451 68.4C450.2 67.5 449.8 66.5 449.8 65.4C449.8 64.3 450.1 63.4 450.8 62.6C451.6 61.5 452.7 61 454.1 61C455.5 61 456.7 61.5 457.5 62.6C458.1 63.4 458.4 64.3 458.4 65.5H450.8C450.8 66.5 451.1 67.3 451.7 67.9C452.3 68.5 453.1 68.8 453.9 68.8C454.3 68.8 454.7 68.7 455.2 68.6C455.6 68.5 456 68.3 456.2 68C456.6 67.7 456.9 67.3 457.3 66.7ZM445.1 65.7H443.2C442.3 65.7 441.7 65.5 441.3 65C440.9 64.6 440.7 63.9 440.7 63.2V61.1H441.8V62.6C441.8 63.6 441.9 64.2 442.2 64.4C442.5 64.6 442.9 64.8 443.6 64.8H445.2V61.1H446.3V69.5H445.2V65.7H445.1ZM436.7 65.3C436.7 64.4 436.4 63.6 435.7 62.9C435.1 62.2 434.3 61.9 433.4 61.9C432.5 61.9 431.7 62.2 431.1 62.9C430.5 63.6 430.1 64.4 430.1 65.3C430.1 66.2 430.4 67 431 67.7C431.6 68.3 432.4 68.7 433.3 68.7C434.2 68.7 435 68.4 435.6 67.7C436.4 67.1 436.7 66.3 436.7 65.3ZM427.7 69.5H426.6V61.1H427.7V64.6H429.1C429.3 63.5 429.8 62.6 430.6 61.9C431.4 61.2 432.4 60.9 433.4 60.9C434.6 60.9 435.7 61.3 436.5 62.2C437.3 63.1 437.8 64.1 437.8 65.3C437.8 66.5 437.4 67.5 436.5 68.4C435.7 69.3 434.6 69.7 433.4 69.7C432.3 69.7 431.3 69.3 430.5 68.6C429.7 67.9 429.2 66.9 429.1 65.7H427.7V69.5ZM423.4 69.5H422.3L419.5 63.4L416.7 69.5H415.5L419.3 61.1H419.5L423.4 69.5ZM406.7 61.1H407.8V64.6L411.7 61.1H413.2L409 64.9L413.6 69.5H412L408.1 65.6L407.8 65.9V69.5H406.7V61.1ZM396.5 61.1V67.3L402.7 61.1H402.8V69.5H401.7V63.3L395.6 69.5H395.5V61.1H396.5ZM387.4 61.9C386.5 61.9 385.7 62.2 385 62.9C384.4 63.6 384 64.4 384 65.3C384 65.9 384.1 66.5 384.4 67C384.7 67.5 385.1 67.9 385.6 68.2C386.1 68.5 386.7 68.6 387.3 68.6C387.9 68.6 388.4 68.4 388.9 68.1C389.4 67.8 389.8 67.4 390.1 66.8C390.4 66.3 390.6 65.7 390.6 65.1C390.6 64.5 390.4 63.9 390.1 63.4C389.8 62.9 389.4 62.5 388.9 62.2C388.6 62.1 388 61.9 387.4 61.9ZM383.1 61.1H384.2V62.6C384.6 62 385.1 61.6 385.7 61.3C386.3 61 386.9 60.9 387.6 60.9C388.8 60.9 389.8 61.3 390.7 62.2C391.5 63.1 392 64.1 392 65.3C392 66.5 391.6 67.6 390.7 68.4C389.9 69.3 388.8 69.7 387.7 69.7C387 69.7 386.4 69.6 385.9 69.3C385.3 69 384.8 68.6 384.4 68.1V72.6H383.3V61.1H383.1ZM372 61.1H379V69.5H378V62.1H373.1V69.5H372V61.1ZM346.9 61.1H348.2L350.4 64.2L352.6 61.1H353.9L351.1 65.1L354.3 69.5H353L350.4 66L347.9 69.5H346.6L349.8 65.1L346.9 61.1ZM342.9 61.1H344V69.5H342.9V61.1ZM336.8 65.4V68.6H338C339.5 68.6 340.2 68.1 340.2 67.1C340.2 66.8 340.1 66.5 340 66.2C339.8 65.9 339.6 65.7 339.3 65.6C339 65.5 338.5 65.4 337.7 65.4H336.8ZM336.7 64.4H337.7C338.5 64.4 339.2 64.5 339.6 64.6C340.1 64.7 340.5 65 340.8 65.5C341.1 65.9 341.3 66.4 341.3 67C341.3 67.7 341.1 68.3 340.6 68.8C340.1 69.3 339.4 69.5 338.4 69.5H335.6V61.1H336.7V64.4ZM330.6 65.5H325.7V69.5H324.6V61.1H325.7V64.4H330.6V61.1H331.7V69.5H330.6V65.5ZM314.3 57.7H315.3C315.5 58 315.7 58.2 316 58.3C316.3 58.4 316.6 58.5 317.1 58.5C317.5 58.5 317.8 58.4 318.1 58.3C318.4 58.2 318.6 58 318.8 57.7H319.8C319.7 58.2 319.4 58.6 318.9 58.9C318.4 59.2 317.8 59.4 317.1 59.4C316.3 59.4 315.7 59.2 315.3 58.9C314.7 58.6 314.4 58.2 314.3 57.7ZM314.4 61.1V67.3L320.6 61.1H320.7V69.5H319.6V63.3L313.5 69.5H313.4V61.1H314.4ZM308.6 64.5C308.5 63.9 308.2 63.5 308 63.1C307.7 62.8 307.4 62.5 306.9 62.3C306.4 62.1 306 62 305.5 62C304.7 62 304 62.3 303.4 62.8C303 63.2 302.6 63.8 302.4 64.5H308.6ZM308.6 66.7L309.5 67.2C309.2 67.8 308.9 68.3 308.5 68.6C308.1 69 307.7 69.2 307.2 69.4C306.7 69.6 306.2 69.7 305.5 69.7C304.1 69.7 303.1 69.3 302.3 68.4C301.5 67.5 301.1 66.5 301.1 65.4C301.1 64.3 301.4 63.4 302.1 62.6C302.9 61.5 304 61 305.4 61C306.8 61 308 61.5 308.8 62.6C309.4 63.4 309.7 64.3 309.7 65.5H302.1C302.1 66.5 302.4 67.3 303 67.9C303.6 68.5 304.4 68.8 305.2 68.8C305.6 68.8 306 68.7 306.5 68.6C306.9 68.5 307.3 68.3 307.5 68C307.9 67.7 308.2 67.3 308.6 66.7ZM295.2 61.1H295.5L298.3 69.5H297.2L295.1 63.3L291.9 69.5H291.7L288.5 63.3L286.4 69.5H285.3L288.2 61.1H288.5L291.9 67.7L295.2 61.1ZM281.3 64.5C281.2 63.9 280.9 63.5 280.7 63.1C280.4 62.8 280.1 62.5 279.6 62.3C279.1 62.1 278.7 62 278.2 62C277.4 62 276.7 62.3 276.1 62.8C275.7 63.2 275.3 63.8 275.1 64.5H281.3ZM281.3 66.7L282.2 67.2C281.9 67.8 281.6 68.3 281.2 68.6C280.8 69 280.4 69.2 279.9 69.4C279.4 69.6 278.9 69.7 278.2 69.7C276.8 69.7 275.8 69.3 275 68.4C274.2 67.5 273.8 66.5 273.8 65.4C273.8 64.3 274.1 63.4 274.8 62.6C275.6 61.5 276.7 61 278.1 61C279.5 61 280.7 61.5 281.5 62.6C282.1 63.4 282.4 64.3 282.4 65.5H274.8C274.8 66.5 275.1 67.3 275.7 67.9C276.3 68.5 277.1 68.8 277.9 68.8C278.3 68.8 278.7 68.7 279.2 68.6C279.6 68.5 280 68.3 280.2 68C280.6 67.7 280.9 67.3 281.3 66.7ZM270.5 62.8L269.6 63.3C268.9 62.3 267.8 61.8 266.6 61.8C265.6 61.8 264.7 62.1 264 62.8C263.3 63.5 263 64.3 263 65.2C263 65.8 263.2 66.4 263.5 66.9C263.8 67.4 264.2 67.9 264.8 68.2C265.3 68.5 266 68.6 266.6 68.6C267.8 68.6 268.8 68.1 269.6 67.1L270.5 67.7C270.1 68.3 269.6 68.8 268.9 69.1C268.2 69.4 267.4 69.6 266.6 69.6C265.3 69.6 264.2 69.2 263.3 68.3C262.4 67.5 262 66.4 262 65.2C262 64.4 262.2 63.6 262.6 62.9C263 62.2 263.6 61.7 264.3 61.3C265 60.9 265.8 60.7 266.7 60.7C267.3 60.7 267.8 60.8 268.3 61C268.8 61.2 269.3 61.4 269.6 61.7C270 62.1 270.3 62.4 270.5 62.8ZM239.3 61.9C238.4 61.9 237.6 62.2 236.9 62.9C236.3 63.6 235.9 64.4 235.9 65.3C235.9 65.9 236 66.5 236.3 67C236.6 67.5 237 67.9 237.5 68.2C238 68.5 238.6 68.6 239.2 68.6C239.8 68.6 240.3 68.4 240.8 68.1C241.3 67.8 241.7 67.4 242 66.8C242.3 66.3 242.5 65.7 242.5 65.1C242.5 64.5 242.4 63.9 242 63.4C241.6 62.9 241.3 62.5 240.8 62.2C240.5 62.1 239.9 61.9 239.3 61.9ZM235 61.1H236.1V62.6C236.5 62 237 61.6 237.6 61.3C238.2 61 238.8 60.9 239.5 60.9C240.7 60.9 241.7 61.3 242.6 62.2C243.4 63.1 243.9 64.1 243.9 65.3C243.9 66.5 243.5 67.6 242.6 68.4C241.8 69.3 240.7 69.7 239.6 69.7C238.9 69.7 238.3 69.6 237.8 69.3C237.2 69 236.7 68.6 236.3 68.1V72.6H235V61.1ZM226.4 61.1H231.9V62H229.7V69.5H228.6V62H226.4V61.1ZM222.3 65.5H217.4V69.5H216.3V61.1H217.4V64.4H222.3V61.1H223.4V69.5H222.3V65.5ZM211.6 64.5C211.5 63.9 211.2 63.5 211 63.1C210.7 62.8 210.4 62.5 209.9 62.3C209.4 62.1 209 62 208.5 62C207.7 62 207 62.3 206.4 62.8C206 63.2 205.6 63.8 205.4 64.5H211.6ZM211.6 66.7L212.5 67.2C212.2 67.8 211.9 68.3 211.5 68.6C211.1 69 210.7 69.2 210.2 69.4C209.7 69.6 209.2 69.7 208.5 69.7C207.1 69.7 206.1 69.3 205.3 68.4C204.5 67.5 204.1 66.5 204.1 65.4C204.1 64.3 204.4 63.4 205.1 62.6C205.9 61.5 207 61 208.4 61C209.8 61 211 61.5 211.8 62.6C212.4 63.4 212.7 64.3 212.7 65.5H205.1C205.1 66.5 205.4 67.3 206 67.9C206.6 68.5 207.4 68.8 208.2 68.8C208.6 68.8 209 68.7 209.5 68.6C209.9 68.5 210.3 68.3 210.5 68C210.9 67.7 211.2 67.3 211.6 66.7ZM192.6 69.5V61.1H193.7V68.5H198.6V61.1H199.7V68.5H201.5V69.5C198.5 69.5 195.6 69.5 192.6 69.5Z" fill="black"/>
<path d="M467.1 47.9H485.6L476.1 26.8L467.1 47.9ZM461.3 50.7V47.9H463.7L475.6 20.4H476.6L489.2 47.9H491.5V50.7C481.4 50.7 471.4 50.7 461.3 50.7ZM432.2 20.4H435.2V33.1H450.6V20.4H453.6V50.7H450.6V36.1H435.2V50.7H432.2V20.4ZM419.5 36.9H405.2V33.9H419.4C419.1 30.4 417.7 27.7 415.1 25.6C412.5 23.6 409.6 22.5 406.5 22.5C401.9 22.5 398.3 24.2 395.7 27.7L393.3 25.9C394.7 23.9 396.5 22.4 398.8 21.2C401.1 20.1 403.7 19.5 406.5 19.5C411.1 19.5 415 21 418.2 24C421.3 27 422.9 30.8 422.9 35.2C422.9 39.7 421.4 43.5 418.5 46.6C415.5 49.7 411.6 51.3 406.6 51.3C400.9 51.3 396.5 49.3 393.3 45.3L395.7 43.5C398.5 46.8 402.1 48.5 406.3 48.5C409.6 48.5 412.4 47.6 415 45.6C417.5 43.9 419 40.9 419.5 36.9ZM386.3 50.7H383L373 27.3L362.8 50.8H359.5L372.7 20.5H373.4L386.3 50.7ZM319 50.7H315.7L305.6 27.2L295.4 50.7H292.1L305.3 20.4H306L319 50.7ZM231.7 20.4H234.8V31.8L247 20.4H251.1L236.4 34L252.1 50.7H248.1L234.8 36.5V50.7H231.7V20.4ZM222.4 26L220 27.8C218.7 26.1 217.1 24.8 215.3 23.9C213.5 23 211.4 22.6 209.2 22.6C206.8 22.6 204.6 23.2 202.5 24.3C200.4 25.5 198.8 27 197.7 29C196.6 31 196 33.2 196 35.6C196 39.3 197.3 42.4 199.8 44.9C202.3 47.4 205.5 48.6 209.4 48.6C213.6 48.6 217.2 46.9 220 43.6L222.4 45.4C220.9 47.3 219 48.8 216.7 49.9C214.4 50.9 211.9 51.5 209.1 51.5C203.8 51.5 199.6 49.7 196.6 46.2C194 43.2 192.7 39.6 192.7 35.4C192.7 31 194.3 27.2 197.4 24.2C200.5 21.2 204.4 19.7 209.1 19.7C211.9 19.7 214.5 20.3 216.8 21.4C219.1 22.5 220.9 24 222.4 26Z" fill="black"/>
<path d="M467.1 47.9H485.6L476.1 26.8L467.1 47.9ZM461.3 50.7V47.9H463.7L475.6 20.4H476.6L489.2 47.9H491.5V50.7C481.4 50.7 471.4 50.7 461.3 50.7ZM432.2 20.4H435.2V33.1H450.6V20.4H453.6V50.7H450.6V36.1H435.2V50.7H432.2V20.4ZM419.5 36.9H405.2V33.9H419.4C419.1 30.4 417.7 27.7 415.1 25.6C412.5 23.6 409.6 22.5 406.5 22.5C401.9 22.5 398.3 24.2 395.7 27.7L393.3 25.9C394.7 23.9 396.5 22.4 398.8 21.2C401.1 20.1 403.7 19.5 406.5 19.5C411.1 19.5 415 21 418.2 24C421.3 27 422.9 30.8 422.9 35.2C422.9 39.7 421.4 43.5 418.5 46.6C415.5 49.7 411.6 51.3 406.6 51.3C400.9 51.3 396.5 49.3 393.3 45.3L395.7 43.5C398.5 46.8 402.1 48.5 406.3 48.5C409.6 48.5 412.4 47.6 415 45.6C417.5 43.9 419 40.9 419.5 36.9ZM386.3 50.7H383L373 27.3L362.8 50.8H359.5L372.7 20.5H373.4L386.3 50.7ZM319 50.7H315.7L305.6 27.2L295.4 50.7H292.1L305.3 20.4H306L319 50.7ZM231.7 20.4H234.8V31.8L247 20.4H251.1L236.4 34L252.1 50.7H248.1L234.8 36.5V50.7H231.7V20.4V20.4ZM222.4 26L220 27.8C218.7 26.1 217.1 24.8 215.3 23.9C213.5 23 211.4 22.6 209.2 22.6C206.8 22.6 204.6 23.2 202.5 24.3C200.4 25.5 198.8 27 197.7 29C196.6 31 196 33.2 196 35.6C196 39.3 197.3 42.4 199.8 44.9C202.3 47.4 205.5 48.6 209.4 48.6C213.6 48.6 217.2 46.9 220 43.6L222.4 45.4C220.9 47.3 219 48.8 216.7 49.9C214.4 50.9 211.9 51.5 209.1 51.5C203.8 51.5 199.6 49.7 196.6 46.2C194 43.2 192.7 39.6 192.7 35.4C192.7 31 194.3 27.2 197.4 24.2C200.5 21.2 204.4 19.7 209.1 19.7C211.9 19.7 214.5 20.3 216.8 21.4C219.1 22.5 220.9 24 222.4 26Z" stroke="black" stroke-width="0.216" stroke-miterlimit="22.9256"/>
<path d="M339.7 20.4L353.8 50.7H350.6L347.3 43.9L344.5 37.8L339.3 26.8L335 36L334.8 36.4L334.1 37.8L331.6 43.1L328 50.7H324.6L338.9 20.4H339.7Z" fill="black"/>
<path d="M339.7 20.4L353.8 50.7H350.6L347.3 43.9L344.5 37.8L339.3 26.8L335 36L334.8 36.4L334.1 37.8L331.6 43.1L328 50.7H324.6L338.9 20.4H339.7Z" stroke="black" stroke-width="0.216" stroke-miterlimit="22.9256"/>
<path fill-rule="evenodd" clip-rule="evenodd" d="M334.4 37.1L339.2 39.8L344.1 37.1L345.3 39.5L339.2 42.9L333.3 39.5L334.4 37.1Z" fill="black"/>
<path d="M334.4 37.1L339.2 39.8L344.1 37.1L345.3 39.5L339.2 42.9L333.3 39.5L334.4 37.1Z" stroke="black" stroke-width="0.5669" stroke-miterlimit="22.9256"/>
<path d="M272.3 20.4L286.5 50.7H283.2L280 43.9L277.1 37.8L271.9 26.8L267.6 36L267.4 36.4L266.7 37.8L264.2 43.1L260.6 50.7H257.3L271.6 20.4H272.3Z" fill="black"/>
<path d="M272.3 20.4L286.5 50.7H283.2L280 43.9L277.1 37.8L271.9 26.8L267.6 36L267.4 36.4L266.7 37.8L264.2 43.1L260.6 50.7H257.3L271.6 20.4H272.3Z" stroke="black" stroke-width="0.216" stroke-miterlimit="22.9256"/>
<path fill-rule="evenodd" clip-rule="evenodd" d="M267.1 37.1L271.9 39.8L276.7 37.1L277.9 39.5L271.9 42.9L265.9 39.5L267.1 37.1Z" fill="black"/>
<path d="M267.1 37.1L271.9 39.8L276.7 37.1L277.9 39.5L271.9 42.9L265.9 39.5L267.1 37.1Z" stroke="black" stroke-width="0.5669" stroke-miterlimit="22.9256"/>
<path fill-rule="evenodd" clip-rule="evenodd" d="M66.2 37.9L48.9 69.4H110.6C109.7 67 107.7 64.1 106.4 61.7L93.2 38C92 38.7 90.1 40.8 88.8 40.6C87.9 40.5 85.3 38.3 84.5 37.7C83.3 38.2 81.2 40.5 80 40.6C78.8 40.7 76.2 38.3 75.3 37.7C74.2 38.3 72 40.5 70.8 40.6C69.5 40.7 67.4 38.4 66.2 37.9Z" fill="#8BD40A"/>
<path fill-rule="evenodd" clip-rule="evenodd" d="M22.1 9.6C7.7 12.8 7.8 32.6 21.4 36.2C24.8 37.1 32.9 36.7 36.9 36.7C50 36.7 49.5 23.9 42.7 20.3C40.5 19.2 38.7 19.6 37.5 17.7C36.3 15.7 35.7 14.4 34.2 13C31.4 10.5 27.2 8.4 22.1 9.6Z" fill="#60C3D4"/>
<path fill-rule="evenodd" clip-rule="evenodd" d="M110.5 40.4L118.5 55C119.9 57.4 121.2 59.8 122.5 62.2C123.6 64.3 125.3 67.6 126.6 69.4H147.8C148.4 66.4 145.4 58.4 144.2 56C143.3 54.1 142 52.1 140.9 50.6C139.5 48.7 138.4 47.7 136.8 46C134.4 43.5 129.4 40.8 125.7 39.7C119.6 38 116.1 39 110.5 40.4Z" fill="#FEE30A"/>
<path fill-rule="evenodd" clip-rule="evenodd" d="M68.3 36C69 36.5 69.9 37.1 70.6 37.7C73.7 36.6 74 32.1 79.8 37.7C81.1 37.2 83.1 34.9 84.4 34.8C85.6 34.7 88.1 37.1 89 37.8C90.1 37.4 90.4 36.7 91.5 36.2C91.2 34.9 89.4 32.1 88.7 30.8C86.7 27.2 81.7 17.8 80 15.1C78.7 16.9 73.1 27.6 71.3 30.6C70.5 31.8 68.6 34.9 68.3 36Z" fill="#8BD40A"/>
<path fill-rule="evenodd" clip-rule="evenodd" d="M6.8 47.2C1.3 48.7 -0.299996 54.2 2 58.3C4.6 63 9.7 62.3 15.9 62.3C22.5 62.2 22.7 54.7 18.4 53C16.7 52.3 16.5 52.8 15.6 51.3C13.8 48.2 10.8 46.1 6.8 47.2Z" fill="#60C3D4"/>
<path fill-rule="evenodd" clip-rule="evenodd" d="M57.8 0.200003C49.6 1.9 49.7 13 57.2 15.1C59 15.6 63.7 15.4 65.9 15.4C68.9 15.4 70.7 14.5 71.6 12.3C72.6 9.5 71 7 69.2 6.2C67.9 5.6 67.1 5.9 66.3 4.6C64.5 1.8 62.2 -0.699997 57.8 0.200003Z" fill="#60C3D4"/>
<path fill-rule="evenodd" clip-rule="evenodd" d="M45.7 48.2L36.8 63.9C35.9 65.6 34.5 67.7 33.9 69.4H44.6L55.8 48.9C55.3 48.3 55.2 48.4 54.7 48C53.3 48.5 51.6 50.6 50.4 50.8C48.8 51 46.8 48.9 45.7 48.2Z" fill="#FEE30A"/>
<path fill-rule="evenodd" clip-rule="evenodd" d="M47.4 46.3C47.9 46.9 49 47.7 49.7 48.2C50.8 47.8 52.3 46.3 53.3 45.7C55 44.7 56.2 46.4 57.4 47L60.5 41.7C61.6 39.9 62.5 38.1 63.5 36.3C64.3 34.8 64.2 35 63.4 33.5C62 31.2 60.2 27.4 58.9 25.5L47.4 46.3Z" fill="#FEE30A"/>
<path fill-rule="evenodd" clip-rule="evenodd" d="M104.7 50.4C105 51.6 106.6 54.1 107.2 55.3L112.4 64.7C113.2 66.1 114.2 68.2 115.1 69.5H121.9C121.9 68.6 110.5 48.6 110.2 48.2C109.5 48.5 108.3 49.5 107.7 50C106.5 51 106.4 51 104.7 50.4Z" fill="#60C3D4"/>
<path fill-rule="evenodd" clip-rule="evenodd" d="M165.7 20.1C165 20.3 144.5 40.5 144.3 41.5C143.8 43.3 145.3 44.7 147 44.2C148.3 43.8 163.3 28.4 165.6 26.1C166.3 25.4 168.1 23.8 168.4 22.8C168.9 21.1 167.3 19.5 165.7 20.1Z" fill="#FEE30A"/>
<path fill-rule="evenodd" clip-rule="evenodd" d="M101.3 45.7C103.9 46 103.6 46.8 105.4 47.7C105.9 47.1 105.9 46.8 106.5 46.2C106.9 45.8 107.5 45.5 108 45.1L97.5 26C96.8 26.7 95.3 29.7 94.6 30.8C93.6 32.6 93.7 32.1 95.8 35.8L101.3 45.7Z" fill="#60C3D4"/>
<path fill-rule="evenodd" clip-rule="evenodd" d="M114.1 3.5C111.7 4 112.3 6.5 112.3 9V23.3C112.3 25.5 112.2 28.5 115.1 27.7C117.2 27.2 116.6 24.2 116.6 22.1V7.8C116.7 5.7 116.7 2.9 114.1 3.5Z" fill="#FEE30A"/>
<path fill-rule="evenodd" clip-rule="evenodd" d="M135.6 16.1C134.3 16.6 133.8 18.6 133.2 20.1L129.1 29.1C128.4 31 129.5 33.1 131.8 32.3C133.1 31.8 135.3 25.9 136.3 23.8C137 22.4 137.8 20.7 138.3 19.3C139.2 17.2 137.6 15.3 135.6 16.1Z" fill="#FEE30A"/>
<path fill-rule="evenodd" clip-rule="evenodd" d="M169.6 54.7C166.3 55.7 163 56.6 159.7 57.6C158.2 58.1 156.1 58.3 155.8 60C155.4 61.9 157 62.9 158.9 62.4C162.2 61.5 165.4 60.4 168.6 59.4C170.2 58.9 172.3 58.6 172.8 57.2C173.4 55 171.4 54.2 169.6 54.7Z" fill="#FEE30A"/>
</svg>
