<svg width="31" height="27" viewBox="0 0 31 27" fill="none" xmlns="http://www.w3.org/2000/svg">
<path d="M22.8868 0.267448C22.7165 0.0962249 22.4842 0 22.2423 0C22.0003 0 21.7683 0.0964607 21.5978 0.267684L18.9148 2.96387C18.7372 3.14217 18.5014 3.24051 18.2511 3.24051C18.0605 3.24051 13.5003 3.24051 12.7011 3.24051C12.4507 3.24051 12.2151 3.14217 12.0358 2.96245L9.39988 0.326646C9.22959 0.15613 8.99805 0.0603764 8.7568 0.0603764C8.75657 0.0603764 8.75609 0.0603764 8.75586 0.0603764C8.51414 0.0606122 8.2826 0.157073 8.11231 0.328061L0.263165 8.21284C-0.0890024 8.5666 -0.0882928 9.13759 0.26482 9.49065L2.51595 11.7397C2.94238 12.1682 3.17724 12.7382 3.17724 13.3451C3.17724 14.1302 3.39814 14.8811 3.80872 15.528C2.91518 16.6115 2.97289 18.2252 3.9828 19.2395C4.47167 19.7308 5.11191 20.0148 5.79851 20.0483C5.82996 20.7105 6.09675 21.3633 6.5991 21.8678C7.08797 22.3591 7.72821 22.643 8.41504 22.6765C8.44626 23.3388 8.71329 23.9916 9.2154 24.4961C10.0061 25.2904 11.1406 25.4906 12.0987 25.1475C12.2307 25.5276 12.4473 25.8842 12.7491 26.1873C13.8274 27.2708 15.5759 27.271 16.6544 26.1873L17.0378 25.8024C17.2774 25.5616 17.4631 25.2868 17.5955 24.9937C18.6681 25.9387 20.3213 25.9177 21.3665 24.8678C21.8688 24.3633 22.1356 23.7105 22.1668 23.0482C22.8534 23.015 23.4939 22.7308 23.9828 22.2395C24.4851 21.735 24.7519 21.0822 24.7834 20.4199C25.4697 20.3867 26.1102 20.1025 26.5991 19.6115C27.6033 18.6028 27.6665 17.0011 26.7885 15.9177C27.4283 15.0189 27.7748 13.946 27.7748 12.8194C27.7748 12.5555 27.881 12.2974 28.0662 12.1114L30.7359 9.42838C31.0874 9.07532 31.0874 8.50552 30.7359 8.15246L22.8868 0.267448ZM5.27203 16.6113L6.58018 15.2972C6.94748 14.9281 7.53971 14.9278 7.90725 15.2972C8.27858 15.67 8.27858 16.2766 7.90725 16.6493L6.5991 17.9636C6.23156 18.3327 5.63957 18.3327 5.27203 17.9636C4.90094 17.5908 4.90094 16.9842 5.27203 16.6113ZM7.88833 19.2395L10.5046 16.6113C10.8722 16.2422 11.4644 16.242 11.8319 16.6113C12.203 16.9842 12.203 17.5908 11.8319 17.9636C10.8994 18.9004 10.8497 18.9502 9.2154 20.5919C8.84786 20.9607 8.25587 20.961 7.88833 20.5916C7.51724 20.219 7.51724 19.6124 7.88833 19.2395ZM10.5046 23.2199C10.1335 22.8473 10.1335 22.2407 10.5046 21.8678L11.8128 20.5537C12.1803 20.1846 12.7726 20.1846 13.1401 20.5537C13.4828 20.898 13.5083 21.4412 13.2179 21.8162C13.138 21.8897 13.2569 21.7713 11.8319 23.2199C11.4644 23.5892 10.8724 23.5895 10.5046 23.2199ZM15.7488 24.5262L15.3654 24.9111C14.9979 25.2805 14.4059 25.2805 14.0384 24.9111C13.7002 24.5715 13.6711 24.0383 13.9492 23.6642C14.4478 23.1616 14.4234 23.1914 14.5102 23.0966C14.8811 22.8058 15.4106 22.8345 15.7488 23.1741C16.1199 23.547 16.1197 24.1536 15.7488 24.5262ZM25.3101 18.3353C24.9425 18.7044 24.3503 18.7044 23.9828 18.3353L22.2915 16.6363C21.9381 16.2813 21.3629 16.2792 21.007 16.6316C20.651 16.9839 20.6489 17.5573 21.0022 17.9122L22.6938 19.6112C23.0649 19.9841 23.0649 20.5907 22.6938 20.9633C22.3262 21.3327 21.734 21.3327 21.3665 20.9633L19.6752 19.2643C19.3216 18.9094 18.7466 18.9072 18.3907 19.2596C18.0347 19.6119 18.0326 20.1855 18.3859 20.5405L20.0772 22.2395C20.4486 22.6124 20.4486 23.219 20.0772 23.5916C19.7099 23.9609 19.1177 23.9609 18.7499 23.5916C16.9695 21.8176 17.0548 21.8565 16.8756 21.7485C16.413 21.3513 15.8399 21.1211 15.2292 21.09C15.1963 20.4303 14.9295 19.7803 14.4293 19.2775C14.1727 19.02 13.8742 18.8195 13.5495 18.6822C14.1654 17.6249 14.0228 16.241 13.1209 15.3354C12.1966 14.4068 10.814 14.2943 9.78303 14.8965C9.6494 14.5783 9.45428 14.28 9.19648 14.0212C8.11798 12.9378 6.36968 12.9378 5.29095 14.0212L5.1462 14.1667C5.0464 13.9083 4.99365 13.6307 4.99365 13.3451C4.99365 12.2569 4.57148 11.2338 3.80329 10.4619L2.18909 8.84915L8.75822 2.24996L10.7482 4.23979C11.1929 4.68648 11.7631 4.96124 12.3792 5.03246L8.32068 9.88875C7.99973 10.2732 8.05176 10.8442 8.43704 11.1642C9.36866 11.9385 10.547 12.3048 11.7548 12.1953C12.9625 12.0859 14.0554 11.514 14.8328 10.5836C15.158 10.1944 15.7051 10.0772 16.1637 10.2979C17.0996 10.7489 18.1281 10.9135 19.1399 10.7847L25.3101 16.983C25.6812 17.3558 25.6812 17.9624 25.3101 18.3353ZM26.7772 10.8352C26.249 11.3656 25.9584 12.0703 25.9584 12.8194C25.9584 13.4514 25.794 14.0576 25.487 14.5896L21.0696 10.1524C21.9727 9.65149 22.7132 8.89844 23.2044 7.96496C23.4374 7.52205 23.2661 6.97465 22.822 6.74234C22.3778 6.5098 21.8289 6.68055 21.5959 7.12347C21.103 8.06025 20.257 8.68547 19.3093 8.91707C19.2677 8.92344 19.2263 8.9324 19.1858 8.94466C18.4576 9.0949 17.6769 9.01542 16.9539 8.66708C15.7431 8.08383 14.2973 8.39515 13.4364 9.42532C12.9705 9.98262 12.3149 10.3258 11.5905 10.3916C11.1787 10.4288 10.7728 10.3739 10.3963 10.2345L14.6008 5.20274C14.9303 5.10251 15.2718 5.04402 15.6161 5.04402H18.2511C18.989 5.04402 19.6825 4.76337 20.204 4.23979L22.2425 2.19124L28.8119 8.79042L26.7772 10.8352Z" fill="#333333"/>
</svg>
