<svg width="33" height="29" viewBox="0 0 33 29" fill="none" xmlns="http://www.w3.org/2000/svg">
<path fill-rule="evenodd" clip-rule="evenodd" d="M14.3033 0C12.4941 0 11.0033 1.51145 11.0033 3.34565V4.45869H3.30547C1.49629 4.45869 -0.000976607 5.97446 -0.000976562 7.8087V25.6478C-0.000976562 27.482 1.49629 29 3.30547 29H29.7033C31.5125 29 32.999 27.482 32.999 25.6478V7.8087C32.999 5.9745 31.5125 4.45869 29.7033 4.45869H22.0033V3.34565C22.0033 1.51145 20.5125 0 18.7033 0H14.3033ZM14.3033 2.23043H18.7033C19.3317 2.23043 19.8033 2.7086 19.8033 3.34565V4.45869H13.2033V3.34565C13.2033 2.7086 13.6749 2.23043 14.3033 2.23043ZM3.30547 6.68912H29.7033C30.3318 6.68912 30.8076 7.17156 30.8076 7.8087V13.3826H14.3076C12.8077 13.3485 12.8077 15.6472 14.3076 15.613H30.8076V22.3043H29.7033C27.0508 22.3043 24.8241 24.2268 24.3129 26.7674H8.69375C8.18251 24.2268 5.95583 22.3043 3.30332 22.3043H2.19902V15.613H5.47969C6.97965 15.6472 6.97965 13.3485 5.47969 13.3826H2.19902V7.8087C2.19902 7.17156 2.67704 6.68912 3.30547 6.68912ZM9.90332 13.3826C9.29581 13.3826 8.80332 13.8819 8.80332 14.4978C8.80332 15.1137 9.29581 15.613 9.90332 15.613C10.5108 15.613 11.0033 15.1137 11.0033 14.4978C11.0033 13.8819 10.5108 13.3826 9.90332 13.3826ZM2.19902 24.5348H3.30332C4.762 24.5348 5.96219 25.4589 6.40781 26.7674H3.30547C2.67704 26.7674 2.19902 26.285 2.19902 25.6478V24.5348ZM29.7033 24.5348H30.8076V25.6478C30.8076 26.285 30.3318 26.7674 29.7033 26.7674H26.5988C27.0445 25.4589 28.2446 24.5348 29.7033 24.5348Z" fill="#333333"/>
</svg>
